<?xml version="1.0" encoding="UTF-8"?>
<!DOCTYPE svg PUBLIC "-//W3C//DTD SVG 1.1//EN" "http://www.w3.org/Graphics/SVG/1.1/DTD/svg11.dtd">
<!-- Creator: CorelDRAW 2020 (64-Bit) -->
<svg xmlns="http://www.w3.org/2000/svg" xml:space="preserve" width="84.314mm" height="84.314mm" version="1.1" style="shape-rendering:geometricPrecision; text-rendering:geometricPrecision; image-rendering:optimizeQuality; fill-rule:evenodd; clip-rule:evenodd"
viewBox="0 0 3926.87 3926.87"
 xmlns:xlink="http://www.w3.org/1999/xlink"
 xmlns:xodm="http://www.corel.com/coreldraw/odm/2003">
 <defs>
  <style type="text/css">
   <![CDATA[
    .fil0 {fill:none}
    .fil1 {fill:white}
    .fil2 {fill:#093C86;fill-rule:nonzero}
   ]]>
  </style>
 </defs>
 <g id="Слой_x0020_1">
  <metadata id="CorelCorpID_0Corel-Layer"/>
  <rect class="fil0" transform="matrix(2.64845E-14 -2.0084 1 5.31916E-14 -2.72848E-11 3926.87)" width="1955.22" height="3926.87"/>
  <g id="_92897404592">
   <polygon class="fil1" points="1880.25,1737.29 1974.23,1701.9 2659.3,3740.84 2542.73,3738.23 "/>
   <path class="fil2" d="M1874.12 1720.98l110.87 -41.74c233.05,693.13 465.86,1386.35 698.71,2079.55l-153.69 -3.44c-223.69,-676.2 -447.55,-1352.37 -671.58,-2028.45l15.7 -5.91zm89.36 3.59l-61.39 23.11 653.36 1973.43 79.45 1.78 -671.42 -1998.32z"/>
   <polygon class="fil1" points="2350.38,3334.41 2547.97,3260.01 2683.65,3659.22 2461.41,3669.96 "/>
   <path class="fil2" d="M2342.19 3312.68l220.06 -82.87 153.32 451.11 -270.72 13.08 -123.58 -373.45 20.92 -7.88zm191.5 -22.46l-154.21 58.06 98.49 297.62 173.75 -8.39 -118.03 -347.3z"/>
   <polygon class="fil1" points="2350.38,3334.41 2547.97,3260.01 2608.14,3441.75 2410.55,3516.16 "/>
   <path class="fil2" d="M2342.19 3312.67l220.27 -82.94 74.78 225.89 -241.19 90.82 -74.78 -225.89 20.92 -7.88zm191.29 -22.38l-154 57.99 45.55 137.6 154 -57.99 -45.55 -137.6z"/>
   <polygon class="fil1" points="1877.19,1735.23 1780.68,1699.84 1077.09,3738.78 1196.81,3736.17 "/>
   <path class="fil2" d="M1855.21 1745.74l-63.89 -23.42 -689.63 1998.53 82.54 -1.81 670.98 -1973.3zm-68.52 -62.27l112.5 41.25c-229.96,676.18 -459.59,1352.47 -689.78,2028.58l-156.89 3.44c239.2,-693.11 478.41,-1386.22 717.53,-2079.36l16.65 6.1z"/>
   <polygon class="fil1" points="1394.36,3332.35 1191.42,3257.95 1052.08,3657.16 1280.33,3667.89 "/>
   <path class="fil2" d="M1365.04 3346.37l-159.48 -58.46 -121.3 347.51 179.67 8.45 101.1 -297.5zm-165.61 -110.25l224.24 82.2 -126.96 373.57 -276.81 -13.01 157.38 -450.88 22.15 8.11z"/>
   <polygon class="fil1" points="1394.36,3332.35 1191.43,3257.95 1129.63,3439.69 1332.56,3514.09 "/>
   <path class="fil2" d="M1365.04 3346.37l-159.27 -58.38 -46.82 137.68 159.27 58.39 46.82 -137.7zm-165.61 -110.24l224.25 82.2 -76.77 225.79 -246.6 -90.41 76.77 -225.77 22.35 8.19z"/>
   <polygon class="fil1" points="1844.12,1465.44 1920.59,1465.44 1920.59,1582.44 1844.12,1582.44 "/>
   <path class="fil2" d="M1844.12 1447.99l93.95 0 0 151.9 -111.41 0 0 -151.9 17.47 0zm59.01 34.93l-41.55 0 0 82.04 41.55 0 0 -82.04z"/>
   <path class="fil1" d="M1555.48 606.11l-408.1 0.12 -0.09 -253.1c0,0 41.07,-174.2 308.07,-181.46 267,-7.26 1413.01,-0.01 1413.01,-0.01 0,0 79.09,264.49 -202.8,440.72 -281.89,176.24 -795.35,-21.55 -795.35,-21.55l-314.75 15.28z"/>
   <path class="fil2" d="M1555.49 629.3l-431.29 0.13c-0.02,-93.15 0.03,-186.3 -0.11,-279.45l0.64 -2.52c0.14,-0.54 45.2,-191.26 330.09,-199 267.11,-7.25 1410.35,-0.01 1413.64,0l17.49 0.1 4.8 16.72c0.23,0.81 84.03,281.19 -212.89,466.83 -276.44,172.83 -760.17,1.11 -811.41,-17.86l-309.86 15.03 -1.09 0zm-384.91 -46.27l383.82 -0.12 319.64 -15.5 4.45 1.69c1.45,0.55 502.78,193.62 774.8,23.55 225.68,-141.1 207.59,-339.62 196.53,-397.9 -147.79,-0.88 -1146.61,-6.6 -1393.91,0.11 -231.63,6.29 -279.73,142.19 -285.43,161.58l0.09 226.59z"/>
   <path class="fil1" d="M2679.2 1021.76l-1341.18 0c-28.82,0 -80.7,-60.86 -84.55,-147.81 -3.84,-86.95 1.91,-269.54 1.91,-269.54l1537.17 8.7 -113.36 408.65z"/>
   <path class="fil2" d="M2679.21 1045.06l-1341.2 0c-23.58,0 -55.07,-23.14 -77.33,-62.06 -16.05,-28.07 -28.5,-65.24 -30.39,-108.06 -3.87,-87.67 1.89,-270.83 1.9,-271.36l0.8 -22.5 1590.05 8.98 -126.19 454.99 -17.63 0zm-1341.2 -46.57l1323.57 0 100.51 -362.37 -1484.15 -8.39c-1.38,51.25 -4.26,177.49 -1.26,245.21 1.52,34.54 11.52,64.44 24.4,86.96 13.84,24.2 28.56,38.59 36.94,38.59z"/>
   <polygon class="fil1" points="1667.04,531.83 2693.94,531.83 2521.43,1021.76 1749.19,1015.63 "/>
   <path class="fil2" d="M1667.05 508.55l1059.73 0 -188.92 536.56 -808.33 -6.44 -90.01 -530.12 27.53 0zm994.05 46.57l-966.52 0 74.28 437.46 736.15 5.86 156.09 -443.33z"/>
   <polygon class="fil2" points="2308.51,634.93 2485.13,638.58 2483.77,708.17 2307.15,704.53 "/>
   <path class="fil1" d="M1619.92 1593.72l514.13 0c38.28,0 69.6,31.32 69.6,69.6l0 16.88c0,38.28 -31.32,69.6 -69.6,69.6l-514.13 0c-38.28,0 -69.6,-31.32 -69.6,-69.6l0 -16.88c0,-38.28 31.32,-69.6 69.6,-69.6z"/>
   <path class="fil2" d="M1619.91 1558.78l514.14 0c28.65,0 54.78,11.78 73.78,30.75l0.07 -0.07c18.93,18.93 30.68,45.07 30.68,73.86l0 16.89c0,28.68 -11.76,54.79 -30.67,73.71l-0.14 0.14c-18.93,18.92 -45.02,30.67 -73.71,30.67l-514.14 0c-28.78,0 -54.93,-11.75 -73.85,-30.67l0 -0.14c-18.92,-18.93 -30.67,-45.02 -30.67,-73.71l0 -16.89c0,-28.69 11.76,-54.79 30.67,-73.72 19.01,-19.01 45.16,-30.82 73.85,-30.82zm514.14 69.86l-514.14 0c-9.59,0 -18.24,3.86 -24.45,10.07 -6.3,6.3 -10.21,15.01 -10.21,24.6l0 16.89c0,9.55 3.89,18.23 10.14,24.53l0.07 -0.07c6.29,6.29 14.96,10.21 24.45,10.21l514.14 0c9.55,0 18.23,-3.88 24.52,-10.14 6.25,-6.29 10.14,-14.97 10.14,-24.53l0 -16.89c0,-9.5 -3.92,-18.16 -10.21,-24.46l0 -0.14c-6.21,-6.21 -14.87,-10.07 -24.45,-10.07z"/>
   <path class="fil1" d="M1844.12 335.68l65.73 0c149.11,0 271.1,121.99 271.1,271.1l0 587.58c0,149.1 -121.99,271.1 -271.1,271.1l-65.73 0c-149.11,0 -271.1,-121.99 -271.1,-271.1l0 -587.58c0,-149.1 121.99,-271.1 271.1,-271.1z"/>
   <path class="fil2" d="M1844.12 300.74l65.73 0c84.19,0 160.71,34.42 216.16,89.87 55.45,55.44 89.87,131.96 89.87,216.16l0 587.58c0,84.19 -34.42,160.72 -89.87,216.16 -55.44,55.44 -131.97,89.87 -216.16,89.87l-65.73 0c-84.19,0 -160.71,-34.43 -216.16,-89.87 -55.44,-55.45 -89.87,-131.97 -89.87,-216.16l0 -587.58c0,-84.19 34.43,-160.71 89.87,-216.16 55.45,-55.45 131.97,-89.87 216.16,-89.87zm65.73 69.86l-65.73 0c-64.91,0 -123.95,26.58 -166.76,69.4 -42.82,42.82 -69.41,101.86 -69.41,166.76l0 587.58c0,64.9 26.58,123.94 69.41,166.76 42.82,42.82 101.86,69.41 166.76,69.41l65.73 0c64.91,0 123.95,-26.59 166.76,-69.41 42.82,-42.82 69.41,-101.86 69.41,-166.76l0 -587.58c0,-64.91 -26.58,-123.94 -69.41,-166.76 -42.82,-42.82 -101.86,-69.4 -166.76,-69.4z"/>
   <polygon class="fil2" points="1573.03,981.64 2180.94,981.64 2180.94,1051.51 1573.03,1051.51 "/>
   <polygon class="fil2" points="1581.25,1151.45 1788.55,1151.45 1788.55,1221.31 1581.25,1221.31 "/>
   <polygon class="fil2" points="2002.15,1176.09 2150.02,1176.09 2150.02,1245.95 2002.15,1245.95 "/>
   <polygon class="fil1" points="1827.16,1757.07 1926.82,1757.07 1926.82,3746.85 1827.16,3746.85 "/>
   <path class="fil2" d="M1827.16 1739.61l117.13 0 0 2024.71 -134.59 0 0 -2024.71 17.47 0zm82.19 34.93l-64.73 0 0 1954.84 64.73 0 0 -1954.84z"/>
   <polygon class="fil1" points="1771.64,3301.19 1981.19,3301.19 1981.19,3662.65 1771.64,3662.65 "/>
   <path class="fil2" d="M1771.64 3277.9l232.83 0 0 408.03 -256.12 0 0 -408.03 23.29 0zm186.26 46.57l-162.97 0 0 314.88 162.97 0 0 -314.88z"/>
   <polygon class="fil1" points="1771.64,3301.19 1981.19,3301.19 1981.19,3481.92 1771.64,3481.92 "/>
   <path class="fil2" d="M1771.64 3277.9l232.83 0 0 227.3 -256.12 0 0 -227.3 23.29 0zm186.26 46.57l-162.97 0 0 134.15 162.97 0 0 -134.15z"/>
  </g>
 </g>
</svg>
