<?xml version="1.0" encoding="UTF-8"?>
<!DOCTYPE svg PUBLIC "-//W3C//DTD SVG 1.1//EN" "http://www.w3.org/Graphics/SVG/1.1/DTD/svg11.dtd">
<!-- Creator: CorelDRAW 2020 (64-Bit) -->
<svg xmlns="http://www.w3.org/2000/svg" xml:space="preserve" width="84.314mm" height="84.314mm" version="1.1" style="shape-rendering:geometricPrecision; text-rendering:geometricPrecision; image-rendering:optimizeQuality; fill-rule:evenodd; clip-rule:evenodd"
viewBox="0 0 65949.7 65949.7"
 xmlns:xlink="http://www.w3.org/1999/xlink"
 xmlns:xodm="http://www.corel.com/coreldraw/odm/2003">
 <defs>
  <style type="text/css">
   <![CDATA[
    .fil2 {fill:none}
    .fil0 {fill:#003399}
    .fil1 {fill:#093C86;fill-rule:nonzero}
   ]]>
  </style>
 </defs>
 <g id="Слой_x0020_1">
  <metadata id="CorelCorpID_0Corel-Layer"/>
  <g id="_92744626512">
   <path class="fil0" d="M46931.18 53521.15l-3638.91 7.51c12.05,-223.39 759.12,-2017.43 947.47,-2511.07 26.75,-70.08 38.41,-123.59 70.71,-194.84l116.86 -172.08c252.41,-58.9 1022.01,-19.87 1342.08,-17.29 861.74,7.04 1145.52,-128.51 1213.41,203.21 144,703.74 95.43,2001.63 -51.62,2684.56zm-8221.38 -1.49c-1707.45,4.85 -1362.89,380.07 -1374.47,-2003.51 -5.4,-1110.79 -357.54,-883.17 2449.28,-883.17 11.81,171.85 -945.59,2673.14 -1074.81,2886.68zm3870.99 11.65l847.19 -2201.95c80.41,-198.99 143.14,-611.2 362.94,-696.62 5.24,11.5 11.5,17.21 12.2,35.9 7.2,200.87 65.63,-28.47 -77.59,333.53 -57.88,146.35 -94.02,231.76 -151.2,386.4 -93.08,251.87 -185.14,498.88 -286.75,747.15 -98.63,241.15 -201.1,493.95 -292.77,741.91 -52.95,143.14 -89.25,242.24 -145.17,390.7 -76.34,202.9 -57.02,263.52 -268.84,262.97zm-534.55 -2.5l-2124.82 -0.94 1076.45 -2782.02c42,-68.44 16.19,-36.14 63.51,-83.46 178.34,-80.02 1758.52,-34.57 2089.55,-25.73 -0.86,142.59 -989.94,2667.51 -1104.69,2892.15zm-2784.68 -5.48c42.86,-224.18 180.53,-535.96 264.15,-742.38l573.27 -1490.94c181.62,-482.22 174.04,-642.88 390.86,-656.49 -13.06,227.23 -436.85,1168.2 -550.82,1482.25l-446.01 1134.41c-73.13,203.21 -27.53,268.68 -231.45,273.14zm7429.33 490.51c-36.06,313.66 -625.05,869.64 -904.92,1072.78 -404.63,293.56 -873.24,487.54 -1498.68,531.66 -1246.5,87.92 -2772.09,12.44 -4048.62,12.91l-16232.43 -2.42c-1544.83,8.06 -2368.16,159.18 -3441.17,-626.46 -1047.28,-766.78 -1138.87,-1802.95 -1139.73,-2946.52 -0.86,-1174.54 108.8,-2131.08 1131.13,-2910.3 1045.16,-796.58 1878.59,-634.44 3404.88,-634.44l16277.33 0c1277.63,0 2798.37,-74.93 4046.36,8.53 595.87,39.81 1104.45,258.98 1484.6,523.99 222.46,155.11 375.92,271.73 547.53,485.98 128.04,159.8 369.19,461.18 383.9,617.7 -876.76,68.29 -2005.15,7.12 -2910.14,6.88l-5845.47 1.02c-1316.74,0.39 -1091.47,468.53 -1091.47,1900.65 0,335.01 -39.74,1143.72 27.06,1425 101.37,426.84 468.14,530.87 974.38,528.68l5890.53 -0.31c893.03,-0.63 2089.94,-66.8 2944.95,4.69zm-23943.98 -6577.45l20928.63 11.5 17.52 581.64 -20922.84 1.25 -23.31 -594.39zm19260.61 -4553.53c0,-289.49 -51,-462.2 317.41,-385.86 42.24,974.22 1.33,2541.81 0.23,3623.35 -0.86,893.73 105.36,851.88 -316.63,822.32l-1.02 -4059.81zm-17067.81 -247.8c554.03,17.52 1437.12,214.87 1993.42,291.29 4335.14,595.01 8283.17,528.76 12621.91,-3.44 636.23,-78.06 1348.73,-261.64 1967.45,-291.68l-10.95 4310.97 -16571.51 -5.01 -0.31 -4302.13zm-808.94 -170.52l331.96 55.07 -6.49 4417.11 -333.21 5.01 7.74 -4477.19zm-11681.88 -6868.27c320.46,-375.45 708.82,-827.64 993.85,-1294.14 241.07,11.58 807.53,265.48 1077.16,352.53 1183.69,381.79 2074.37,669.4 3321.19,995.89 4865.31,1273.8 10232.24,1843.94 15383.05,1840.65 5107.71,-3.29 10489.66,-558.09 15419.89,-1848.08 747.93,-195.7 1513.07,-405.33 2235.66,-641.63 339.63,-111.07 1938.66,-698.26 2129.05,-702.17l1024.51 1309c255.07,303.1 1008.79,1034.06 1087.25,1204.26 -192.34,181.94 -760.45,518.98 -1055.41,695.37 -6237.51,3730.51 -13412.94,5345.81 -20840.95,5350.03 -5876.76,3.36 -12295.82,-1152.95 -17431.06,-3539.5 -703.89,-327.19 -3907.99,-1945.86 -4462.17,-2505.91l1117.99 -1216.31zm1338.64 -1691.25c44.66,-171.3 549.88,-958.03 677.46,-1190.34 609.95,-1111.42 1293.51,-2578.81 1581.75,-3826.79 670.73,45.29 1407.4,140.95 2096.12,221.2 4169.47,486.37 11055.5,730.65 15081.28,703.89 5229.19,-34.73 9985.61,-178.73 15139.32,-703.74 564.27,-57.49 1513.38,-218.23 2037.3,-211.27 118.03,203.06 361.06,1079.74 471.27,1372.36 347.14,921.66 665.41,1599.11 1138.09,2460.62 137.67,250.85 612.06,987.67 665.41,1179 -285.42,61.25 -745.04,249.28 -1079.82,366.61 -5535.65,1940.46 -12545.65,2724.45 -18371.57,2731.18 -3595.97,4.15 -7110.67,-269.78 -10481.52,-817.94 -2759.81,-448.82 -4304.71,-834.36 -6872.41,-1585.03 -716.33,-209.39 -1370.32,-490.83 -2082.66,-699.75zm39695.21 195.24c861.82,-407.21 1758.68,-723.45 2661.95,-1210.52 920.64,-496.38 1644.4,-896.24 2469.38,-1443.22 780.08,-517.26 1548.04,-1124.71 2168.94,-1743.04 406.35,-404.63 619.5,-602.91 939.65,-994.4l432.94 -556.53c122.41,-177.32 262.58,-396.26 383.12,-554.34 -46.15,611.13 -909.69,2251.54 -1195.19,2801.97 -822.08,1585.27 -2297.45,3134.16 -3566.25,4347.66 -336.73,322.03 -700.69,618.24 -1066.83,910.31 -317.1,253.04 -783.05,641.71 -1138.71,845.71 -299.58,-151.67 -1892.43,-2023.61 -2089,-2403.6zm-42561.31 2400.47c-340.18,-96.6 -1912.38,-1440.64 -2245.52,-1759.46 -685.9,-656.34 -1330.74,-1273.88 -1937.49,-2019.15 -1069.26,-1313.69 -2403.52,-3371.17 -2825.04,-5089.8 133.29,85.96 314.52,427.23 419.18,571 893.18,1227.1 1416.55,1574.47 2413.45,2440.52 1207.16,1048.61 3384.86,2198.35 4899.41,2884.41 229.03,103.72 1216.07,483.71 1332.85,586.49 -314.75,542.22 -1662.7,2095.96 -2056.85,2386zm40013.79 -7685.03c2737.83,-321.48 7972.72,-1174.23 10590.64,-2281.57l1230.39 -548.94c-632.09,1939.99 -2404.69,3627.18 -3906.26,4707.78 -1437.28,1034.21 -2563.48,1599.5 -4128.33,2346.5 -285.03,136.1 -1258.94,579.92 -1533.02,625.21 -618.64,-631.54 -2234.72,-4119.49 -2253.42,-4848.96zm-37630.61 4840.28c-332.74,-6.49 -2634.81,-1115.33 -3023.09,-1328.55 -487.7,-267.82 -909.77,-515.62 -1379.32,-782.19 -1840.03,-1044.54 -4468.9,-3273.32 -5201.26,-5551.45 141.73,27.38 460.87,202.74 624.81,283.15 1944.45,954.43 5895.77,1758.91 8029.35,2088.22 383.66,59.21 3075.42,423.32 3189.39,488.64 -38.17,314.68 -328.99,1045.95 -445.69,1345.92 -486.99,1252.21 -1028.27,2344.15 -1794.19,3456.27zm2401.95 -5327.04c-752.08,93.16 -6387.77,-1019.43 -7122.17,-1189.87 -1862.55,-432.32 -3383.76,-877.54 -4989.84,-1795.91 -177.17,-101.29 -173.57,-43.96 -204.39,-293.87 -38.48,-311.86 -36.68,-680.58 -36.68,-1006.84 0.08,-1188.7 -80.33,-1163.28 614.49,-1512.76 458.99,-230.9 910.63,-460.16 1424.06,-645.46 1029.6,-371.54 2093.69,-688.02 3221.61,-948.41 1721.13,-397.28 3523.85,-714.61 5291.37,-976.1 467.59,-69.22 1404.89,-236.14 1817.19,-217.92 318.74,1882.5 523.52,2121.15 525.63,4300.65 1.56,1652.69 -232.94,2797.98 -541.28,4286.49zm35064.56 10.25c-332.59,-1372.75 -555.98,-2766.61 -549.02,-4296.74 7.43,-1639.86 214.87,-2834.58 531.66,-4310.11 793.77,33.4 3044.13,418.39 3930.59,566.31 2277.82,379.99 5861.27,1148.26 7824.42,2249.19 276.97,155.34 529.39,174.27 557.31,546.83 46.62,623.64 69.62,1552.96 -44.51,2147.66 -1616.95,1025.53 -3575.4,1503.61 -5668.39,2018.13 -849.54,208.85 -5597.52,1064.64 -6582.06,1078.72zm-34557.3 -8669.5c610.66,-122.41 1383.62,-159.02 2014.61,-228.32 6664.19,-732.05 17221.51,-876.68 23741.71,-464.39 1434.85,90.81 2813.62,139.78 4231.03,284.8 657.74,67.27 1382.37,127.26 2043.32,182.49 422.93,35.36 1634.08,127.97 1974.49,227.38 26.75,55.07 25.66,12.83 22.29,124.84l-86.04 362.08c-269.47,1109.62 -415.97,2783.9 -412.61,3883.89 3.91,1243.22 98.56,2192.4 327.89,3383.6 36.06,187.18 69.69,338.3 112.87,521.25 35.59,150.88 84.87,231.06 74.07,368.33 -8.84,111.23 3.75,42.16 -33.01,107.16 -469.24,116.55 -1466.06,162.54 -2002.72,222.61 -1972.22,220.81 -4301.35,342.52 -6287.8,469 -5630.29,358.56 -11835.65,255.31 -17478.31,-3.36 -2039.17,-93.47 -6300.01,-400.64 -8248.6,-689.74 -34.57,-357.31 881.53,-2991.02 378.89,-6715.12 -53.35,-395.48 -382.41,-1853.17 -372.09,-2036.51zm34710.54 -423.24c-15.02,-365.44 772.1,-2186.62 940.35,-2554.17 229.34,-500.92 645.31,-1287.41 945.28,-1749.84 107.94,-166.29 258.59,-368.02 328.52,-522.11 417.69,31.21 2578.57,1089.28 3032.24,1334.81 2524.37,1366.72 5651.73,3450.4 6586.05,6347.09 -198.83,-65.23 -416.75,-188.2 -637.96,-290.74 -2169.8,-1006.05 -5638.9,-1720.04 -8018.09,-2099.32l-3176.4 -465.72zm-47224.9 2849.6c629.19,-1948.2 2534.85,-3733.79 3936.22,-4712.16 877.78,-612.77 1642.05,-1096.87 2676.58,-1639.08 450.93,-236.3 2547.91,-1274.97 2992.35,-1326.28 419.72,501.85 987.2,1602.24 1296.17,2258.5 171.07,363.09 972.19,2216.34 934.72,2580.84 -1387.92,103.09 -4914.9,736.43 -6316.74,1054.79 -974.61,221.36 -2018.68,449.99 -2926.34,764.98 -743.39,257.97 -1305.4,407.76 -1993.81,748.71 -176.31,87.29 -421.76,222.53 -599.16,269.7zm10087.22 -7916.72c694.2,-222.85 1398.95,-499.19 2118.57,-710.86 709.13,-208.61 1472.16,-446.4 2208.36,-624.03 8540.83,-2061.07 16866.79,-2241.68 25589.4,-948.72 2533.28,375.53 5495.6,1095.69 7926.03,1925.13 350.81,119.75 709.13,266.26 1046.26,352.22 -85.57,301.14 -511.16,886.07 -686.53,1204.89 -236.38,429.89 -398.14,750.98 -609.25,1189.24 -522.19,1083.73 -752.47,2125.45 -978.76,2611.35 -387.03,36.29 -1606.86,-153.23 -2078.99,-200.01 -8096.47,-801.04 -15752.09,-874.65 -23909.25,-479.17 -1416.78,68.68 -2844.13,179.2 -4227.43,289.33 -1198.71,95.58 -3177.26,364.27 -4092.66,402.67 -110.68,-174.74 -363.09,-1085.6 -474.01,-1374.23 -174.43,-453.44 -344.24,-829.28 -536.35,-1264.49 -273.92,-620.36 -1280.21,-2318.34 -1295.39,-2373.33zm39692.47 -209c234.81,-391.02 1730.44,-2196.47 2092.6,-2389.75 325.94,168.8 1094.29,791.5 1412.09,1068.08 118.89,103.48 171.14,128.2 273.69,220.66 804.41,725.56 1763.22,1600.29 2461.56,2484.4 1043.29,1320.97 2456.47,3376.49 2835.99,5118.51 -132.5,-108.1 -338.53,-449.53 -437.87,-592.12 -419.33,-601.66 -839.92,-1012.16 -1370.56,-1551.79 -287.38,-292.38 -673.31,-585.08 -1042.19,-891.46 -337.67,-280.49 -746.13,-565.52 -1117.2,-814.65 -804.33,-539.95 -1580.42,-970.7 -2472.9,-1441.81l-2635.2 -1210.05zm-49575.85 6496.18c357.07,-1636.81 1823.84,-3895.08 2846.08,-5139.78 321.09,-390.94 628.1,-725.95 932.61,-1043.29 317.34,-330.71 665.72,-647.5 1015.36,-963.89 105.52,-95.43 140.4,-148.46 255.07,-239.27 421.05,-333.21 1628.99,-1412.01 1969.01,-1498.21 439.9,343.46 1745.85,1848.32 2065.3,2388.27 -257.89,215.96 -5359.73,1909.96 -8241.72,5379.44l-841.72 1116.73zm7425.35 -9194.12c187.33,-184.28 781.41,-538.93 1050.87,-701.78 1906.04,-1151.7 3824.84,-2068.51 5938.01,-2833.96 861.9,-312.25 1706.04,-570.84 2608.84,-841.33 3677.32,-1101.48 8090.29,-1666.93 12297.77,-1669.59 4505.35,-2.89 8335.58,604.71 12328.67,1678.35 2705.05,727.36 5057.1,1761.1 7435.36,3040.93 319.06,171.69 1835.73,1052.2 2135.7,1327.38 -58.74,119.68 -40.52,77.91 -138.84,177.87 -652.66,663.53 -1478.97,1566.81 -1976.29,2326.86 -172.08,11.89 -1822.98,-595.09 -2162.06,-702.64 -736.9,-233.64 -1482.64,-436.38 -2240.12,-639.75 -1462.62,-392.66 -3192.12,-755.36 -4753.61,-997.06 -9030.4,-1398.09 -19503.48,-1147.24 -28250.02,1642.99l-2118.49 707.96c-360.12,-405.02 -698.03,-938.55 -1029.6,-1306.26l-1126.2 -1209.97zm-8453.93 12994.94c2.74,3485.52 1642.84,6495.16 3574.69,8879.36l428.02 471.43c203.53,204.54 359.42,394.22 580.39,632.64 627.79,677.38 1831.74,1680.77 2591.87,2263.98 230.59,176.93 457.58,342.13 707.88,507.72 714.14,472.68 1530.28,1020.45 2242.93,1398.25 514.06,272.44 1025.77,574.05 1584.88,844.85 1548.97,750.04 3543.88,1606.31 5203.84,2081.65 630.68,180.61 1226.09,361.76 1883.44,538.23 641.87,172.24 1320.42,297 1964.4,473.15l-1.56 4578.56c-1346.31,14.08 -1373.22,-63.28 -1367.82,1088.5 -1200.82,103.48 -2001.39,589.54 -2553.86,1266.68 -721.81,884.89 -772.02,1643.7 -773.35,2988.28 -2.35,2352.91 1304.85,3825.15 3716.82,3831.25l21268.57 2.82c2040.66,0.86 3607.7,-1492.03 3607.7,-3429.36 0,-1473.34 100.12,-2510.91 -1002.38,-3639.22 -541.04,-553.79 -1291.24,-915.63 -2343.52,-1024.2 -14.94,-402.28 78.84,-836.87 -249.05,-1014.66 -235.6,-127.81 -810.12,-38.01 -1131.6,-77.05l8.37 -4571.05c678.86,-181.31 1316.27,-300.91 1996,-476.9 1754.46,-453.98 3867,-1175.32 5455.08,-1877.81 2012.66,-890.29 4448.48,-2202.42 6243.53,-3558.35 446.08,-336.97 980.48,-752 1354.29,-1117.52 222.38,-217.53 385.39,-318.51 632.87,-581.64 860.1,-914.77 1533.17,-1502.67 2293.78,-2607.75 157.38,-228.63 339.86,-469.78 494.97,-717.74 1325.66,-2118.72 2285.17,-4380.27 2285.17,-7513.81 0,-3755.38 -1761.18,-6822.35 -3539.18,-8954.53 -1915.35,-2297.06 -4267.48,-4013.97 -6869.36,-5452.42 -9045.81,-5000.94 -20762.73,-5912.04 -31064.66,-3415.67 -4952.52,1200.19 -10554.74,3751.86 -14231.19,7348.46 -147.44,144.24 -266.49,255.54 -382.18,383.12 -127.81,140.95 -253.12,228.48 -387.11,376.7 -810.59,896.86 -1344.2,1569.7 -2025.25,2607.91 -395.63,602.99 -751.61,1286.16 -1064.48,1988.96 -785.48,1764.31 -1134.49,3353.33 -1132.93,5477.22z"/>
   <path class="fil1" d="M46930.79 53676.81l-3803.64 7.9 8.92 -164.18c10.32,-191.25 426.06,-1227.49 719.46,-1959.08 99.57,-248.42 184.68,-460.32 237.79,-599.63l24.33 -70.32c13.92,-42 27.45,-83.07 50.14,-133.05l4.61 -10.25 160.35 -236.07 58.82 -13.77c213.46,-49.75 731.51,-36.37 1107.11,-26.75 107.32,2.82 202.9,5.32 271.58,5.87 224.49,1.8 413.78,-6.65 568.18,-13.45 517.81,-22.84 720.48,-31.91 796.82,341.27 71.34,349.01 96.99,835.54 87.61,1323.31 -10.09,528.53 -61.17,1061.59 -139.31,1424.76l-26.52 123.2 -126.25 0.23zm-3439.69 -304.51l3311.1 -6.88c60.93,-338.85 100.43,-791.66 109.04,-1241.65 9,-467.44 -14.78,-930.03 -81.5,-1256.2 -22.92,-112.01 -150.96,-106.3 -477.84,-91.91 -155.58,6.88 -346.12,15.33 -584.14,13.45 -75.56,-0.63 -170.44,-3.13 -276.43,-5.87 -325.16,-8.37 -762.32,-19.63 -972.58,9.39l-70.63 103.95c-13.92,32.15 -23.7,61.79 -33.56,92.06 -8.45,26.36 -17.13,52.8 -29.18,84.4 -45.21,118.5 -135.08,342.44 -240.13,604.48 -231.53,577.26 -541.28,1349.36 -654.15,1694.77zm-4781.62 303.02c-232.7,0.63 -432.4,8.68 -597.99,15.25 -474.32,18.93 -705.22,28.24 -849.07,-181.31 -118.03,-172.16 -110.84,-452.03 -96.6,-996.75 6.73,-262.11 15.25,-590.09 13.38,-995.89 -0.55,-119.6 -5.79,-229.81 -10.25,-324.53 -18.15,-386.09 -26.67,-569.51 265.48,-674.87 192.81,-69.46 524.62,-63.67 1156.08,-52.64 299.58,5.24 672.68,11.81 1193.7,11.81l145.72 0 10.09 146.04c6.88,100.36 -188.59,672.53 -418.08,1289.05 -276.11,741.91 -603.93,1565.17 -678.63,1688.67l-45.37 74.93 -88.47 0.23zm-610.19 -296.37c142.98,-5.63 311.39,-12.44 513.67,-14.63 109.98,-239.27 381.16,-928.15 616.91,-1561.57 156.2,-419.72 296.37,-809.18 360.9,-1013.88 -378.42,-1.64 -721.42,-7.74 -1005.12,-12.67 -594.47,-10.32 -906.95,-15.8 -1046.1,34.34 -74.93,26.99 -69.85,136.49 -58.98,366.85 4.38,94.02 9.62,203.45 10.25,337.99 1.96,413.15 -6.57,741.83 -13.38,1004.49 -12.44,477.92 -18.77,723.61 42.79,813.4 45.99,66.96 220.5,59.99 579.06,45.68zm4335.69 96.6l847.74 -2204.37c15.72,-38.87 33.79,-98.4 53.19,-162.46 72.67,-237.4 161.37,-529.39 398.45,-621.45l132.03 -51.23 65.16 130.23c12.83,23.7 25.11,45.68 27.06,96.05 1.25,36.29 -0.16,33.48 0.16,34.18 17.99,37.86 27.3,57.33 13.53,115.37 -4.54,18.07 -10.4,31.21 -21.59,55.77 -11.58,26.2 -34.73,77.12 -80.1,191.79l-45.6 112.95c-33.32,83.77 -62.11,155.66 -104.34,269.86 -47.56,128.67 -94.72,255.7 -140.79,376.7 -44.98,117.95 -93.39,241.38 -148.46,375.92 -46.85,114.2 -95.43,233.25 -148.38,366.61 -45.29,114.04 -92.46,235.99 -141.97,369.9l-145.88 391.8 -28.39 80.41c-72.9,215.49 -96.29,284.01 -386.4,283.39l-226.6 -0.47 81.19 -210.96zm-389.06 208.92l-2352.36 -1.02c388.05,-1002.46 778.36,-2004.44 1163.82,-3007.84 4.61,-7.51 26.59,-42 26.59,-45.13 6.26,-10.79 9.39,-16.19 20.26,-30.27 9.78,-12.75 15.49,-18.3 26.91,-29.25l40.44 -39.5 25.81 -11.58c204.62,-91.83 1719.18,-50.92 2121.46,-40.13l188.51 5.01 -0.94 152.37c-0.47,82.83 -187.88,604.01 -410.65,1187.21 -289.33,757.4 -642.57,1640.96 -711.17,1775.18l-43.49 85.02 -95.19 -0.08zm-1897.52 -312.49l1797.4 0.78c113.81,-263.52 407.76,-1004.88 657.9,-1659.65 147.05,-384.99 277.83,-734.4 344.48,-926.04 -504.75,-12.91 -1593.72,-36.29 -1800.14,10.4l-10.32 17.76 -989.32 2556.75zm-1040.63 121.79c39.19,-204.62 147.44,-466.58 232.15,-671.75l41.22 -100.51 571.7 -1486.4c38.56,-103.33 70.32,-196.88 96.99,-275.72 115.06,-339.39 157.61,-464.78 429.81,-481.91l175.6 -11.03 -10.01 175.37c-10.56,184.05 -223.16,699.28 -391.41,1107.11 -71.18,172.71 -134.38,325.63 -168.48,419.8l-447.34 1138.17c-13.38,37.08 -23.23,74.23 -31.37,105.13 -50.61,192.11 -68.91,261.02 -342.44,266.88l-192.73 4.22 36.29 -189.37zm7737.99 537.76c-19.01,165.36 -145.17,366.77 -308.26,559.97 -210.88,249.91 -490.2,497.94 -660.25,621.37 -213.23,154.72 -444.05,283.54 -704.36,379.6 -259.14,95.58 -546.83,158.32 -874.88,181.39 -861.66,60.78 -1858.72,43.72 -2815.11,27.38 -429.11,-7.27 -850.24,-14.55 -1244.62,-14.47l-16231.81 -2.35c-217.92,1.1 -425.04,5.24 -619.97,9.07 -1195.81,23.62 -1952.35,38.56 -2914.13,-665.49 -554.03,-405.64 -855.72,-883.72 -1019.04,-1411.93 -159.72,-516.64 -183.74,-1075.59 -184.21,-1660.51 -0.39,-601.19 27.92,-1148.1 189.21,-1650.89 164.49,-512.65 463.76,-972.26 1003,-1383.31 927.84,-707.1 1682.49,-693.96 2845.85,-673.62 187.1,3.21 385.15,6.73 653.76,6.73l16277.33 0c435.76,0 844.77,-7.2 1261.28,-14.39 949.89,-16.58 1938.11,-33.79 2795.4,23.62 293.48,19.48 567.01,80.49 815.75,168.25 283.54,100.04 535.1,234.89 747.78,383.12 115.92,81.5 214.09,152.37 305.05,230.59 94.88,81.5 182.8,170.83 274.94,285.97l0.78 1.56c138.14,172.71 397.59,497.16 416.67,699.2l14.94 158.16 -158.55 12.36c-606.28,47.24 -1334.97,32.85 -2027.44,19.16 -311.16,-6.1 -615.27,-12.28 -894.28,-12.28l-5845.55 1.02c-843.44,0.23 -950.44,219.64 -950.28,831.16 0.63,133.21 3.36,243.97 6.26,364.66 4.22,175.91 9,370.68 9,548.94 0,51.94 -2.58,173.41 -5.4,308.81 -7.9,374.67 -18.62,883.33 28.16,1080.21 38.33,161.52 125.54,261.49 249.83,320.07 144,67.89 340.64,89.8 571.78,88.86l5891.15 -0.39c274.86,-0.08 582.81,-6.73 900.46,-13.45 708.04,-15.02 1465.59,-31.13 2057.4,18.3l160.74 13.45 -18.38 160.11zm-546.52 358.32c69.3,-82.13 129.69,-162.62 172.16,-234.58 -548.32,-30.97 -1202.93,-17.05 -1819.3,-3.99 -317.57,6.65 -625.36,13.3 -906.56,13.45l-5889.9 0.39c-274.86,1.17 -515.31,-28 -706.32,-118.11 -210.88,-99.42 -357.85,-265.24 -420.82,-530.33 -54.99,-231.61 -43.8,-765.3 -35.51,-1158.43 2.11,-103.95 4.15,-195.47 4.15,-302.71 0,-222.06 -4.07,-390.16 -7.74,-541.59 -3.6,-147.6 -6.88,-282.21 -6.88,-372.01 0.39,-840.78 142.52,-1142.47 1262.54,-1142.78l5845.55 -1.02c285.11,0.08 589.22,6.18 900.38,12.28 601.97,11.89 1231.72,24.4 1784.41,-5.24 -76.81,-124.21 -199.15,-277.44 -277.52,-375.3l-2.66 -2.74c-79.31,-99.03 -154.25,-175.37 -234.58,-244.36 -84.01,-72.27 -174.19,-137.35 -280.34,-211.43 -192.42,-133.52 -418.94,-255.07 -673.47,-344.87 -223.63,-78.92 -469.31,-133.68 -732.68,-151.2 -851.96,-57.02 -1829.78,-39.97 -2769.74,-23.62 -452.73,7.9 -897.1,15.64 -1266.13,15.64l-16277.33 0c-199.22,0 -436.62,-4.22 -658.61,-7.98 -1097.49,-19.16 -1809.52,-31.6 -2651.55,610.11 -482.93,368.02 -749.89,776.56 -895.53,1230.47 -148.77,463.76 -174.82,982.43 -174.51,1555.62 0.39,558.48 22.76,1089.98 170.75,1568.84 144.47,467.2 412.37,890.92 905.47,1251.9 876.99,642.02 1592.54,627.87 2723.43,605.57 194.14,-3.75 400.33,-7.9 624.81,-9.07l16233.06 2.35c399.15,-0.16 820.28,7.12 1249.47,14.47 945.75,16.11 1931.78,33.01 2788.2,-27.38 297.23,-20.96 556.69,-77.28 789.31,-163.09 231.45,-85.34 437.48,-200.55 628.65,-339.24 155.5,-112.87 411.43,-340.33 605.34,-570.06zm-23552.73 -7109.42l21079.83 11.65 26.99 893.18c-7077.82,0 -14155.63,-2.42 -21233.45,1.25l-35.59 -906.17 162.23 0.08zm20777.43 323.05l-20615.29 -11.34 11.11 282.68 20612.31 -1.17 -8.13 -270.17zm-18579.71 -5124.45c378.89,12.05 890.06,102.23 1356.4,184.44 243.18,42.86 474.4,83.69 652.97,108.18 2161.27,296.61 4225.16,428.41 6288.04,419.72 2061.54,-8.6 4127.7,-158.08 6294.06,-423.87 259.69,-31.84 521.25,-79.08 783.91,-126.56 406.35,-73.29 815.75,-147.29 1195.03,-165.67l163.56 -7.9 -11.73 4630.57c-5627.48,-2.82 -11255.11,-5.08 -16882.59,-5.08l-0.47 -4618.92 160.82 5.08zm1302.58 492.47c-392.74,-69.22 -817.86,-144.16 -1151.7,-171.38l0.39 3981.2 16260.2 4.85 10.09 -3988c-315.85,27.69 -654.62,88.86 -991.12,149.56 -275.41,49.75 -549.8,99.34 -801.12,130.16 -2172.38,266.49 -4249.96,416.44 -6330.67,425.12 -2079.38,8.76 -4157.35,-123.82 -6330.9,-422.07 -201.65,-27.69 -427.55,-67.58 -665.18,-109.43zm-13913.23 -7481.12l16.5 -19.32c312.72,-366.3 686.61,-804.41 959.12,-1250.41l48.26 -79 92.3 4.46c189.99,9.23 523.36,137.12 805.66,245.45 124.13,46.93 238.33,90.89 311.78,114.51l20.88 6.73c1170.63,377.49 2056.38,663.22 3291.78,986.66 2357.45,617.23 4835.2,1068.94 7350.18,1369.85 2659.14,318.2 5356.21,467.59 7993.76,465.95 2632.94,-1.64 5341.66,-150.81 8025.91,-472.44 2503.72,-300.05 4982.8,-750.28 7354.79,-1370.87 367.63,-96.13 743.24,-196.8 1124.32,-304.9 373.34,-105.91 743.47,-216.9 1102.19,-334.07 87.06,-28.39 271.97,-93.71 496.14,-172.71 611.44,-215.57 1513.07,-533.61 1678.11,-536.9l77.75 -1.56 1072.7 1370.4c97.62,115.53 270.09,295.9 448.2,481.99 292.46,305.6 600.1,627.16 658.06,752.86l46.93 101.76 -81.82 77.28c-198.21,187.33 -746.29,514.68 -1053.46,698.18l-28.94 17.29c-3044.13,1820.71 -6311.03,3139.87 -9721.23,4015.3 -3604.34,925.25 -7368.95,1354.68 -11199.65,1356.87 -3033.26,1.64 -6210.84,-304.59 -9282.58,-928.31 -2902.32,-589.38 -5710.47,-1461.84 -8213.95,-2625.35 -437.4,-203.21 -1834.94,-902.41 -2967.4,-1538.41 -707.41,-397.2 -1316.74,-773.74 -1539.9,-999.25l-105.05 -106.14 1218.65 -1325.89zm253.66 183.58c-324.3,379.6 -694.27,757.4 -1034.14,1127.14 261.72,209.16 773.98,519.14 1359.61,848.05 1126.43,632.56 2512.32,1326.13 2945.34,1527.31 2483.15,1154.05 5267.43,2019.31 8144.34,2603.45 3051.56,619.57 6208.18,923.77 9221.41,922.2 3805.28,-2.11 7544.08,-428.56 11122.69,-1347.17 3380.95,-867.92 6619.92,-2175.82 9638.17,-3981.04l28.94 -17.29c251.24,-150.1 669.48,-399.93 897.33,-573.03 -108.57,-131.8 -324.37,-357.31 -531.97,-574.29 -184.21,-192.5 -362.55,-378.97 -465.17,-500.92l-971.48 -1240.63c-244.04,60.31 -987.44,322.42 -1511.27,507.09 -223,78.61 -406.82,143.53 -503.5,175.05 -363.64,118.74 -737.76,230.98 -1114.39,337.83 -368.88,104.58 -750.12,206.66 -1130.42,306.15 -2388.74,624.97 -4881.66,1077.94 -7396.4,1379.32 -2691.29,322.5 -5412.77,471.97 -8062.52,473.7 -2654.37,1.72 -5364.04,-148.15 -8030.37,-467.2 -2526.09,-302.24 -5017.68,-756.69 -7391.79,-1378.3 -1243.53,-325.55 -2133.11,-612.53 -3308.83,-991.66l-20.88 -6.73c-94.33,-30.35 -206.11,-73.37 -327.5,-119.91 -215.81,-83.46 -464,-178.73 -623.25,-212.76 -278.62,435.92 -633.81,852.12 -933.94,1203.64zm1049 -1808.27c35.75,-137.35 284.17,-546.91 481.83,-872.85 87.84,-144.94 165.2,-272.36 209.63,-353.47 333.29,-607.14 688.09,-1320.1 986.81,-2042.77 244.43,-591.26 451.87,-1190.1 579.76,-1743.66l29.96 -129.92 132.58 8.92c553.01,37.31 1145.28,107.94 1719.18,176.38l384.76 45.52c1927.4,224.8 4433.07,397.82 6966.36,516.01 2949.41,137.59 5936.37,201.41 8096.07,187.1 2610.72,-17.29 5104.9,-61.95 7592.42,-167.94 2483.61,-105.75 4958.31,-272.83 7532.19,-535.02 176.78,-17.99 395.79,-46.93 627.32,-77.36 499.82,-65.86 1058.77,-139.46 1427.03,-134.54l88.78 1.25 44.51 76.34c83.3,143.06 210.57,549.02 322.26,905.54 63.36,202.04 121.63,388.12 160.04,489.96 171.69,456.02 336.81,852.67 517.65,1242.43 180.22,388.51 376.63,770.3 611.2,1198 41.38,75.48 119.83,205.25 207.59,350.66 192.11,317.96 428.95,710.15 471.27,862.05l44.43 159.49 -162.38 34.81c-195.94,42 -484.41,149.01 -752.08,248.35l-0.55 0.63c-101.14,37.47 -199.07,73.84 -308.26,112.09 -2600,911.33 -5521.73,1568.45 -8492.49,2010.08 -3376.1,501.93 -6820.55,726.03 -9930.31,729.63 -1806.16,2.11 -3588.62,-65.39 -5338.77,-201.96 -1751.87,-136.73 -3477.15,-342.83 -5167.78,-617.77 -1385.34,-225.27 -2464.84,-434.51 -3518.69,-681.21 -1050.87,-246 -2082.35,-531.11 -3372.18,-908.2 -363.8,-106.3 -711.33,-230.98 -1058.23,-355.27 -335.79,-120.38 -671.28,-240.68 -1024.98,-344.48l-145.02 -42.55 38.09 -146.27zm748.24 -711.56c-135.32,223.08 -295.75,487.62 -383.35,652.43 294.65,92.06 583.28,195.55 872.14,299.11 341.27,122.26 683.09,244.98 1039.92,349.17 1277.79,373.57 2302.93,656.81 3356.23,903.35 1050.25,245.84 2123.42,453.98 3497.88,677.46 1678.82,272.98 3395.1,478 5140.88,614.18 1749.92,136.49 3524.71,204 5315.62,201.96 3091.53,-3.52 6519.8,-226.99 9885.1,-727.28 2954.1,-439.2 5856.58,-1091.55 8435.08,-1995.37 79,-27.61 189.76,-68.75 303.26,-110.84 206.73,-76.34 425.12,-157.3 611.44,-212.91 -86.98,-165.82 -240.6,-420.12 -372.17,-637.8 -88.23,-146.27 -167.08,-276.58 -213.69,-361.61 -237.94,-433.73 -437.4,-821.69 -621.06,-1217.56 -183.11,-394.62 -350.89,-797.84 -526.1,-1263.24 -42.86,-113.73 -101.92,-302.16 -166.14,-507.02 -88.94,-284.01 -188.27,-600.72 -256.95,-763.89 -345.02,7.67 -840.15,72.82 -1287.1,131.64 -233.09,30.66 -453.59,59.76 -637.17,78.45 -2579.59,262.74 -5060.31,430.28 -7550.5,536.27 -2486.04,105.91 -4984.91,150.57 -7603.37,167.94 -2167.45,14.39 -5160.2,-49.43 -8110.78,-187.1 -2544.86,-118.74 -5059.14,-292.23 -6988.96,-517.26l-385.31 -45.52c-526.26,-62.73 -1067.85,-127.34 -1572.21,-165.75 -132.97,533.77 -332.59,1101.87 -564.19,1662.24 -304.74,737.29 -664.55,1460.59 -1001.52,2074.53 -37.7,68.75 -121.63,207.05 -216.98,364.42zm39031.13 804.72c334.15,-157.85 674.41,-302.47 1018.1,-448.51 539.48,-229.18 1087.95,-462.35 1636.74,-758.26 464.78,-250.54 877.78,-475.65 1266.84,-700.14 393.36,-226.99 777.5,-462.04 1190.18,-735.65 394.69,-261.72 786.02,-546.67 1155.92,-843.91 354.65,-284.95 689.74,-581.4 989.24,-879.65l167.39 -166.14c298.41,-295.43 490.51,-485.74 760.21,-815.43l431.46 -554.65 119.52 -175.99c89.4,-133.05 181.31,-269.93 263.05,-377.25l319.45 -419.33 -39.58 525.63c-46.7,619.34 -856.03,2177 -1176.1,2792.89l-36.22 69.69c-417.46,804.33 -998.78,1597.63 -1635.64,2342.51 -633.97,741.52 -1324.02,1436.1 -1961.74,2046.06 -171.14,163.56 -348.54,320.23 -529.15,472.52 -182.41,153.86 -365.44,301.3 -548.16,447.1l-143.77 115.22c-308.26,248.19 -699.91,563.49 -1014.35,743.79l-72.74 41.77 -75.09 -38.09c-160.51,-81.19 -607.68,-550.98 -1053.46,-1063.86 -492.86,-567.01 -995.03,-1196.6 -1104.14,-1407.63l-74.31 -143.53 146.35 -69.15zm1140.28 -161.29c-285.19,121.16 -568.03,241.46 -847.74,369.59 183.74,265.4 581.09,754.11 975.47,1207.86 365.91,421.05 723.14,806.6 892.48,943.79 281.04,-174.9 619.89,-447.57 891.7,-666.51l145.02 -116.47c183.35,-146.27 365.67,-293.17 540.81,-440.84 177.09,-149.32 350.11,-302.08 515.7,-460.32 630.99,-603.46 1313.38,-1290.38 1939.68,-2022.9 623.25,-728.85 1190.81,-1502.75 1595.44,-2283.22l36.22 -70.32c199.38,-383.66 593.76,-1142.63 862.99,-1784.96l-260.39 334.7c-275.88,337.36 -474.56,534.16 -783.29,839.84l-167.39 166.14c-308.11,306.85 -651.49,610.66 -1013.64,901.71 -378.03,303.8 -777.26,594.47 -1179.08,860.96 -412.14,273.22 -802.61,511.94 -1207.39,745.51 -409.16,236.14 -818.49,459.3 -1274.19,704.99 -560.05,302 -1115.87,538.3 -1662.39,770.46zm-43677.03 2853.36c-155.58,-44.12 -498.57,-285.89 -877.31,-582.65 -567.01,-444.36 -1230.54,-1019.82 -1434.15,-1214.67 -347.53,-333.06 -684.89,-656.02 -1001.6,-979.3 -325.78,-332.74 -641.94,-677.07 -948.8,-1053.92 -596.34,-732.6 -1274.66,-1695.17 -1833.77,-2702.55 -453.75,-817.62 -829.91,-1666.46 -1021.86,-2449.04l-93.39 -380.61 329.3 212.52c122.65,79.16 250.14,281.67 356.29,450.31 39.19,62.34 75.33,119.6 105.05,160.43 727.83,1001.05 1208.88,1409.27 1913.4,2007.1 144.94,122.88 299.97,254.53 475.65,407.13 525.71,456.72 1240.16,934.09 2003.19,1383.31 968.2,570.06 2015.79,1095.15 2858.36,1476.78 77.05,34.96 208.45,88.7 363.09,151.9 386.87,158.16 908.75,371.62 1008.79,459.62l96.13 84.71 -64.3 110.84c-159.8,275.33 -572.64,797.37 -997.29,1289.99 -437.87,507.88 -893.26,989.79 -1102.34,1143.64l-61.48 45.29 -72.98 -20.81zm-685.36 -828.26c294.96,231.14 558.72,424.1 701.86,498.57 213.85,-182.8 603.3,-600.57 984.39,-1042.58 351.6,-407.99 693.1,-833.43 879.73,-1110.71 -180.92,-86.82 -529,-229.18 -804.48,-341.82 -169.19,-69.15 -313.42,-128.12 -374.04,-155.66 -848.83,-384.45 -1906.44,-914.77 -2887.77,-1492.58 -778.83,-458.52 -1509.4,-946.92 -2049.65,-1416.31 -165.36,-143.53 -323.98,-278.3 -473.15,-404.78 -672.37,-570.45 -1145.52,-972.19 -1817.11,-1863.49 189.29,486.29 431.54,984.7 702.49,1472.95 549.41,990.02 1216.54,1936.63 1803.26,2657.34 299.89,368.33 609.72,705.69 929.24,1032.02 328.68,335.56 656.88,649.77 994.87,973.05 200.79,191.56 853.14,757.32 1410.37,1194.02zm40723.56 -7162.29c1579.95,-185.46 3993.48,-548.39 6252.92,-1035.07 1641.27,-353.63 3199.4,-772.02 4291.89,-1233.59l1551.09 -692.16 -108.65 333.68c-286.91,880.83 -801.51,1708.38 -1418.43,2451.86 -769.13,926.98 -1699.86,1725.67 -2545.25,2334.14 -724.31,521.17 -1370.09,924.24 -2031.51,1290.77 -666.19,369.12 -1339.5,697.64 -2120.68,1070.51 -175.99,84.01 -614.02,285.19 -991.27,438.97 -242.95,99.1 -464.23,179.36 -583.98,199.07l-79.71 13.14 -56.55 -57.8c-321.01,-327.66 -888.26,-1368.76 -1376.81,-2420.02 -493.09,-1061.2 -911.18,-2146.41 -921.11,-2534.61l-3.68 -142.2 141.73 -16.66zm6317.68 -729.55c-2197.18,473.23 -4539.37,830.06 -6126.75,1021.39 82.99,435.29 450.46,1355.62 875.74,2270.86 446.87,961.63 953.57,1906.59 1258.23,2268.36 105.36,-30.58 263.6,-90.58 437.87,-161.68 368.57,-150.26 800.26,-348.62 974.22,-431.61 783.6,-374.04 1456.05,-701.94 2103.47,-1060.65 652.11,-361.37 1288.35,-758.33 2001,-1271.22 825.99,-594.47 1735.21,-1374.78 2486.59,-2280.32 513.35,-618.64 952.24,-1295 1238.44,-2008.75l-897.64 400.4c-1114.54,471.43 -2692.93,896 -4351.18,1253.23zm-43933.67 5880.91c-152.21,-3.05 -596.66,-176.38 -1106.41,-400.4 -786.57,-345.65 -1749.37,-815.67 -1988.72,-947.16 -333.76,-183.27 -630.52,-353.55 -931.98,-526.34l-449.21 -257.11c-1037.03,-588.83 -2321.94,-1549.29 -3383.53,-2682.45 -848.68,-905.78 -1557.27,-1924.35 -1889.15,-2957l-80.64 -250.77 258.44 49.75c132.03,25.42 365.83,145.02 544.25,236.14l119.75 60.54c811.91,398.45 1984.11,772.1 3227.17,1095.38 1697.12,441.31 3528.23,788.37 4757.52,978.13 118.81,18.3 336.66,49.12 615.98,88.47 932.37,131.56 2515.29,355.04 2627.15,419.1l89.95 51.62 -12.36 102.31c-38.17,315.07 -302,991.12 -432.4,1325.35l-23.07 59.13c-245.14,629.66 -504.36,1220.45 -799.17,1794.66 -295.59,575.61 -625.91,1132.61 -1012.16,1693.44l-47.48 68.91 -83.93 -1.72zm-981.73 -686.37c399,175.37 746.45,317.49 911.8,360.98 355.9,-523.76 661.97,-1043.05 936.13,-1576.98 288.86,-562.55 543.86,-1144.11 785.71,-1766.03l23.07 -59.76c108.57,-278.3 313.35,-803 388.12,-1117.99 -367.63,-68.75 -1626.65,-246.55 -2412.36,-357.38l-620.98 -88.47c-1232.11,-190.15 -3072.53,-539.4 -4788.03,-985.48 -1260.11,-327.74 -2452.41,-708.35 -3285.83,-1117.44l-290.82 -147.05c350.81,874.02 972.26,1735.45 1702.36,2514.67 1039.61,1109.7 2296.36,2049.42 3310.16,2625.04l450.46 257.11c304.82,174.74 605.03,346.98 927.13,523.83 236.38,129.84 1186.74,593.84 1963.07,934.95zm3405.82 -4641.37c-295.36,36.61 -1263.79,-96.13 -2402.03,-286.2 -1906.98,-318.59 -4310.81,-799.24 -4773.95,-906.72 -937.77,-217.68 -1789.42,-438.5 -2606.97,-719.93 -822.47,-283.08 -1613.11,-627.94 -2425.65,-1092.49 -28.86,-16.5 -54.75,-29.41 -75.48,-39.74 -167.08,-83.23 -171.3,-85.96 -206.5,-370.76 -37.39,-303.18 -37.31,-660.72 -37.23,-982.35l-1.64 -374.36c-7.43,-950.99 -7.43,-964.6 701.55,-1321.2l38.01 -19.16c449.45,-226.13 893.89,-449.68 1403.8,-633.65 520.08,-187.65 1046.57,-360.82 1582.45,-518.98 538.7,-158.94 1089.91,-304.04 1656.92,-434.98 859.39,-198.36 1743.27,-377.64 2635.59,-540.18 897.41,-163.56 1790.83,-308.65 2667.98,-438.34 133.13,-19.63 215.88,-32.77 307.32,-47.17 500.99,-78.84 1190.03,-187.33 1539.2,-172l126.17 5.55 21.12 124.6c82.83,489.34 160.43,877.93 228.09,1216.93 186.16,932.84 297.7,1491.72 299.34,3109.45 0.78,836.32 -57.88,1542.72 -155.58,2226.82 -96.91,679.02 -233.56,1341.85 -388.67,2090.8l-22.92 110.29 -110.91 13.77zm-2350.72 -594.23c991.12,165.59 1843.7,287.38 2203.67,288.86 142.98,-691.14 268.68,-1311.58 360.28,-1953.45 96.21,-673.78 153.94,-1366.8 153.23,-2182.86 -1.56,-1580.57 -111.38,-2130.46 -294.5,-3048.28 -60.62,-303.88 -129.45,-648.36 -207.12,-1096.87 -348,10.48 -921.89,100.82 -1352.96,168.64l-309.83 48.42c-890.13,131.64 -1782.15,276.19 -2658.12,435.84 -881.06,160.51 -1759.46,338.77 -2621.05,537.68 -560.75,129.45 -1105.86,272.98 -1638.46,430.13 -535.33,158 -1056.12,329.07 -1565.4,512.88 -488.24,176.15 -925.88,396.34 -1368.44,618.95l-38.01 19.16c-536.35,269.78 -536.35,280.65 -530.4,1040.08l2.27 376.86c-0.63,308.57 -0.7,651.57 35.36,944.5 14.63,118.58 15.25,119.05 34.89,128.75 23.94,11.58 53.03,26.13 91.91,48.34 793.46,453.67 1566.73,790.87 2371.84,1067.93 809.88,278.77 1650.58,496.85 2575.21,711.48 460.16,106.77 2853.44,585.24 4755.65,902.96zm37244.68 485.98c-167.47,-691.46 -307.64,-1388.55 -404.86,-2105.27 -97.23,-716.96 -151.75,-1455.19 -148.3,-2228.78 3.68,-828.34 57.88,-1543.5 150.96,-2236.91 93.16,-694.27 224.88,-1365 383.74,-2105.03l27.69 -128.91 131.17 5.48c747.62,31.6 2740.56,365.6 3735.36,532.28l214.71 35.9c1315.33,219.4 3064.31,567.71 4686.74,1034.14 1204.81,346.28 2342.74,758.57 3188.45,1232.89 54.83,30.74 109.82,56.24 161.84,80.33 248.66,115.37 446.16,206.97 474.87,591.02 26.36,352.38 45.13,804.41 36.06,1242.82 -7.12,343.93 -31.6,677.69 -83.07,945.75l-12.83 66.64 -56.87 36.06c-1629.15,1033.43 -3587.83,1514.95 -5681.45,2029.63l-33.24 7.98c-497.08,122.26 -2319.75,464.54 -3949.44,731.58 -1171.49,191.95 -2247.16,345.57 -2668.13,351.52l-124.13 1.8 -29.25 -120.93zm-95.58 -2146.88c89.95,662.99 217.21,1308.92 369.04,1949.38 468.77,-28.32 1441.66,-169.81 2498.01,-342.91 1621.64,-265.71 3432.73,-605.65 3924.88,-726.58l33.24 -7.98c2042.38,-502.17 3954.6,-972.42 5530.96,-1954.46 40.28,-240.13 60.07,-529.15 66.25,-826.7 8.68,-421.6 -9.93,-864.63 -36.06,-1213.57 -15.02,-201.02 -138.6,-258.44 -294.03,-330.55 -58.27,-26.99 -119.99,-55.61 -183.89,-91.44 -822.16,-461.1 -1937.18,-864.4 -3121.18,-1204.73 -1611.94,-463.37 -3347.62,-809.18 -4652.48,-1026.78l-214.71 -35.9c-935.19,-156.67 -2756.76,-461.96 -3565.39,-520.94 -145.33,683.71 -265.95,1309.7 -351.99,1950.71 -91.59,682.78 -145.02,1385.26 -148.62,2196.55 -3.36,756.14 50.22,1480.38 145.96,2185.91zm-34340.64 -6712.69c428.8,-85.88 931.43,-130.08 1411.15,-172 221.13,-19.32 437.17,-38.41 617.46,-58.12 3244.77,-356.37 7413.38,-573.74 11590.91,-655.48 4409.53,-86.2 8827.03,-21.35 12177.08,190.46 427.55,26.99 837.34,49.83 1244.23,72.27 999.48,55.3 1984.97,109.98 2992.9,213.15 603.15,61.71 1295.07,119.6 1934.99,173.02l234.89 19.55c505.61,41.53 1548.58,127.34 1875.46,222.85l66.25 19.4 30.27 61.87 6.41 10.17c15.25,23.31 24.01,36.84 30.66,74.23 3.99,24.56 3.29,44.27 1.88,89.48l-1.41 42.47c-8.84,37.47 -88.07,373.89 -89.56,375.61 -125.15,515.7 -223.79,1157.64 -292.77,1806.63 -77.52,729.86 -117.33,1465.75 -115.61,2040.58 1.88,615.74 26.36,1159.36 78.69,1696.65 52.09,534 132.58,1064.64 246.7,1657.62 17.05,88.47 34.42,172.24 53.19,258.51 18.77,86.43 37.78,168.56 58.43,256.56 10.01,42.55 21.59,79.94 32.3,114.36 30.19,98.17 55.14,178.5 45.45,301.69l-3.36 46.78c-1.49,24.09 -2.35,35.43 -8.68,56.16 -11.65,38.8 -23.54,53.03 -41.14,69.07l-33.16 58.51 -65.16 16.11c-335.87,83.38 -915.09,130.78 -1421.32,172.08 -228.17,18.62 -441.55,36.14 -601.51,53.97 -1626.33,182.17 -3494.75,297 -5214.17,402.52l-1080.99 67.19c-2815.58,179.28 -5778.52,243.11 -8744.98,229.81 -2965.29,-13.38 -5929.09,-103.95 -8749.99,-233.17 -1145.36,-52.49 -2978.74,-171.3 -4707.54,-315.77 -1375.41,-114.98 -2691.76,-246.78 -3556.86,-375.06l-120.77 -17.91 -11.81 -122.02c-10.01,-103.95 32.54,-310.06 97.3,-623.41 210.41,-1017.87 667.68,-3229.43 282.14,-6085.69 -22.61,-167.39 -94.96,-526.02 -169.42,-895.92 -103.17,-512.26 -210.72,-1046.26 -203.76,-1169.92l6.81 -121.08 118.42 -23.78zm1438.06 139.62c-419.72,36.76 -857.36,75.17 -1239.62,141.58 29.72,198.6 108.88,591.73 185.61,972.42 76.19,378.42 150.18,745.27 173.18,915.48 392.5,2908.11 -72.12,5155.27 -285.89,6189.56 -36.76,178.11 -65.7,318.27 -81.04,412.61 856.03,120.54 2097.45,243.57 3393.3,351.91 1738.5,145.33 3564.99,263.99 4695.34,315.77 2821.68,129.3 5782.35,219.87 8737.78,233.17 2954.42,13.22 5909.61,-50.61 8724.17,-229.81l1082.24 -67.19c1714.33,-105.2 3577.28,-219.64 5198.21,-401.26 174.74,-19.48 385.78,-36.84 611.36,-55.22 452.65,-37 965.07,-78.92 1286.31,-144.63 2.03,-59.21 -13.69,-110.37 -32.54,-171.3 -12.67,-40.13 -26.28,-84.01 -38.56,-136.34 -22.29,-94.72 -41.93,-179.9 -59.68,-261.41 -17.76,-81.74 -35.43,-167.39 -54.44,-265.87 -115.14,-598.14 -196.72,-1137.85 -250.3,-1686.87 -53.19,-545.74 -77.98,-1098.82 -79.94,-1726.06 -1.8,-587.66 38.48,-1335.67 116.86,-2073.59 70.16,-660.25 171.07,-1315.8 299.81,-1846.29l76.58 -324.06c-377.02,-77.44 -1266.6,-150.65 -1718.24,-187.73l-235.52 -19.55c-623.88,-52.09 -1298.44,-108.57 -1941.09,-174.27 -998.62,-102.15 -1981.45,-156.75 -2978.19,-211.9 -416.83,-23 -836.01,-46.31 -1246.74,-72.27 -3346.14,-211.58 -7754.18,-276.43 -12151.43,-190.46 -4165.95,81.5 -8324.71,298.41 -11564,654.23 -211.9,23.23 -415.89,41.22 -623.56,59.37zm33147.25 -403.45c-6.49,-159.41 102.94,-516.72 251.94,-921.58 242.32,-658.21 595.48,-1469.97 702.25,-1703.38 122.41,-267.27 295.59,-611.75 475.18,-944.11 163.95,-303.57 335.33,-600.96 481.13,-825.92 33.63,-51.7 65.78,-98.95 98.09,-146.43 84.87,-124.13 173.88,-254.99 219.56,-355.51l45.05 -99.1 108.33 8.06c181.23,13.53 620.51,184.13 1117.13,402.75 769.75,338.77 1696.81,798.46 1977.38,950.36 1270.12,687.55 2692.77,1556.33 3917.45,2619.33 1233.44,1070.59 2266.09,2338.44 2743.15,3817.64l94.02 291.6 -290.74 -95.51c-147.13,-48.26 -297.7,-122.8 -452.26,-199.22 -65.39,-32.38 -131.88,-65.31 -202.82,-98.17 -930.42,-431.38 -2103.31,-809.1 -3325.88,-1129.09 -1609.05,-421.21 -3303.9,-743.24 -4649.35,-957.72l-3304.37 -484.18 -5.24 -129.84zm545.27 -813.95c-101.45,275.57 -183.19,520.78 -216.98,675.19l3028.33 444.44c1353.9,215.81 3060.09,539.87 4680.56,964.13 1240.56,324.69 2431.68,708.51 3378.44,1147.4 67.5,31.29 139.31,66.8 210.17,101.92l96.13 47.32c-497.71,-1277.63 -1431.8,-2390.61 -2532.58,-3346.06 -1203.48,-1044.54 -2606.89,-1901.27 -3861.13,-2580.22 -275.96,-149.4 -1191.59,-603.23 -1955.48,-939.41 -387.26,-170.44 -730.57,-309.51 -917.9,-358.63 -54.05,94.25 -122.49,194.92 -188.43,291.84l-94.33 140.95c-139.39,215.1 -306.31,505.06 -467.67,803.86 -178.73,330.71 -348.62,668.38 -466.58,925.8 -104.5,228.32 -451.25,1026 -692.55,1681.48zm-47762.81 3609.81c282.14,-873.86 812.38,-1712.77 1438.69,-2462.57 799.56,-957.09 1758.84,-1772.45 2556.59,-2329.52 441.31,-308.11 854.31,-583.98 1286.94,-850.95 433.1,-267.2 886.07,-525.79 1406.85,-798.62 283.78,-148.69 1209.89,-610.66 1970.26,-947.7 472.91,-209.55 890.92,-374.28 1076.37,-395.63l83.38 -9.54 54.13 64.53c185.14,221.28 395.55,550.43 599.94,906.56 272.98,475.73 538.46,1004.57 717.82,1385.5 107.79,228.87 464.31,1046.1 706.87,1715.97 150.73,416.28 258.44,784.62 241.78,947.47l-13.38 130.23 -130.78 9.7c-618.79,45.91 -1669.82,198.75 -2766.22,381.79 -1347.48,225.04 -2759.73,495.05 -3527.29,669.32l-197.74 44.82c-913.37,206.97 -1874.99,424.81 -2712.09,715.24 -217.92,75.64 -370.21,126.09 -517.42,174.82 -504.36,167 -948.64,314.21 -1458.16,566.54l-105.67 53.66c-166.29,84.63 -362,184.36 -522.66,226.99l-276.04 73.29 87.84 -271.89zm1678.19 -2262.18c-524.54,627.94 -978.05,1317.68 -1263.94,2032.92l264.15 -132.66c532.05,-263.52 984.62,-413.47 1498.52,-583.59 180.92,-59.92 369.59,-122.41 513.82,-172.47 855.87,-296.92 1824.7,-516.48 2744.95,-724.94l197.74 -44.82c775.93,-176.23 2195.46,-447.8 3544.5,-673.08 1018.1,-169.97 1998.97,-314.21 2638.8,-372.4 -30.66,-155.03 -111.15,-403.3 -212.21,-682.38 -238.41,-658.61 -589.62,-1463.48 -695.92,-1689.06 -175.99,-373.73 -437.01,-893.65 -706.71,-1363.59 -175.05,-304.98 -352.85,-587.27 -510.93,-790.25 -183.89,47.4 -522.5,185.38 -905.7,355.11 -761.31,337.44 -1674.2,792.44 -1951.96,938 -513.59,269.07 -960.22,523.99 -1387.3,787.51 -427.47,263.76 -835.77,536.51 -1272.23,841.25 -778.12,543.39 -1714.41,1339.35 -2495.58,2274.46zm8509.78 -5755.29c285.19,-91.52 576.4,-193.67 869.41,-296.53 413.15,-144.94 830.61,-291.44 1252.76,-415.66l431.93 -128.28c581.32,-173.1 1186.9,-353.63 1783.79,-497.63 4280.7,-1032.96 8508.13,-1594.89 12758.33,-1736.31 4250.27,-141.5 8521.66,137.04 12890.44,784.62 1268.4,188.04 2646.47,462.9 4013.11,794.86 1367.82,332.2 2721.64,721.1 3940.37,1137.07 103.48,35.28 219.4,77.36 335.09,119.28 236.3,85.73 472.05,171.3 699.59,229.18l155.89 39.74 -44.04 154.64c-62.97,221.28 -275.41,555.59 -464.62,853.29 -92.85,146.04 -179.9,283.15 -235.36,383.98 -115.92,210.88 -214.87,397.43 -311.7,587.19 -91.67,178.18 -185.14,368.73 -293.95,594.7 -314.83,653.29 -523.36,1295.54 -688.88,1805.3 -107.79,331.96 -198.05,609.56 -288.63,804.25l-37.62 80.72 -90.11 8.45c-293.79,27.53 -1006.99,-63.44 -1565.09,-134.54 -216.43,-27.53 -409.16,-52.17 -543.31,-65.39 -4044.71,-400.17 -7978.59,-618.79 -11918.96,-687.7 -3940.52,-68.99 -7890.75,11.5 -11967.61,209.08 -699.59,33.87 -1410.92,78.84 -2122.56,129.14 -697.48,49.28 -1403.49,104.74 -2100.03,160.19 -524.22,41.77 -1190.26,115.84 -1851.76,189.37 -864.24,95.97 -1721.45,191.4 -2247.08,213.38l-89.8 3.83 -48.34 -76.5c-79.94,-126.4 -207.28,-531.89 -320.7,-892.95 -67.03,-213.62 -129.3,-411.67 -166.61,-508.82 -148.62,-386.56 -300.75,-730.18 -467.99,-1107.9l-66.02 -149.32c-185.54,-420.43 -721.26,-1357.96 -1039.85,-1915.59 -149.01,-261.56 -252.57,-442.56 -262.82,-479.8l-39.58 -143.69 142.28 -45.68zm972.03 -1.96c-233.48,81.97 -465.87,163.48 -698.89,240.84l158 275.25c321.79,562.63 862.44,1508.77 1054.79,1944.68l66.02 149.32c164.03,370.52 313.27,707.57 472.83,1122.6 46.07,119.99 107.71,315.85 173.96,527.12 88,280.18 184.91,588.68 248.97,741.99 515.86,-28.39 1317.21,-117.49 2124.51,-207.2 668.93,-74.39 1342.32,-149.24 1861.62,-190.62 686.69,-54.6 1386.28,-109.59 2102.37,-160.19 701.94,-49.59 1412.95,-94.41 2129.91,-129.14 4080.15,-197.82 8036.55,-278.3 11987.16,-209.08 3950.69,69.15 7893.1,288.08 11944.61,688.95 134.15,13.22 330.95,38.41 551.91,66.49 489.1,62.34 1100.54,140.25 1407.4,137.43 73.21,-176.15 149.48,-410.73 238.02,-683.56 168.25,-518.28 380.38,-1171.41 704.68,-1844.41 102.08,-211.97 195.24,-401.42 296.92,-600.57 95.35,-187.96 195.7,-377.09 316.08,-596.03 62.73,-114.12 151.04,-253.04 245.06,-401.03 135.79,-213.54 284.17,-447.18 369.35,-624.74 -182.56,-55.07 -370.37,-123.12 -558.48,-191.4 -105.75,-38.33 -212.21,-76.97 -328.99,-116.78 -1213.18,-414.01 -2557.69,-800.42 -3913.46,-1129.72 -1353.5,-328.76 -2721.71,-601.43 -3984.95,-788.76 -4353.68,-645.31 -8606.92,-923.06 -12835.37,-782.27 -4228.45,140.72 -8434.76,699.83 -12694.81,1727.86 -580.07,139.93 -1186.19,320.62 -1767.99,493.88l-433.02 128.28c-417.61,122.88 -829.98,267.67 -1238.21,410.81zm38634.17 -138.68c137.2,-228.32 684.1,-916.18 1196.83,-1501.57 397.35,-453.67 781.41,-852.28 956.39,-945.59l72.43 -38.64 72.43 37.47c145.25,75.25 365.44,229.18 595.56,403.3 319.45,241.54 661.42,523.36 847.74,685.43 56.08,48.89 95.11,78.22 131.88,105.91 45.91,34.96 89.48,67.89 143.53,116.62 401.58,362.23 842.42,762.4 1275.44,1187.68 430.91,423.17 849.54,867.61 1203.87,1316.35 600.8,760.68 1323.62,1763.45 1903.85,2810.81 438.5,791.42 796.74,1609.59 962.64,2371.29l95.11 436.78 -346.28 -282.76c-120.14,-98.09 -273.3,-331.02 -385.78,-502.09 -25.19,-38.33 -47.95,-72.9 -81.97,-121.79 -377.33,-541.51 -757.63,-927.21 -1221,-1397.31l-132.43 -134.46c-207.28,-210.88 -471.74,-425.43 -742.77,-645.39 -88.07,-71.41 -177.17,-143.77 -287.77,-235.6 -164.96,-136.96 -348.94,-276.43 -537.6,-412.37 -188.04,-135.63 -382.02,-268.45 -566.85,-392.58 -399.93,-268.53 -791.97,-509.36 -1194.17,-741.13 -398.06,-229.5 -815.36,-454.84 -1264.57,-691.93l-2786.17 -1279.43 89.64 -149.01zm1431.49 -1296.17c-417.85,477.06 -855.64,1018.26 -1065.89,1311.03l2476.26 1137.23c443.11,233.88 860.33,459.46 1274.42,698.11 409.95,236.22 808.32,480.89 1212.48,752.23 186.08,124.92 382.26,259.37 575.46,398.68 192.65,138.84 382.02,282.45 554.65,425.83 79.39,65.94 182.95,149.95 285.42,233.09 277.91,225.51 549.02,445.54 768.43,668.7l132.43 134.46c434.51,440.84 797.76,809.26 1155.22,1297.5 -177.01,-473.07 -409.95,-956.7 -672.92,-1431.33 -571.55,-1031.63 -1283.81,-2019.7 -1875.85,-2769.35 -343.62,-435.21 -753.95,-870.42 -1178.06,-1286.94 -421.91,-414.48 -863.07,-814.81 -1265.74,-1177.98 -50.14,-45.13 -85.1,-71.65 -122.1,-99.42 -43.72,-32.46 -89.4,-66.88 -149.71,-119.36 -184.44,-160.43 -520.39,-437.4 -830.53,-671.98 -178.42,-135.01 -347.61,-255.7 -472.37,-331.18 -166.76,129.45 -475.57,458.36 -801.59,830.69zm-51026.19 7839.44c160.9,-737.61 540.73,-1595.67 1003.86,-2431.99 582.19,-1051.42 1298.44,-2072.18 1874.68,-2773.81 165.2,-201.1 323.36,-384.06 476.82,-554.73 154.09,-171.3 308.65,-336.19 463.68,-497.71 160.51,-167.23 328.83,-331.1 501.07,-492.78 162.07,-152.21 341.5,-314.99 522.27,-478.39 36.45,-33.01 67.11,-64.22 95.97,-93.63 46.62,-47.32 89.4,-90.97 167,-152.37 102.78,-81.43 249.05,-204.31 417.46,-345.81 545.66,-458.99 1317.6,-1107.66 1610.22,-1181.81l73.13 -18.54 60.7 47.32c229.89,179.51 680.19,655.87 1110.09,1153.03 423.17,489.34 830.92,1003.32 993.7,1278.49l67.42 114.12 -101.68 85.1c-63.28,52.95 -272.44,142.52 -600.41,282.61 -1437.43,614.33 -5273.69,2254.04 -7616.9,5071.1l-1271.14 1686.64 152.06 -696.85zm1276.38 -2280.4c-282.14,509.44 -532.05,1025.92 -717.19,1514.71l315.61 -417.61c2391.63,-2879.33 6281.94,-4542.11 7739,-5164.81 172.32,-73.6 308.97,-131.96 399.7,-173.02 -188.66,-276.5 -524.38,-693.41 -872.46,-1095.93 -379.52,-438.89 -770.77,-857.59 -999.8,-1056.58 -279.16,134.54 -939.49,689.27 -1418.04,1091.31 -173.41,145.1 -323.75,271.42 -424.81,351.44 -59.37,47.01 -96.84,85.18 -137.59,126.56 -29.65,30.19 -61.17,62.26 -109.43,105.99 -168.72,152.61 -338.61,306.78 -517.42,474.63 -168.48,158.24 -333.21,318.51 -489.96,481.83 -149.4,155.58 -300.83,317.34 -456.49,490.36 -156.28,173.8 -312.33,354.02 -468.22,543.78 -565.92,689.11 -1269.97,1692.58 -1842.92,2727.35zm6192.3 -6991.93c191.79,-188.59 746.45,-523.21 1036.64,-698.34l43.02 -25.97c957.87,-578.82 1918.64,-1098.51 2904.83,-1569.23 984.31,-469.94 1997.09,-892.4 3060.56,-1277.63 428.56,-155.19 857.99,-298.88 1295.31,-438.11 454.06,-144.63 884.11,-275.02 1322.22,-406.27 1819.06,-544.87 3818.35,-959.28 5883.8,-1239.62 2122.48,-288.16 4316.68,-434.74 6458.63,-436.15 2261.47,-1.41 4352.51,150.26 6377.76,436.7 2027.75,286.91 3989.8,708.51 5991.2,1246.66 1359.21,365.28 2630.12,808 3859.8,1319.95 1228.04,511.16 2415.41,1092.02 3609.19,1734.28 197.5,106.3 849.07,481.36 1391.21,818.33 346.67,215.49 652.27,418.08 776.17,531.73l85.57 78.53 -51.39 104.81c-55.77,113.89 -59.21,117.17 -114.12,167.62 -13.3,12.2 -31.84,29.18 -53.35,51.08 -362.47,368.49 -779.3,811.99 -1162.81,1263.55 -299.19,352.3 -578.12,709.76 -793.92,1039.69l-42.47 64.92 -77.91 5.32c-154.4,10.56 -1054.16,-304.59 -1681.71,-524.46 -236.3,-82.76 -431.77,-151.35 -537.83,-184.91 -371.23,-117.72 -739.64,-226.29 -1107.35,-330.01 -364.27,-102.78 -742.77,-205.09 -1126.04,-307.87 -730.57,-196.17 -1525.12,-384.37 -2329.13,-553.01 -810.66,-170.05 -1631.57,-320.86 -2407.9,-441.08 -4695.5,-726.89 -9783.11,-1006.99 -14814.47,-714.38 -4618.76,268.6 -9188.8,1019.9 -13362.41,2351.03l-2216.26 741.05 -68.29 -76.81c-183.5,-206.34 -361.69,-446.01 -536.04,-680.58 -167.31,-225.27 -331.41,-445.93 -493.02,-625.13l-1227.81 -1319.17 108.33 -106.53zm1197.93 -430.67c-231.14,139.46 -636.08,383.82 -862.68,555.51l1016.38 1091.86c168.72,187.1 338.38,415.34 511.48,648.28 147.36,198.21 297.55,400.25 451.72,581.48l2021.73 -675.42c4201.39,-1340.29 8798.4,-2096.51 13441.88,-2366.52 5051.86,-293.79 10161.76,-12.28 14879.24,717.97 786.26,121.71 1612.41,273.45 2423.7,443.58 815.36,171.07 1615.85,360.43 2346.34,556.61 374.2,100.36 747.54,201.34 1129.64,309.12 378.58,106.77 751.84,216.67 1117.2,332.51 86.43,27.38 294.96,100.51 546.28,188.51 528.84,185.22 1259.02,441 1491.8,496.54 213.77,-316.63 479.64,-655.01 763.34,-989.08 388.12,-457.11 810.82,-906.72 1178.61,-1280.6l38.72 -38.33c-141.89,-105.36 -370.37,-253.82 -624.19,-411.59 -537.44,-334.07 -1180.09,-704.13 -1374,-808.47 -1184.47,-637.25 -2362.61,-1213.57 -3581.19,-1720.82 -1217.01,-506.63 -2474.93,-944.81 -3820.69,-1306.49 -1991.54,-535.49 -3941.39,-954.66 -5953.18,-1239.3 -2014.3,-284.95 -4091.49,-435.68 -6335.05,-434.35 -2125.84,1.33 -4305.89,147.21 -6417.02,433.8 -2048.09,277.99 -4031.18,689.11 -5836.24,1229.76 -464.62,139.15 -908.12,273.45 -1317.21,403.77 -425.75,135.55 -849.69,277.52 -1283.11,434.51 -1049.39,380.15 -2052.94,799.01 -3032.56,1266.68 -977.97,466.81 -1929.82,981.65 -2877.92,1554.53l-43.02 25.97zm-9386.53 13536.84c1.17,1718.94 407.05,3322.2 1051.03,4790.38 644.37,1469.11 1527.85,2803.61 2483.77,3984.33l427.55 471.04c129.06,130 234.89,248.66 348.54,376.16 74.39,83.46 152.45,170.91 230.59,255.23 276.04,297.78 665.33,659.94 1078.56,1020.92 516.95,451.56 1073.09,902.65 1493.75,1225.3 118.27,90.73 232.08,175.91 342.91,255.7 111.54,80.25 229.1,161.68 356.44,245.92l145.96 96.68c674.87,447.26 1426.17,945.12 2083.52,1293.51 183.03,96.99 360.9,195.08 540.49,293.87 337.05,185.61 680.66,374.83 1039.45,548.63 840.46,406.97 1812.73,845.39 2790.63,1236.64 815.43,326.17 1635.95,619.89 2388.11,835.3l608.78 176.93c407.44,118.97 813.71,237.55 1272.23,360.67 316.16,84.71 630.68,155.97 945.44,227.07 340.57,76.97 681.76,154.25 1019.59,246.55l114.9 31.44 -1.64 4852.25 -393.6 3.05c-958.18,6.26 -978.44,6.49 -974.06,930.1l0.63 144.08 -143.61 12.36c-579.06,49.83 -1059.95,191.17 -1460.82,400.56 -399,208.45 -721.42,485.74 -984.86,808.71 -343.7,421.29 -527.51,811.99 -625.13,1256.36 -100.28,455.94 -112.87,972.66 -113.5,1633.53 -1.1,1149.82 318.59,2078.44 933.55,2712.41 598.22,616.68 1481.86,960.22 2627.38,963.11l21270.45 2.11c978.37,0 1841.83,-356.68 2459.84,-944.5 616.37,-586.25 989.94,-1403.72 990.25,-2326.94l1.25 -341.35c6.81,-1260.74 11.89,-2196.24 -959.59,-3190.56 -256.95,-263.13 -564.12,-480.81 -931.82,-645.54 -371.7,-166.53 -806.6,-279.87 -1315.8,-332.35l-135.01 -13.84 -4.93 -135.87c-3.13,-85.42 -1.56,-172.4 0,-257.97 4.85,-271.34 9.54,-528.45 -167.86,-624.66 -111.78,-61.25 -373.65,-55.77 -622.94,-50.69 -165.28,3.36 -325.86,6.73 -452.34,-8.6l-137.82 -16.74c3.68,-1609.83 6.81,-3219.81 8.92,-4829.64l115.3 -30.82c353.55,-94.41 706.48,-174.43 1059.87,-254.37 309.04,-70.01 619.1,-140.25 937.3,-222.53 878.4,-227.3 1851.76,-523.68 2805.96,-852.2 933,-321.09 1843.86,-671.98 2625.27,-1017.63 1067.38,-472.13 2253.1,-1062.69 3396.67,-1714.41 1005.19,-572.88 1980.04,-1194.33 2815.73,-1825.64 224.8,-169.89 470.33,-358.01 699.98,-544.41 230.51,-186.94 453.51,-378.66 639.13,-560.28 98.95,-96.13 183.82,-168.64 268.76,-240.99 111.07,-94.8 222.77,-190.07 359.73,-335.72 207.2,-220.27 403.45,-421.68 592.51,-615.58 592.74,-608.15 1116.27,-1145.13 1686.64,-1973.78 53.58,-77.91 109.43,-156.36 165.98,-235.75 109.66,-154.01 222.69,-312.88 324.69,-475.89 657.43,-1050.87 1223.74,-2135.77 1624.46,-3342.85 400.17,-1205.75 636.94,-2538.52 636.94,-4088.59 0,-1650.97 -344.95,-3167.64 -882.7,-4528.03 -671.67,-1699.55 -1643.46,-3155.75 -2619.87,-4326.85 -948.64,-1137.85 -2007.81,-2133.74 -3153.41,-3024.34 -1146.46,-891.31 -2378.1,-1675.85 -3671.45,-2390.85 -4393.02,-2428.63 -9419.62,-3888.9 -14607.19,-4459.27 -5453.75,-599.63 -11084.99,-216.28 -16345.46,1058.38 -2601.65,630.45 -5383.75,1635.64 -7969.2,2970.69 -2311.53,1193.55 -4464.83,2650.3 -6189.4,4337.41l-90.34 88c-107.47,104.19 -200.63,194.61 -285.66,288.47 -64.77,71.88 -131.41,132.35 -198.68,193.28 -60.7,54.99 -122.41,110.84 -187.88,183.35 -402.75,445.07 -736.59,834.91 -1054.47,1242.43 -314.83,403.69 -616.13,828.26 -956.07,1346.54 -190.23,289.88 -369.74,595.48 -538.15,910.24 -182.33,340.72 -354.25,695.92 -514.76,1056.74 -388.05,871.67 -668.38,1699.94 -851.18,2571.92 -183.19,873.24 -269,1791.38 -268.21,2841.7zm765.06 4915.06c-659.7,-1504.08 -1075.44,-3148.63 -1076.69,-4915.06 -0.86,-1073.48 86.98,-2012.11 274.31,-2905.22 187.57,-894.44 474.71,-1743.11 871.99,-2635.59 162.93,-366.22 338.06,-727.91 524.46,-1076.3 175.68,-328.36 359.89,-642.49 551.6,-934.64 340.88,-519.84 647.26,-950.91 972.03,-1367.35 321.79,-412.53 660.17,-807.69 1068.24,-1259.25 70.55,-78.77 141.19,-142.67 210.72,-205.64 58.27,-52.8 116.08,-105.2 176.62,-171.85 97.54,-106.93 191.17,-197.89 299.11,-302.55l89.8 -87.37c1748.35,-1710.11 3927.46,-3185.01 6264.57,-4391.69 2607.67,-1346.54 5414.17,-2360.5 8038.82,-2996.5 5295.28,-1283.11 10963.12,-1669.04 16451.84,-1065.58 5228.17,574.83 10295.05,2047.07 14724.52,4495.88 1308.53,723.37 2554.17,1516.83 3713.06,2417.75 1159.68,901.55 2234.49,1912.93 3200.96,3072.06 995.81,1194.25 1986.61,2678.93 2671.18,4411.17 551.13,1394.33 904.76,2949.41 904.76,4642.85 0,1583.23 -243.11,2948.39 -653.99,4186.37 -410.49,1236.64 -987.05,2342.19 -1655.12,3410.12 -104.11,166.45 -221.67,331.57 -335.64,491.69 -56.08,78.84 -111.62,156.75 -163.48,232.15 -585.63,850.79 -1117.52,1396.37 -1719.65,2014.14 -188.12,192.97 -383.35,393.29 -588.91,611.83 -148.77,158.24 -266.81,258.91 -384.13,359.03 -82.05,69.93 -163.95,139.78 -252.96,226.91 -188.04,184.52 -419.41,383.2 -661.03,579.21 -242.32,196.64 -487.31,384.6 -708.59,551.76 -844.61,638.03 -1831.5,1267.07 -2849.99,1847.54 -1156.08,658.84 -2351.19,1254.32 -3424.67,1729.11 -790.95,349.87 -1710.26,704.13 -2649.83,1027.49 -954.98,328.76 -1936.24,627.24 -2829.11,858.3 -322.81,83.46 -635.37,154.33 -947,224.88 -305.92,69.22 -611.36,138.45 -932.45,221.67l-7.98 4304.32c83.85,2.19 177.01,0.23 271.89,-1.72 289.25,-5.94 593.06,-12.36 777.89,87.76 343.54,185.69 337.28,535.1 330.63,904.06l-1.56 108.33c484.41,61.56 905.7,177.71 1272.86,342.13 405.57,181.7 744.49,421.99 1028.35,712.65 1060.1,1084.98 1054.71,2075.08 1047.51,3409.42l-0.63 340.1c-1.02,1012.63 -410.96,1909.49 -1087.4,2553 -674.8,641.94 -1613.97,1031.32 -2674.94,1031.32l-21270.45 -3.36c-1235.16,-3.13 -2194.36,-380.22 -2851.09,-1057.13 -672.84,-693.57 -1022.64,-1696.81 -1021.46,-2930.01 0.7,-683.48 13.92,-1218.89 119.6,-1699.55 108.18,-492.39 310.69,-923.85 688.64,-1387.14 288.86,-354.1 643.2,-658.61 1082.63,-888.18 403.45,-210.72 877.23,-358.01 1435.95,-421.6 -1.25,-1091.86 71.81,-1092.96 1283.65,-1100.86l84.63 -0.63 1.41 -4304.56c-290.19,-76.19 -590.95,-144.31 -891.31,-212.21 -325.78,-73.6 -651.25,-147.29 -957.64,-229.42 -427.94,-114.9 -852.35,-238.8 -1278.34,-363.17 -162.3,-47.32 -314.05,-91.75 -607.53,-175.68 -759.98,-217.68 -1591.21,-515.31 -2418.61,-846.25 -985.33,-394.15 -1964.24,-835.62 -2810.18,-1245.25 -369.98,-179.2 -715.39,-369.43 -1054.16,-555.98 -181.23,-99.73 -360.9,-198.75 -535.64,-291.37 -671.51,-355.9 -1429.53,-858.22 -2110.43,-1309.47l-145.96 -96.68c-122.88,-81.27 -244.12,-165.51 -366.14,-253.27 -122.73,-88.39 -238.02,-174.43 -350.27,-260.55 -423.17,-324.61 -984.78,-780.24 -1509.71,-1238.76 -421.68,-368.33 -819.19,-738.23 -1101.72,-1042.97 -92.06,-99.34 -165.43,-181.62 -235.44,-260.08 -115.3,-129.3 -222.61,-249.6 -341.27,-368.8 -129.77,-127.73 -323.12,-341.5 -438.34,-483 -973.91,-1202.07 -1874.68,-2562.46 -2532.81,-4062.78z"/>
   <path class="fil0" d="M29637.63 52280.59c-116.86,-715.71 411.04,-1367.19 1039.85,-1460.27 762.87,-112.95 1353.58,392.66 1456.68,1014.11 289.8,1747.96 -2237.22,2033.39 -2496.52,446.16zm-475.18 134.85c182.02,811.76 979.3,1575.65 2067.1,1374.86 2259.91,-417.3 1589.34,-3863.71 -658.61,-3445.48 -825.29,153.62 -1644.25,1019.51 -1408.49,2070.62z"/>
   <path class="fil0" d="M23442.91 50835.57c1658.09,-360.67 2119.82,2101.12 593.06,2465.94 -809.02,193.28 -1442.05,-334 -1584.33,-956.07 -186.32,-814.81 373.34,-1375.48 991.27,-1509.86zm-1498.52 1355.07c190.46,2346.81 3702.43,2041.75 3508.44,-270.95 -76.03,-907.03 -867.61,-1675.3 -1882.74,-1598.72 -935.42,70.48 -1705.57,885.21 -1625.71,1869.67z"/>
  </g>
  <rect class="fil2" transform="matrix(2.64845E-14 -2.0084 1 5.31916E-14 -0.00565316 65949.7)" width="32836.87" height="65949.7"/>
 </g>
</svg>
