<?xml version="1.0" encoding="UTF-8"?>
<!DOCTYPE svg PUBLIC "-//W3C//DTD SVG 1.1//EN" "http://www.w3.org/Graphics/SVG/1.1/DTD/svg11.dtd">
<!-- Creator: CorelDRAW 2020 (64-Bit) -->
<svg xmlns="http://www.w3.org/2000/svg" xml:space="preserve" width="84.314mm" height="84.314mm" version="1.1" style="shape-rendering:geometricPrecision; text-rendering:geometricPrecision; image-rendering:optimizeQuality; fill-rule:evenodd; clip-rule:evenodd"
viewBox="0 0 74287.32 74287.32"
 xmlns:xlink="http://www.w3.org/1999/xlink"
 xmlns:xodm="http://www.corel.com/coreldraw/odm/2003">
 <defs>
  <style type="text/css">
   <![CDATA[
    .str0 {stroke:#093C86;stroke-width:660.81;stroke-miterlimit:22.9256}
    .fil0 {fill:none}
    .fil2 {fill:#093C86}
    .fil1 {fill:#093C86;fill-rule:nonzero}
   ]]>
  </style>
 </defs>
 <g id="Слой_x0020_1">
  <metadata id="CorelCorpID_0Corel-Layer"/>
  <rect class="fil0" transform="matrix(2.64845E-14 -2.0084 1 5.31916E-14 -0.00632769 74287.3)" width="36988.24" height="74287.32"/>
  <g id="_92773319344">
   <g>
    <path class="fil1" d="M22418 12511.33l2242.52 -2321.2 221.06 150.49c482.66,328.82 962.93,664.33 1383.29,958 2639.89,1844.01 2648.17,1849.74 5219.87,694.91 372.96,-167.41 723.98,-286 1053.42,-397.19 827.16,-279.21 1503.39,-507.5 1901.46,-1406.82 113.31,-255.78 339.74,-1168.93 537.37,-2096.44 188.82,-885.57 348.38,-1769.56 355.6,-2093.71l6.96 -311.64 3608.28 0 6.96 311.64c6.87,308.99 150.31,1115.27 321.95,1941.02 196.22,943.81 426.35,1896.7 530.41,2153.97 398.25,984.69 1090.86,1217.39 1942.25,1503.3 329.44,110.58 680.28,228.46 1053.24,395.87l216.57 97.36 1.23 0c1187.25,534.11 1767.45,795.09 2271.42,740.72 485.65,-52.42 1011.83,-405.38 2040.58,-1095.27 329.08,-220.36 658.17,-440.19 987.87,-659.66 404.15,-268.99 797.55,-530.85 1051.92,-701.16l212.69 -142.47 2504.47 2419.62 -150.49 221.06c-332.61,488.38 -668.3,968.04 -961.96,1387.7 -1805.95,2580.68 -1847.45,2640.07 -690.94,5215.55 167.49,372.96 286,724.07 397.19,1053.42 279.21,827.07 507.59,1503.3 1406.82,1901.46 255.87,113.22 1169.1,339.74 2096.7,537.37 885.48,188.82 1769.3,348.38 2093.53,355.52l311.55 6.96 0 3590.93 -291.73 24.32c-359.04,29.96 -1262.59,195.07 -2143.93,378.42 -870.15,181.15 -1710.7,377.63 -1977.76,477.1 -935.53,348.73 -1209.9,1133.95 -1517.84,2015.56 -110.49,316.04 -224.85,643.45 -374.55,976.76 -1151.22,2563.59 -1059.59,2695.4 591.29,5070.08 283.8,408.2 612.88,881.43 1026.81,1499.6l142.38 212.6 -2419.71 2504.56 -220.97 -150.49c-536.67,-365.56 -992.01,-685.04 -1390.25,-964.34 -2509.58,-1760.4 -2633.19,-1847.09 -5212.91,-688.56 -338.69,152.07 -674.91,268.64 -997.38,380.54 -849.01,294.46 -1593.34,552.61 -1956.26,1417.13 -91.98,219.3 -325.56,1195.18 -532,2165.34 -191.19,898.35 -356.57,1777.49 -362.21,2031.15l-6.96 311.64 -3608.28 0 -6.96 -311.64c-6.87,-309.79 -149.7,-1113.33 -320.89,-1936.7 -196.3,-944.43 -426.88,-1898.73 -531.38,-2158.47 -382.3,-950.16 -1139.59,-1215.8 -2017.41,-1523.56 -312.78,-109.69 -639.4,-224.32 -978,-375.52 -2575.92,-1151.04 -2788.26,-1003.11 -5091.4,602.75 -424.86,296.31 -916.06,638.87 -1478.36,1015.36l-212.69 142.38 -2504.56 -2419.62 150.58 -220.97c365.56,-536.75 684.95,-992.1 964.34,-1390.25 1760.31,-2509.58 1847.01,-2633.28 688.56,-5212.99 -152.07,-338.69 -268.73,-674.91 -380.63,-997.47 -294.46,-848.83 -552.7,-1593.26 -1417.13,-1956.08 -237.01,-99.47 -1038.88,-291.55 -1892.21,-473.05 -958.44,-203.88 -1970.89,-391.82 -2324.11,-421.24l-291.73 -24.32 0 -3590.93 311.55 -6.96c308.99,-6.87 1115.36,-150.31 1941.11,-321.95 943.81,-196.22 1896.7,-426.35 2153.97,-530.41 984.61,-398.16 1217.3,-1090.86 1503.21,-1942.25 110.58,-329.44 228.55,-680.28 395.96,-1053.15 95.24,-212.25 177.63,-381.07 258.42,-546.8 453.67,-930.33 861.08,-1765.86 207.41,-2898.05l-2225.96 -3337.88 176.74 -182.91zm2326.75 -1496.07l-1693.08 1752.55 1961.99 2942.54c826.72,1427.44 349.17,2407.02 -182.82,3497.8 -89.87,184.32 -181.41,371.99 -251.02,527.06 -154.81,344.68 -267.67,680.63 -373.58,996.06 -337.19,1004.25 -611.73,1821.28 -1868.24,2329.49 -288.64,116.74 -1286.73,360.19 -2260.67,562.66 -660.9,137.45 -1318.45,257.54 -1746.21,308.64l0 2417.68c490.06,71.63 1321.27,229.61 2111.95,397.81 888.22,188.99 1734.14,393.49 2006.31,507.77 1123.02,471.38 1425.15,1342.5 1769.74,2335.92 106.08,305.82 216.75,624.69 360.71,945.31 1305.85,2908 1209.46,3045.36 -748.12,5836.18 -240.53,343 -510.85,728.21 -808.48,1162.14l1751.67 1692.29c486.88,-328.64 896.15,-614.02 1256.24,-865.13 2572.75,-1793.79 2809.94,-1959.17 5711.95,-662.4 312.61,139.65 627.24,250.05 928.39,355.69 1023.99,359.04 1907.54,668.92 2397.24,1886.13 117.27,291.37 361.07,1290.87 563.63,2265.17 137.1,659.22 256.75,1314.57 307.58,1741.81l2412.48 0c58.68,-428.2 193.66,-1132.8 343.89,-1838.81 213.66,-1003.99 461.24,-2027.98 566.8,-2279.44 471.47,-1123.02 1342.59,-1425.15 2336.09,-1769.74 305.82,-106.08 624.6,-216.66 945.22,-360.63 2907.91,-1305.94 3045.36,-1209.55 5836.18,748.12 342.92,240.53 728.12,510.76 1162.14,808.48l1692.29 -1751.67c-313.49,-463.98 -614.55,-897.03 -879.05,-1277.48 -1844.28,-2652.75 -1946.48,-2799.98 -648.39,-5690.71 138.07,-307.5 248.29,-622.75 354.55,-926.98 359.92,-1030.16 680.46,-1947.54 1895.38,-2400.41 300.36,-111.99 1176.15,-318.42 2069.66,-504.42 724.86,-150.84 1467,-289.96 1929.12,-355.87l0 -2416.89c-458.43,-54.8 -1184.43,-189.34 -1901.19,-342.03 -963.72,-205.38 -1927.45,-447.32 -2220.85,-577.2 -1154.21,-511.03 -1423.12,-1307.26 -1751.85,-2281.29 -106.35,-315.16 -219.83,-651.12 -374.81,-996.24 -1303.03,-2901.75 -1256.95,-2967.74 750.5,-5836.27 229.61,-328.11 487.85,-697.11 806.19,-1162.06l-1752.2 -1692.73c-343.8,229.87 -587.15,391.82 -841.7,561.34l-561.07 373.49c-150.22,99.83 -291.37,194.45 -424.33,283.62 -1115.01,747.86 -1685.33,1130.42 -2326.05,1199.5 -674.82,72.87 -1306.46,-211.19 -2599.18,-792.8l0.26 -0.44 -215.6 -96.92c-344.77,-154.72 -680.72,-267.58 -996.06,-373.49 -1004.34,-337.28 -1821.37,-611.73 -2329.57,-1868.24 -116.74,-288.73 -360.19,-1286.82 -562.66,-2260.85 -137.36,-660.9 -257.54,-1318.27 -308.64,-1746.03l-2407.73 0c-54.8,458.43 -189.26,1184.52 -342.03,1901.28 -205.38,963.72 -447.32,1927.36 -577.2,2220.67 -510.94,1154.21 -1307.26,1423.12 -2281.29,1751.85 -315.16,106.43 -651.03,219.83 -996.24,374.81 -2897.61,1301.18 -2906.77,1294.83 -5840.5,-754.47 -326.09,-227.76 -692.62,-483.8 -1157.74,-802.22zm10605.46 -7868.3l3445.02 0 24.23 2.56c748.39,77.18 1341.97,278.33 1814.14,745.3 458.16,453.23 780.64,1145.31 994.83,2208.43 151.37,750.86 243.71,1283.91 314.9,1695.46 104.14,600.98 162.82,939.23 248.29,1119.59 73.22,154.54 237.36,203.97 612.44,316.75 68.11,20.44 142.56,42.91 243.18,74.19 343.62,106.96 711.12,292.08 1046.99,461.24 282.56,142.38 540.98,272.61 703.19,314.81 219.04,57.09 580.1,-195.07 924.08,-435.43 147.58,-103.09 292.78,-204.5 425.3,-282.83 451.64,-266.79 852.44,-521.42 1205.93,-746.01 2219,-1409.64 2714.43,-1724.27 5372.29,933.59l51.54 51.63c1911.33,1910.88 2719.1,2718.48 981.08,5304.1 -142.29,211.72 -304.06,456.58 -460.54,693.41 -214.01,324.06 -419.66,635.35 -679.58,1013.33 -581.07,844.96 -394.28,1122.32 -98.06,1561.89 276.75,410.76 624.77,927.42 753.32,1875.11 353.14,35.33 681.6,117.54 1025.75,203.62 201.59,50.4 409,102.29 628.47,145.73 118.24,23.35 257.45,47.93 407.15,74.36 1442.33,254.37 3798.42,669.88 3798.42,2864.65 0,451.47 13.39,849.18 26.34,1234.3 55.42,1648.76 103.88,3088.54 -811.12,4103.89 -670.06,743.54 -1784.36,934.47 -2853.99,1117.56 -219.65,37.62 -437.28,74.98 -664.69,120.53 -177.54,35.51 -310.23,65.64 -445.3,96.3 -362.74,82.29 -739.31,167.67 -1116.06,203.44 -103.88,611.2 -368.11,1156.59 -600.98,1637.31 -46.87,96.74 -92.34,190.58 -139.03,291.02l-86.79 184.23c-162.21,346 -244.41,521.42 -237.54,629.53 6.78,105.38 114.36,260.89 332.52,576.14l355.25 514.73c2286.58,3309.33 2655.84,3843.71 -166.17,6665.72 -2827.56,2827.56 -3391.71,2436.45 -6527.04,262.74 -170.31,-117.98 -348.73,-241.77 -536.05,-370.76 -813.68,-560.37 -1134.83,-359.22 -1616.25,-57.36 -428.38,268.46 -954.39,598.16 -1851.24,716.93l-642.39 3429.95c-152.25,666.8 -491.91,1264.08 -919.49,1695.99 -448.38,452.79 -999.06,730.06 -1545.94,730.06 -523.8,0 -987.78,17.36 -1427.97,33.75 -1832.56,68.2 -3288.01,122.47 -4229.18,-1013.68 -567.42,-684.95 -764.51,-1796.96 -936.59,-2768.62 -35.16,-198.42 -69.25,-390.49 -107.05,-579.75 -42.91,-214.37 -79.56,-376.93 -115.95,-538.34 -75.77,-336.66 -150.84,-670.06 -195.78,-991.92 -885.4,-120.88 -1407,-447.76 -1832.38,-714.38 -481.42,-301.86 -802.58,-503.01 -1616.25,57.36l-493.84 341.24c-3250.48,2250.54 -3743.88,2592.05 -6643.95,-307.94 -2737.43,-2737.34 -2417.06,-3195.76 220.18,-6968.46l56.04 -80.27c501.33,-717.2 297.63,-1036.33 -4.14,-1508.94 -277.89,-435.25 -619.49,-970.33 -744.78,-1868.86 -319.22,-32.34 -741.96,-101.59 -1189.28,-185.82 -909.63,-171.46 -1933.88,-406.27 -2372.66,-514.81 -662.84,-163.97 -1216.24,-520.01 -1612.29,-958.79 -436.84,-483.98 -685.92,-1073.77 -685.92,-1627.18 0,-407.94 -12.69,-780.37 -25.11,-1151.48 -56.21,-1663.21 -111.46,-3299.55 848.57,-4189 29.16,-26.96 239.48,-182.21 423.71,-314.19 152.96,-109.52 300.98,-212.6 340.1,-233.05l1.23 0c145.29,-76.21 285.38,-129.96 431.46,-174.28 146.96,-44.67 282.56,-76.21 433.58,-111.19 373.75,-86.79 888.04,-186.08 1344,-274.1 157.1,-30.31 304.68,-58.86 530.85,-104.06 213.93,-42.82 377.1,-79.56 538.69,-115.95 342.12,-77.01 680.9,-153.31 1007.6,-197.98 46.43,-201.06 122.65,-442.83 210.49,-689.18 178.07,-499.31 409.09,-1034.21 526.53,-1261.71l115.07 -219.74c161.85,-308.82 242.91,-463.54 237.19,-551.56 -5.55,-86.08 -106.79,-231.46 -309.44,-522.39l-402.83 -584.68c-2310.81,-3350.48 -2662.97,-3861.24 230.67,-6754.97 2705.97,-2705.97 3219.55,-2354.77 6571.35,-62.12 337.19,230.67 703.01,480.89 1067.08,725.66 218.42,-74.36 529,-221.33 872.36,-383.97 609.35,-288.47 1314.75,-622.39 1913.62,-742.57 60.27,-670.33 274.46,-1989.3 610.06,-3127.74 259.21,-879.41 598.16,-1669.29 1012.1,-2029.39 170.49,-148.29 501.07,-352.43 842.93,-501.25 281.59,-122.47 579.66,-211.46 823.54,-211.46zm3428.28 635.61l-3428.28 0c-151.72,0 -361.51,65.99 -570.32,156.83 -281.77,122.56 -547.15,284.76 -679.05,399.39 -311.29,270.84 -592,952.18 -820.9,1728.94 -374.9,1271.66 -591.64,2754.61 -602.31,3231.97l-6.43 286.7 -284.06 23.7c-536.05,44.58 -1312.19,411.99 -1968.6,722.84 -449,212.6 -846.19,400.63 -1124.08,465.39l-133.22 31.01 -114.98 -77.01c-469.7,-314.55 -849.62,-574.38 -1195.27,-810.77 -2974.61,-2034.68 -3430.39,-2346.4 -5764.46,-12.34 -2520.68,2520.77 -2208.34,2973.82 -158.68,5945.61l263.35 382.21 139.47 199.92c269.43,386.97 404.15,580.37 421.24,845.13 16.92,261.86 -91.9,469.53 -309.26,884.25l-112.6 217.27c-107.49,208.2 -322.48,707.68 -491.73,1182.23 -115.07,322.74 -206.44,625.39 -220.45,793.5l-22.29 268.11 -268.2 22.38c-368.11,30.57 -764.86,120 -1166.46,210.31 -201.59,45.46 -403.89,91.02 -553.58,120.97 -87.14,17.36 -305.91,59.65 -535.87,104.06 -453.67,87.58 -965.22,186.35 -1321.62,269.08 -148.29,34.45 -281.59,65.38 -391.38,98.77 -110.31,33.48 -214.98,73.39 -321.24,129.08l0.26 0.53c-6.52,3.35 -128.29,90.05 -265.56,188.37 -177.19,126.88 -360.54,258.77 -364.15,262.12 -746.8,691.82 -696.32,2186.05 -645.04,3704.85 13.74,407.32 27.58,816.5 27.58,1171.31 0,398.34 189.61,834.29 522.13,1202.59 316.75,351.02 760.2,636.14 1291.93,767.68 432.96,107.05 1442.77,338.6 2338.03,507.33 569.18,107.23 1086.72,188.82 1365.14,194.98l286.7 6.34 23.61 284.15c75.95,913.06 409.35,1435.1 675.61,1852.2 437.54,685.22 732.79,1147.78 -10.75,2211.6l-56.04 80.27c-2364.9,3383.08 -2652.22,3794.1 -289.61,6156.63 2526.41,2526.32 2962.36,2224.55 5834.6,235.95l493.76 -341.24c1156.33,-796.32 1618.45,-506.62 2311.42,-72.25 405.56,254.19 911.48,571.29 1810.27,646.1l268.2 22.29 22.29 268.2c30.66,368.29 120,765.13 210.49,1166.81 45.38,201.5 91.02,404.15 120.88,553.32 36.21,181.15 72.34,384.68 109.52,594.64 158.42,894.3 339.83,1917.67 800.02,2473.28 742.22,895.97 2059.35,846.89 3717.71,785.13 472.26,-17.53 970.16,-36.12 1450.34,-36.12 372.52,0 764.07,-205.56 1096.59,-541.42 346.53,-349.96 622.66,-835.44 748.65,-1379.33l727.42 -3886.79 240.98 -20c898.79,-74.8 1404.7,-391.9 1810.27,-646.1 692.97,-434.37 1155.09,-724.07 2311.42,72.25 187.32,128.99 365.74,252.78 536.05,370.76 2766.24,1917.85 3263.96,2262.88 5717.59,-190.84 2448.78,-2448.61 2121.46,-2922.45 94.28,-5856.27l-355.25 -514.73c-285.47,-412.52 -426.27,-616.05 -444.24,-896.41 -17,-267.23 88.64,-492.7 297.1,-937.38l84.32 -181.77c42.03,-90.49 92.25,-194.19 143.97,-300.98 242.74,-501.07 523.18,-1079.5 573.76,-1687.8l23.61 -284.15 286.7 -6.34c400.19,-8.9 842.58,-109.25 1264.97,-205.12 173.04,-39.21 343.8,-77.98 460.19,-101.24 209.43,-41.94 444.77,-82.29 682.04,-122.91 963.28,-164.94 1966.75,-336.92 2489.14,-916.59 744.86,-826.63 700.46,-2147.28 649.62,-3659.47 -14.1,-421.07 -28.72,-855.79 -28.72,-1254.13 0,-1661.89 -2029.65,-2019.96 -3272.06,-2239 -149.96,-26.43 -289.26,-51.01 -419.66,-76.83 -230.93,-45.73 -448.82,-100.18 -660.63,-153.22 -401.42,-100.35 -779.84,-194.98 -1164.87,-203.53l-286.7 -6.43 -23.61 -284.06c-79.91,-960.11 -414.99,-1457.39 -676.4,-1845.42 -443.89,-658.78 -723.81,-1074.3 103.09,-2276.89 236.92,-344.5 450.14,-667.24 672.09,-1003.37 134.19,-203.09 271.02,-410.23 463.01,-695.96 1446.56,-2151.95 748.3,-2850.12 -904.08,-4502.14l-51.63 -51.63c-2297.94,-2297.94 -2714.96,-2033.18 -4582.67,-846.72 -349.88,222.3 -746.63,474.37 -1223.29,755.97 -128.55,75.95 -256.04,165.03 -385.65,255.51 -461.16,322.21 -945.05,660.19 -1445.41,529.79 -230.75,-60.09 -516.93,-204.23 -829.8,-361.95 -312.25,-157.27 -653.85,-329.35 -950.24,-421.6 -72.78,-22.64 -157.63,-48.2 -235.69,-71.63 -563.36,-169.43 -809.89,-243.71 -1004.69,-654.47 -122.91,-259.3 -186.88,-628.03 -300.36,-1283.38 -75.33,-434.64 -172.87,-997.65 -309.96,-1678.1 -186.88,-927.86 -452.7,-1516.34 -821.08,-1880.75 -349.61,-345.82 -813.5,-500.01 -1408.23,-564.07z"/>
    <path class="fil1" d="M4282.22 23641.3l0 32431.91c0,891.56 434.37,1708.77 1151.04,2301.91 720.63,596.31 1724.89,967.25 2865.45,967.25l57689.99 0c1140.47,0 2146.93,-369.61 2868.53,-966.81 714.29,-591.12 1147.96,-1406.47 1147.96,-2302.35l0 -32431.91c0,-793.24 -400.63,-1616.16 -999.23,-2240.85 -587.42,-612.88 -1358.89,-1028.31 -2120.49,-1028.31l-4483.72 0c-155.33,0 -324.41,101.59 -463.54,259.74 -83.09,94.54 -152.87,206.7 -201.5,328.55l-0.44 -0.18c-47.31,118.95 -74.8,248.9 -74.8,382.48 0,244.06 99.39,500.01 348.38,718.96 458.78,403.36 1386.47,317.01 2336.8,228.46 428.65,-39.91 861.43,-80.18 1258.89,-80.18 1370.78,0 2494.42,409.35 2494.42,2477.51l0 30339.52c0,587.24 -80.88,1126.11 -316.22,1533.43 -259.83,449.53 -682.92,727.33 -1346.64,727.33l-58586.75 0c-663.72,0 -1086.81,-277.8 -1346.55,-727.33 -235.34,-407.23 -316.31,-946.19 -316.31,-1533.43l0 -30339.52c0,-2068.16 1123.64,-2477.51 2494.42,-2477.51 397.45,0 830.33,40.35 1258.89,80.18 950.33,88.55 1877.93,174.89 2336.8,-228.46 249.08,-218.95 348.29,-474.81 348.29,-718.96 0,-134.01 -27.49,-264.32 -75.16,-383.53 -48.46,-121.59 -118.06,-233.49 -200.89,-327.85l-0.62 0.53c-139.03,-158.15 -308.29,-259.74 -463.54,-259.74l-4483.72 0c-761.6,0 -1533.08,415.43 -2120.49,1028.31 -598.61,624.69 -999.23,1447.61 -999.23,2240.85zm-635.52 32431.91l0 -32431.91c0,-960.73 472.26,-1943.93 1177.91,-2680.33 699.49,-729.8 1635.2,-1224.44 2577.33,-1224.44l4483.72 0c344.68,0 685.48,186.08 940.2,475.78l0 1.23c128.29,145.99 236.83,320.8 313.22,512.26 77.62,194.1 122.38,403.89 122.38,616.93 0,413.75 -160.89,840.9 -564.42,1195.62 -662.66,582.57 -1724.98,483.71 -2813.37,382.39 -401.86,-37.36 -807.77,-75.24 -1201.79,-75.24 -1021.52,0 -1858.9,304.41 -1858.9,1841.98l0 30339.52c0,487.5 58.77,920.2 229.43,1215.63 146.26,253.13 395.78,409.53 797.91,409.53l58586.75 0c402.12,0 651.65,-156.39 797.91,-409.53 170.75,-295.43 229.43,-728.12 229.43,-1215.63l0 -30339.52c0,-1537.57 -837.38,-1841.98 -1858.9,-1841.98 -394.02,0 -799.93,37.8 -1201.79,75.24 -1088.4,101.32 -2150.71,200.27 -2813.37,-382.39 -403.53,-354.81 -564.42,-781.87 -564.42,-1195.62 0,-213.04 44.85,-422.83 122.38,-616.93l0 -1.23c76.48,-191.46 184.94,-366.26 313.22,-512.26 254.81,-289.7 595.52,-475.78 940.2,-475.78l4483.72 0c942.14,0 1877.84,494.64 2577.33,1224.44 705.66,736.41 1177.91,1719.6 1177.91,2680.33l0 32431.91c0,1093.24 -520.89,2081.37 -1378.8,2791.44 -831.03,687.68 -1980.05,1113.33 -3273.21,1113.33l-57689.99 0c-1293.51,0 -2440.33,-427.15 -3270.04,-1113.86 -860.55,-712.09 -1381.97,-1702.51 -1381.97,-2790.91z"/>
    <g>
     <path class="fil1" d="M22324.26 12421.19l2318.91 -2400.41 311.81 212.34c231.55,157.71 474.55,325.47 715.52,492.61l668.83 466.36c1302.59,909.89 1956.26,1366.38 2577.86,1449.64 617.37,82.65 1251.13,-199.56 2514.6,-766.98 191.37,-85.91 374.99,-158.59 551.12,-223.18 170.14,-62.56 344.94,-121.59 513.85,-178.59 405.03,-136.57 773.32,-260.98 1083.2,-457.63 301.59,-191.28 553.32,-455.78 740.37,-878.35 51.9,-117.36 129.78,-383.01 218.16,-727.86 96.74,-377.37 207.32,-855.62 311.11,-1343.12 99.56,-466.97 190.75,-931.83 255.25,-1311.75 57.62,-339.74 94.54,-612.09 97.8,-757.46l9.78 -439.48 3862.39 0 9.96 439.48c3,137.8 35.86,386.62 87.14,696.41 58.33,351.73 141.33,782.75 232.25,1220.56 100.53,483.89 210.23,970.42 306.97,1363.29 90.4,366.88 168.81,650.06 216.83,768.92 187.76,464.24 443.62,750.5 751.82,953.5 314.37,207.05 692.97,334.46 1109.98,474.46l1.5 0.44c331.9,111.46 685.92,230.4 1064.34,400.36l218.42 97.27c591.82,266.35 1032.62,464.59 1381.18,587.06 337.72,118.68 592.09,168.02 822.93,143.09 453.49,-48.99 970.77,-395.78 1981.28,-1073.51 779.76,-521.16 1561.36,-1039.59 2340.23,-1562.07l2658.92 2568.79 -212.16 311.55c-322.92,474.28 -660.9,957.29 -957.12,1380.48l-5.82 8.37c-890.95,1273.25 -1346.91,1924.72 -1434.04,2553.19 -86.52,623.89 187.49,1270.08 755.35,2534.95 85.91,191.46 158.59,374.9 223.27,551.2 62.64,170.67 121.68,345.03 178.59,513.85 136.66,404.94 261.06,773.41 457.54,1083.2 191.19,301.59 455.96,553.49 878.35,740.37 117.18,51.9 383.09,129.87 727.86,218.16 377.45,96.74 855.79,207.23 1343.29,311.11 466.97,99.56 931.83,190.75 1311.75,255.25 339.66,57.62 611.82,94.54 757.29,97.8l439.57 9.69 0 3838.07 -411.38 34.19c-167.67,14.01 -459.13,58.59 -812.8,120.97 -393.75,69.52 -859.23,160 -1315.45,254.98 -457.63,95.24 -905.13,194.28 -1262.76,280.54 -323.09,77.89 -574.73,145.73 -696.05,190.93 -437.1,162.91 -720.19,428.65 -930.07,756.49 -215.78,336.84 -359.22,746.8 -510.59,1180.12 -54.54,156.66 -110.58,316.66 -173.4,484.59 -62.2,166.08 -129.43,334.28 -205.03,502.39 -565.39,1259.15 -826.01,1919.17 -744.95,2536.01 81.06,618.08 510.67,1236.07 1324.44,2406.58 134.1,192.87 278.6,400.71 465.12,672.18 169.17,246.17 355.25,519.48 562.75,829.54l200.71 299.74c-855.18,887.16 -1712.11,1773 -2568.7,2658.92l-311.73 -212.16c-514.81,-350.67 -968.75,-669 -1366.47,-947.87l-25.38 -17.36c-1237.92,-868.39 -1887.71,-1324.26 -2523.59,-1416.6 -633.14,-91.98 -1295.01,171.46 -2561.39,740.19 -171.02,76.83 -342.74,145.29 -512.44,208.46 -164.94,61.5 -332.25,119.56 -495.7,176.13l-4.05 1.32c-817.38,283.71 -1534.31,533.49 -1874.23,1343.47 -41.59,99.03 -115.95,370.14 -204.41,730.59 -97.62,397.45 -212.6,904.16 -320.36,1411.4 -100.88,474.28 -194.81,943.81 -261.5,1318.27 -58.42,327.5 -95.77,578.25 -98.15,688.39l-9.96 439.39 -3862.39 0 -9.78 -439.39c-3,-138.33 -35.86,-387.06 -87.05,-696.41 -57.98,-350.85 -140.62,-780.2 -231.37,-1216.51 -100.53,-483.89 -210.14,-970.42 -306.97,-1363.82 -90.57,-368.11 -169.43,-652.53 -217.63,-772.71 -359.13,-892.53 -1087.52,-1150.34 -1931.77,-1446.47l-7.75 -2.64c-158.15,-55.42 -320.1,-112.16 -482.3,-173.13 -164.67,-61.76 -333.4,-129.34 -505.92,-206.44 -2508.87,-1121.17 -2716.28,-976.59 -4963.91,590.59l-2.38 2.11c-418.34,291.64 -901.87,628.83 -1478.19,1014.65l-299.83 200.71 -2659.1 -2568.79 212.52 -311.46c368.38,-541.25 684.07,-991.04 960.02,-1384.44l4.76 -6.87c868.83,-1238.45 1324.7,-1888.24 1416.95,-2524.2 91.9,-633.14 -171.37,-1294.92 -740.11,-2561.39 -76.74,-170.93 -145.2,-342.65 -208.46,-512.44 -61.32,-164.85 -119.56,-332.17 -176.22,-495.78l-7.67 -22.03c-281.06,-810.06 -533.05,-1518.54 -1337.04,-1856.08 -105.64,-44.23 -336.22,-109.78 -638.52,-185.38 -345.29,-86.26 -780.81,-184.85 -1230.34,-280.45 -499.75,-106.26 -1008.48,-207.41 -1427.08,-283.27 -391.64,-70.93 -711.82,-121.59 -880.81,-135.6l-411.38 -34.19 0 -3838.07 439.57 -9.69c137.8,-3 386.97,-36.12 697.11,-87.49 351.64,-58.24 782.4,-141.15 1219.94,-232.08 484.33,-100.71 971.21,-210.4 1364.09,-307.06 366.44,-90.13 649.09,-168.37 768.04,-216.48 464.15,-187.76 750.5,-443.71 953.59,-751.91 207.23,-314.72 334.55,-693.5 474.64,-1110.95 56.65,-168.73 115.25,-343.44 177.71,-513.85 65.11,-177.63 137.71,-361.51 222.82,-551.12 99.3,-221.42 179.74,-386.35 258.42,-547.68l1.59 -3.26c222.82,-456.84 434.37,-890.51 507.85,-1337.04 71.98,-437.63 13.83,-900.11 -292.96,-1434.04l-2282.7 -3422.82 249.43 -257.89zm2353.63 -2061.81l-2270.37 2349.93 2172.3 3258.05c344.15,596.23 408.64,1116.06 327.41,1610.26 -80,486.44 -299.04,935.53 -529.7,1408.49l-1.5 3.26c-82.2,168.29 -166,339.92 -255.95,540.54 -82.03,182.91 -152.43,361.42 -215.69,534.29 -66.08,180.89 -121.77,346.97 -175.6,507.33 -145.47,433.67 -277.72,827.07 -504.33,1171.04 -230.84,350.41 -553.58,640.28 -1073.77,850.59 -130.75,52.86 -425.47,135.07 -802.66,227.85 -395.87,97.36 -885.93,207.93 -1373.34,309.17 -437.63,90.93 -871.92,174.45 -1231.13,233.93 -320.18,53.04 -581.6,87.23 -733.85,90.57l-183.71 4.05 0 3343.96 171.99 14.27c172.25,14.27 501.42,66.35 905.22,139.56 432.79,78.42 944.43,179.92 1435.19,284.24 453.05,96.3 891.83,195.78 1239.59,282.65 314.9,78.77 558.43,148.29 676.05,197.63 917.47,385.12 1184.79,1155.45 1489.55,2033.88l7.58 21.94c52.69,152.16 106.87,307.41 166.61,467.76 60.88,163.62 127.32,329.88 202.3,497.1 589.79,1313.16 862.22,2003.4 760.37,2704.21 -101.32,698.17 -569.27,1365.32 -1460.74,2636.28l-4.76 6.87c-280.54,399.83 -600.81,856.41 -958.97,1382.33l-88.81 130.22 2350.28 2270.54 125.38 -83.97c546,-365.56 1043.73,-712.62 1473.96,-1012.62l2.38 -1.67c2358.38,-1643.83 2576.1,-1795.46 5218.81,-614.55 165.73,74.1 330.05,139.74 491.47,200.36 160.71,60.35 316.22,115.07 468.12,168.29l8.55 2.91c907.51,318.25 1690.7,593.05 2095.03,1597.84 53.13,132.16 135.69,428.73 228.82,807.33 97.62,396.4 208.02,886.28 309.17,1372.99 90.75,436.49 173.93,869.45 233.22,1227.78 52.78,319.3 86.87,580.37 90.13,733.15l4.14 183.53 3354.18 0 4.14 -183.53c2.64,-127.93 41.32,-391.82 101.32,-728.21 66.96,-375.96 161.5,-848.92 263.27,-1327.52 107.49,-505.48 223.09,-1015.09 322.48,-1419.51 91.98,-374.11 170.4,-658.87 216.75,-769.18 385.03,-917.47 1155.62,-1184.79 2033.8,-1489.55l9.08 -3.26c156.74,-54.19 316.13,-109.43 480.8,-170.93 163.53,-60.88 329.79,-127.14 497.19,-202.38 1313.16,-589.71 2003.22,-862.31 2704.12,-760.46 698.17,101.41 1365.5,569.53 2636.72,1461.27l24.85 17.45c386.71,271.46 828.3,581.07 1363.82,945.93l130.4 88.72 2270.54 -2350.19 -83.88 -125.38c-206,-307.58 -391.73,-580.37 -561.25,-826.98l-464.68 -670.59c-836.85,-1203.91 -1278.71,-1839.43 -1368.23,-2521.74 -89.61,-683.37 179.74,-1371.49 765.31,-2675.75 73.83,-164.67 139.03,-327.32 198.86,-487.15 59.21,-157.98 115.86,-320.18 171.37,-479.31 156.48,-447.85 304.68,-871.48 537.02,-1234.66 238.07,-372.52 560.1,-674.2 1058.44,-859.93 132.16,-49.16 393.84,-120 725.74,-200.18 365.56,-88.2 815.53,-187.85 1270.87,-282.65 465.12,-96.74 933.59,-188.02 1323.65,-256.83 361.51,-63.7 661.07,-109.52 836.14,-124.06l171.99 -14.27 0 -3343.96 -183.71 -4.05c-161.06,-3.52 -445.83,-41.76 -795,-100.88 -388.12,-65.9 -856.5,-157.71 -1323.12,-257.19 -479.84,-102.21 -961.7,-213.84 -1353.43,-314.19 -360.89,-92.34 -641.16,-174.89 -768.65,-231.28 -476.58,-210.93 -776.23,-496.66 -993.5,-839.32 -212.16,-334.37 -341.68,-718.26 -484.06,-1140.2 -54.01,-160.27 -110.31,-326.44 -176.48,-506.71 -64.23,-174.72 -134.89,-353.75 -216.13,-534.99 -588.38,-1310.34 -872,-1982.08 -775.61,-2676.63 95.69,-689.89 563.8,-1358.89 1478.63,-2666.32l5.9 -8.37c288.2,-411.9 617.46,-882.31 955.18,-1378.36l88.72 -130.22 -2350.19 -2270.45c-720.9,482.66 -1443.82,962.49 -2165.08,1444.62 -1046.72,702.04 -1582.07,1061.08 -2099.17,1116.77 -272.87,29.43 -561.25,-24.49 -936.06,-156.22 -358.69,-125.99 -794.56,-321.42 -1376.69,-583.45l-243.35 -108.99c-366.26,-164.5 -713.85,-281.42 -1040.03,-390.93l-1.41 -0.44c-433.76,-145.47 -827.16,-277.8 -1171.13,-504.33 -350.32,-230.84 -640.19,-553.49 -850.59,-1073.77 -52.78,-130.75 -135.07,-426 -228.11,-803.54 -97.45,-395.87 -207.85,-885.48 -308.99,-1372.46 -91.1,-437.9 -174.63,-872.44 -234.19,-1231.93 -52.86,-319.74 -86.96,-580.81 -90.22,-733.06l-4.14 -183.62 -3354.18 0 -4.14 183.62c-3.52,160.97 -41.68,445.91 -100.88,795.17 -65.82,388.12 -157.71,856.5 -257.1,1323.12 -102.29,479.92 -213.84,961.43 -314.28,1353.34 -92.43,360.98 -174.89,641.16 -231.37,768.48 -210.93,476.75 -496.66,776.23 -839.23,993.59 -334.37,212.16 -718.17,341.86 -1140.12,484.15 -160.27,54.1 -326.09,110.13 -506.8,176.48 -174.72,64.05 -353.58,134.81 -534.9,216.13 -1308.05,587.33 -1964.63,879.58 -2654.16,787.24 -685.13,-91.81 -1356.07,-560.45 -2693.11,-1494.4l-668.3 -465.39c-224.5,-156.13 -463.36,-320.98 -713.94,-491.64l-130.4 -88.72zm83.97 825.4l-1543.83 1598.01 1908.24 2862.27c430.5,743.1 520.98,1372.46 434.46,1959.34 -85.46,580.01 -342.3,1106.46 -612.7,1660.83l-6.52 13.3c-89.17,183.09 -179.92,369.26 -242.91,509.7 -75.68,168.73 -141.77,336.31 -201.5,500.36 -60.44,165.38 -114.89,327.5 -167.41,484.06 -171.55,511.11 -327.41,974.83 -605.3,1382.77 -281.24,413.14 -682.13,760.72 -1337.48,1025.84 -145.11,58.86 -458.69,147.58 -855.35,246.17 -415.34,103.35 -925.05,218.86 -1427.79,323.27 -348.82,72.6 -694.29,140 -1002.76,194.45 -236.13,41.76 -454.11,76.74 -639.4,101.59l0 2190.89c225.29,35.16 506.71,84.67 815.88,142.91 377.19,70.93 791.65,154.37 1192.63,239.57 471.55,100.18 931.39,205.12 1300.03,298.25 333.58,84.5 595.79,160.44 729.62,216.66 1175.98,493.67 1487.35,1390.87 1842.25,2413.8l7.58 21.85c102.47,295.6 210.05,603.45 349,912.8 1335.8,2974.26 1237.56,3115.76 -758.26,5961.12l-23.97 33.66c-213.93,305.21 -451.55,643.98 -723.63,1039.59l1596.52 1542.24c221.5,-149.87 414.11,-281.86 587.42,-401.6l580.1 -403.09c1303.03,-908.48 2014.85,-1404.88 2788.97,-1512.46 775.44,-107.84 1576.07,179.21 3050.38,837.99 154.45,68.99 308.73,130.49 460.89,187.49 150.22,56.3 305.38,110.84 457.19,163.97 520.01,182.3 1004.52,352.34 1428.58,636.14 430.58,288.2 790.86,688.3 1046.72,1324.44 59.3,147.4 148.2,462.48 246.88,859.67 103.53,415.87 219.04,925.13 323.36,1427.44 72.34,348.03 139.47,692.44 193.75,999.94 41.68,235.69 76.39,452.96 101.24,637.99l2185.08 0c28.55,-189.87 68.11,-418.51 114.72,-668.56 62.03,-331.81 136.48,-700.55 214.37,-1066.81 111.28,-523.54 232.6,-1054.56 338.33,-1479.86 97.8,-393.58 183.09,-697.37 235.69,-822.93 492.52,-1173.42 1387.08,-1486.03 2407.28,-1840.05l6.61 -2.29c150.49,-52.07 304.59,-105.64 463.98,-165.03 154.89,-57.53 312.25,-120.36 470.58,-191.46 1476.95,-663.19 2252.57,-970.16 3032.85,-859.85 778.17,109.87 1519.24,629.8 2931.26,1620.22l546.18 382.65 524.07 362.74 1542.33 -1596.34c-145.03,-214.1 -276.57,-406.09 -397.81,-581.95l-421.24 -606.8c-1883.84,-2709.76 -1988.6,-2860.34 -660.19,-5818.21 68.28,-151.9 129.34,-304.94 186.17,-457.02 55.95,-149.87 110.75,-306.26 164.32,-459.84 182.56,-522.83 355.43,-1017.29 641.87,-1446.12 291.11,-435.78 694.11,-795.7 1330.78,-1033.15 148.2,-55.24 426.62,-131.46 774.38,-216.22 382.04,-92.95 846.89,-196.48 1314.31,-293.75 371.82,-77.45 750.5,-152.16 1095.01,-215.6 273.66,-50.57 524.07,-93.66 730.15,-125.2l0 -2190.01c-200.45,-26.96 -443.09,-66.52 -708.83,-114.28 -345.21,-62.03 -720.99,-136.66 -1088.84,-214.98 -501.25,-106.7 -1006.02,-224.41 -1418.63,-331.64 -381.07,-99.03 -682.04,-189.17 -827.77,-253.66 -603.27,-267.06 -976.5,-610.41 -1241.97,-1014.92 -261.77,-399.39 -413.67,-849.54 -580.81,-1344.35 -51.54,-153.13 -105.29,-311.81 -168.11,-483.27 -60.62,-165.55 -126.88,-333.93 -202.03,-501.25 -661.51,-1473.25 -980.55,-2227.99 -876.32,-3000.96 103.79,-768.92 623.45,-1511.49 1638.98,-2962.72l369.44 -529.79 373.93 -540.81 -1597.75 -1543.56c-579.75,387.06 -1160.82,772.18 -1739.87,1160.21 -560.19,375.87 -983.81,660.02 -1350.96,860.55 -377.1,206 -694.64,323.88 -1033.59,360.45 -357.37,38.5 -700.72,-16.56 -1122.41,-157.18 -413.49,-137.71 -896.15,-354.9 -1544,-646.36l-214.9 -97.27c-337.63,-151.55 -669.62,-263.35 -981.17,-368.03l-2.64 -1.06c-511.64,-171.55 -975.35,-327.41 -1383.47,-605.13 -413.31,-281.42 -760.9,-682.22 -1026.1,-1337.92 -58.94,-145.91 -147.4,-459.39 -245.91,-855.44 -103.44,-415.34 -218.95,-924.87 -323.44,-1427.35 -72.51,-349.17 -139.92,-694.82 -194.54,-1003.64 -41.68,-235.86 -76.57,-453.4 -101.41,-638.61l-2178.12 0c-27.14,201.06 -66.79,444.15 -114.72,710.59 -62.12,344.85 -136.48,720.19 -214.72,1087.43 -106.7,500.89 -224.41,1005.31 -331.46,1417.74 -99.21,381.6 -189.43,682.75 -253.84,828.3 -534.11,1206.55 -1355.01,1483.74 -2358.91,1822.69 -153.48,51.72 -311.73,105.29 -483.62,168.2 -165.55,60.62 -333.84,127.05 -501.25,202.21 -1470.87,660.46 -2209.04,989.01 -2976.46,889.19 -762.66,-99.21 -1507.26,-619.22 -2991.53,-1655.99l-26.87 -18.77c-291.28,-203.26 -616.05,-430.23 -1039.32,-720.46zm-1803.83 1492.81l1769.47 -1831.76 90.57 61.94c436.57,298.77 804.95,556.14 1131.92,784.34l26.87 18.86c1449.46,1012.36 2176.71,1520.3 2876.28,1611.32 694.64,90.22 1410.34,-228.46 2836.81,-869.01 177.8,-79.83 350.49,-148.02 517.55,-209.26 161.06,-58.94 328.64,-115.6 490.41,-170.22 943.9,-318.69 1715.55,-579.22 2203.31,-1681.01 59.74,-134.98 145.38,-422.04 240.71,-788.65 104.41,-402.21 221.15,-902.93 328.29,-1406.47 80.09,-375.6 154.28,-748.48 213.75,-1079.32 55.51,-308.38 100,-588.65 126.43,-810.33l13.83 -115.25 2638.83 0 13.74 115.25c24.05,201.86 64.14,456.58 114.01,739.4 55.33,312.78 121.94,655.26 192.6,995.44 103.88,499.48 218.68,1005.66 321.33,1418.19 95.69,385.12 180.45,686.54 234.72,820.81 243,600.54 558.16,965.66 931.3,1219.77 378.51,257.54 825.92,408.03 1318.89,573.41l2.64 1.06c317.54,106.52 655.7,220.36 1005.14,377.19l356.22 160.18c574.55,258.51 1013.24,452.7 1378.18,574.29 385.56,128.46 695.88,179.3 1013.24,145.03 301.77,-32.42 589.97,-140.53 936.76,-329.96 357.01,-194.89 776.32,-476.22 1330.69,-848.22 637.2,-426.97 1276.86,-850.42 1914.5,-1276.86l1906.66 1841.98 -61.85 90.57c-169.43,247.41 -311.02,452.17 -437.02,633.32l-370.23 529.79c-991.57,1416.86 -1499.07,2141.99 -1594.31,2848.62 -94.8,702.4 214.72,1432.02 856.06,2860.16 79.83,177.71 148.02,350.49 209.17,517.55 59.12,161.41 115.69,328.55 170.14,490.41 161.68,478.87 308.73,914.3 551.73,1284.26 239.92,364.77 578.6,675.26 1129.37,919.05 134.81,59.74 421.77,145.38 788.13,240.53 402.3,104.58 903.46,221.24 1407.26,328.55 376.04,80.09 749.53,154.45 1080.82,213.93 307.5,55.33 587.33,99.65 808.57,126.08l115.16 13.74 0 2645.44 -112.07 16.12c-224.23,31.9 -512.88,80.97 -832,139.83 -338.51,62.29 -715.08,136.83 -1088.93,214.54 -469.17,97.62 -931.57,200.45 -1306.2,291.73 -338.77,82.56 -607.15,155.77 -744.69,207.05 -577.99,215.51 -942.93,540.89 -1205.58,934.21 -267.58,400.54 -435.17,879.93 -612.26,1387.08 -52.51,150.66 -106.43,304.59 -166.35,464.95 -59.21,158.33 -122.47,316.92 -192.25,472.26 -1268.05,2823.59 -1167.87,2967.92 636.58,5563.4l421.24 607.86c157.27,228.02 314.1,456.75 458.87,671.12l58.86 87.14 -1842.16 1906.92 -90.4 -62.03c-231.55,-158.86 -432.96,-298.42 -616.23,-426.18l-547.5 -383.18c-1378.62,-967.07 -2102.17,-1474.57 -2817.07,-1575.55 -712.88,-100.8 -1460.3,197.1 -2891.09,839.58 -162.03,72.69 -324.77,137.62 -485.83,197.54 -154.28,57.53 -310.76,111.9 -464.06,165.03l-6.7 2.29c-963.46,334.19 -1808.59,627.59 -2257.5,1697.31 -48.02,114.54 -128.99,404.68 -223.35,784.25 -104.14,418.87 -224.68,947.07 -336.22,1471.67 -78.5,369.35 -152.69,736.32 -213.4,1060.64 -56.21,301.06 -101.59,567.5 -129.08,768.48l-15.51 113.13 -2641.56 0 -13.66 -115.25c-24.05,-201.77 -63.88,-456.31 -113.75,-738.7 -55.07,-311.64 -121.41,-652.7 -191.99,-991.83 -103.61,-499.22 -218.42,-1005.22 -321.15,-1418.27 -96.13,-386.44 -181.06,-689.36 -235.69,-824.95 -233.57,-580.72 -560.19,-944.61 -949.89,-1205.32 -396.05,-265.03 -865.57,-429.88 -1369.55,-606.53 -148.9,-52.16 -301.95,-105.91 -462.39,-166 -158.42,-59.38 -318.07,-123.09 -476.05,-193.57 -1427.7,-637.99 -2196.97,-916.76 -2908.71,-817.82 -712.88,99.12 -1406.29,582.75 -2675.84,1467.88l-581.07 403.97c-220.53,152.34 -448.65,308.64 -676.85,462.57l-87.31 58.86 -1906.74 -1842.07 62.12 -90.31c279.04,-406.79 547.86,-790.24 787.6,-1132.1l22.03 -31.98c1916.88,-2732.76 2011.33,-2867.56 735.7,-5707.98 -145.38,-323.8 -257.45,-646.62 -364.77,-955.88l-7.58 -22.03c-331.11,-954.74 -628.12,-1790.44 -1689.73,-2236.09 -122.12,-51.19 -371.29,-123.09 -692.09,-204.32 -366.35,-92.69 -823.02,-196.75 -1290.87,-296.13 -404.59,-85.99 -816.94,-169.08 -1186.37,-238.6 -356.22,-67.14 -677.2,-122.82 -917.38,-157.89l-111.54 -16.39 0 -2645.7 115.16 -13.83c201.94,-24.05 457.19,-64.14 740.28,-114.19 312.43,-55.16 654.64,-121.77 994.65,-192.52 499.66,-103.79 1005.93,-218.6 1418.54,-321.24 384.06,-95.6 685.04,-180.18 819.76,-234.72 601.25,-242.83 966.19,-558.08 1220.29,-931.3 257.63,-378.25 408.03,-825.66 573.58,-1318.71 53.22,-158.59 108.28,-322.74 169.43,-490.06 61.59,-168.81 129.87,-341.95 208.64,-517.72 72.78,-162.21 160.18,-341.42 246.09,-517.81l6.43 -13.3c261.42,-536.05 509.79,-1045.22 589.35,-1584.44 78.42,-531.91 -5.46,-1106.02 -401.07,-1789.56l-2016.44 -3024.39 72.6 -75.07zm12392.2 -9661.03c1021.17,0 2519.27,-91.63 3481.94,3.44 386.27,39.91 733.06,112.07 1045.31,234.72 317.81,124.94 599.13,301.15 847.95,547.24 240.36,238.42 444.59,537.63 615.87,914.82 168.29,370.58 305.38,818.7 414.55,1361 76.92,381.77 137.89,702.22 188.11,977.03 53.48,293.14 93.39,522.66 127.76,721.96l0.44 2.2c101.85,588.3 159.39,919.67 237.19,1083.9 22.03,46.52 62.64,79.56 130.93,111.72 87.76,41.41 218.95,80.97 400.98,135.69l244.15 74.63c352.26,109.34 722.84,296.04 1061.96,466.62l5.99 2.82c138.95,70.31 272.61,137.54 392.08,192.96 114.28,52.78 212.78,93.48 284.68,112.16 72.42,18.77 187.41,-23.35 321.33,-95.07 153.22,-81.94 325.91,-202.47 494.11,-320.1l4.93 -3.44c149.78,-104.5 297.36,-207.49 430.05,-285.82 441.42,-260.8 840.81,-514.55 1193.16,-738.26l9.16 -5.29c1133.07,-720.11 1826.12,-1160.38 2604.73,-1078.44 769.18,81.24 1578.19,677.73 2929.59,2029.3l51.19 51.54c1964.89,1964.1 2795.05,2794.25 997.38,5468.77 -131.02,194.81 -295.78,444.15 -455.78,686.36l-327.5 493.49c-111.19,166.44 -228.11,339.66 -357.89,528.47 -272.08,395.52 -364.77,651.12 -355.07,852.97 9.34,193.04 121.06,358.95 257.98,562.13 140.97,209.26 300.27,445.65 442.39,754.56 132.43,287.32 248.29,634.82 317.19,1075.36 324.41,40.53 626.36,116.13 941.08,194.81l11.63 2.91c194.89,48.72 395.87,98.95 612.17,141.77 118.95,23.44 256.57,47.84 404.33,73.75l7.05 1.15c729.36,128.81 1686.3,298.6 2472.04,717.29 808.48,431.02 1427.7,1118 1427.7,2274.86 0,239.3 3.17,447.76 7.75,638.96 4.85,200.09 11.63,397.54 18.06,591.2l0.53 4.14c55.77,1675.28 104.06,3137.88 -844.78,4190.94 -352.52,391.29 -817.64,635.79 -1333.16,805.66 -503.89,166.17 -1055.53,260.8 -1595.72,353.14l-17.09 3c-217.71,37.36 -434.46,74.45 -643.98,116.57 -186.61,37.89 -308.55,65.55 -431.38,93.31l-10.4 2.47c-185.56,41.94 -374.55,84.85 -557.37,120.27 -156.66,30.22 -315.87,56.65 -477.28,75.42 -55.51,279.13 -142.03,544.42 -241.77,796.14 -108.28,274.46 -234.54,534.99 -352.7,778.61l-225.2 474.28c-152.69,325.47 -229.96,490.58 -225.2,565.83 1.94,29.69 24.58,77.53 68.55,150.66 52.86,88.02 133.4,204.32 240.89,359.74l378.86 548.65c2318.65,3355.77 2684.3,3909.17 -204.5,6797.88 -1440.65,1440.74 -2312.13,2061.37 -3242.37,2044.54 -925.93,-16.56 -1862.87,-666.1 -3450.75,-1767l-535.96 -370.85c-378.51,-260.71 -636.14,-344.77 -849.71,-329 -209.7,15.42 -397.98,133.48 -623.36,274.72 -218.6,137.1 -462.57,290.05 -766.72,423.8 -285.38,125.55 -623.54,234.81 -1043.11,298.69l-626.27 3342.81c-77.53,339.92 -201.41,661.43 -359.39,952.71 -164.59,303.53 -367.59,577.02 -594.73,806.45 -238.51,240.89 -505.56,434.81 -786.28,567.42 -275.34,129.96 -563.89,201.5 -851.92,201.5 -274.02,0 -517.55,4.23 -742.31,10.13 -230.4,6.17 -459.04,14.8 -681.07,23 -923.37,34.45 -1752.11,65.2 -2474.86,-56.65 -740.37,-124.94 -1366.03,-408.2 -1859.25,-1003.73 -296.13,-357.54 -494.81,-823.02 -640.9,-1323.73 -144.5,-494.55 -237.27,-1017.82 -323.62,-1505.59l-52.25 -292.34 -54.54 -284.41 -59.83 -286.97 -55.16 -249.08c-68.81,-305.91 -137.01,-609.18 -183.26,-905.13 -411.99,-64.85 -745.13,-173.31 -1026.63,-297.89 -301.51,-133.22 -543.45,-284.85 -760.55,-420.98 -225.38,-141.24 -413.58,-259.3 -623.36,-274.72 -213.57,-15.77 -471.02,68.28 -849.71,329l-493.84 341.24c-1645.94,1139.76 -2594.16,1796.17 -3526.7,1800.49 -936.32,4.23 -1807.01,-646.98 -3283.34,-2123.14 -1397.57,-1397.57 -2014.24,-2219.44 -1943.04,-3197.35 70.05,-963.81 817.02,-2032.47 2148.86,-3937.72l56.12 -80.35c229.7,-328.55 298.6,-559.66 276.22,-757.46 -22.47,-197.98 -140.8,-383.8 -282.03,-604.86l-1.67 -2.64c-274.02,-429.53 -608.91,-954.39 -748.74,-1820.05 -127.93,-14.89 -270.4,-34.98 -422.65,-58.68 -217.27,-33.92 -446.18,-74.19 -676.58,-117.62 -394.02,-74.19 -801.96,-158.68 -1173.16,-239.12 -501.86,-108.81 -950.16,-213.75 -1206.81,-277.1 -334.02,-82.56 -641.51,-212.16 -916.06,-375.43 -292.25,-173.75 -548.56,-386.79 -761.52,-622.66 -228.2,-252.25 -407.5,-533.49 -530.23,-824.69 -123.79,-293.58 -189.78,-596.4 -189.78,-889.54 0,-414.55 -12.07,-775.61 -24.05,-1134.48l-0.44 -13.13c-28.19,-836.94 -56.39,-1667.53 44.14,-2405.96 103,-755.79 340.36,-1413.6 846.19,-1882.25 16.65,-15.86 77.8,-62.73 157.89,-122.12l277.98 -202.91 228.46 -160.36c57.62,-39.38 103.53,-69.34 127.49,-81.85l30.75 -15.24c66.26,-33.57 132.07,-63 198.15,-89.34 74.63,-29.69 149.78,-55.51 226.26,-78.77 81.41,-24.76 153.04,-44.14 221.24,-61.24l220.89 -52.51c376.13,-87.31 888.22,-186.26 1343.12,-274.1 177.01,-30.13 358.51,-70.4 535.43,-105.11 221.77,-44.41 373.05,-78.5 520.89,-111.72l19.21 -4.58c312.78,-69.96 622.83,-139.83 926.01,-185.73 18.77,-73.04 41.23,-151.55 66.26,-233.66 39.12,-128.37 82.38,-257.45 126.96,-382.65 83.26,-233.66 178.42,-475.69 268.02,-690.59 103.53,-248.11 200.89,-462.04 265.73,-587.59l115.42 -220.18c78.59,-149.87 137.54,-262.47 177.8,-351.99 31.01,-68.64 45.99,-110.93 44.67,-131.37 -1.15,-19.12 -21.76,-59.12 -61.76,-124.23 -52.69,-85.64 -126.26,-191.37 -224.23,-331.81l-403.27 -585.3c-1169.46,-1695.64 -1843.57,-2672.93 -1859.43,-3620.53 -15.86,-953.24 631.21,-1826.92 2104.81,-3300.52 1380.65,-1380.65 2208.87,-1981.28 3140.87,-1943.31 923.19,37.71 1900.93,706.45 3596.04,1865.86l35.95 24.58c316.31,216.3 655.7,448.65 975.8,663.98 93.31,-34.54 200.89,-80.27 318.33,-132.95 142.03,-63.7 307.23,-142.03 480.36,-224.06l1.94 -0.62c584.95,-276.92 1256.51,-594.9 1847.27,-731.74 38.33,-377.01 116.48,-913.06 229.87,-1494.66 98.68,-506.36 224.85,-1051.13 375.43,-1562.33 140.27,-475.96 303.88,-926.72 489.62,-1299.15 167.32,-335.6 354.72,-611.56 561.78,-791.74 93.66,-81.5 232.08,-178.51 392.96,-274.1 146.44,-87.05 313.49,-174.19 483.62,-248.29 153.57,-66.79 313.49,-124.32 468.65,-164.15 143.18,-36.74 281.59,-58.33 406.79,-58.33zm3442.73 260.89l-3442.73 0c-105.29,0 -221.86,18.15 -342.48,49.16 -139.3,35.68 -285.91,88.72 -429.09,151.02 -158.68,69.08 -316.04,151.37 -454.99,233.84 -146.44,87.05 -271.37,174.37 -354.28,246.53 -179.65,156.3 -346.7,404.94 -499.57,711.47 -179.39,359.66 -337.63,795.61 -473.4,1256.33 -147.05,499.22 -271.2,1036.41 -369.08,1538.19 -122.73,629.44 -203.44,1197.3 -236.31,1563.92l-8.9 97.71 -95.07 19.12c-583.45,116.83 -1279.5,446.53 -1881.28,731.21l-1.85 0.62c-170.31,81.06 -332.52,157.8 -485.92,226.7 -151.99,68.2 -288.29,125.2 -400.63,163.44l-60.62 20.53 -53.48 -35.86c-366.71,-246.44 -712.26,-482.92 -1032.18,-701.69l-35.95 -24.58c-1656.43,-1132.89 -2611.7,-1786.3 -3459.56,-1820.93 -839.14,-34.19 -1621.01,542.74 -2946.15,1867.89 -1419.95,1419.95 -2043.75,2248.95 -2029.39,3111.8 14.45,868.74 672.35,1822.51 1813.44,3477l402.83 584.77c104.58,150.05 183.09,262.65 232.87,343.62 62.47,101.68 95.33,177.71 99.56,244.41 4.23,67.4 -18.41,146.96 -67.05,254.72 -39.03,86.87 -101.59,206.26 -184.94,365.21l-114.63 219.04c-61.06,118.42 -154.89,325.21 -256.48,568.47 -87.76,210.49 -181.06,447.59 -262.83,677.2 -46.87,131.63 -89.34,257.8 -123.97,371.37 -32.16,105.29 -60.35,207.76 -82.38,303.53l-20.26 87.58 -89.34 12.25c-320.01,43.61 -655.96,119.3 -994.91,195.6l-16.21 3.44c-165.38,37.27 -334.02,75.24 -526.97,113.84 -177.63,34.8 -359.66,74.8 -537.46,105.02 -454.37,87.84 -966.02,186.7 -1333.95,272.17l-215.69 51.46c-73.92,18.41 -143.97,37.27 -209.17,57.09 -69.43,21.06 -137.89,44.49 -205.82,71.63 -66.87,26.61 -134.36,57.45 -203.26,93.57l-11.1 5.82 -91.1 60.53 -223.18 157.45 -275.16 199.74c-71.72,53.22 -124.85,93.75 -136.39,104.32 -454.28,420.45 -669.36,1025.58 -764.69,1725.77 -97.71,717.73 -69.96,1537.31 -42.12,2363.23l0.44 13.04c12.51,374.37 25.2,750.77 25.2,1142.67 0,259.83 58.5,528.47 168.2,788.74 110.93,263.18 274.81,519.4 483.98,751.21 194.98,216.3 430.94,412.26 700.9,572.79 253.93,150.93 537.72,270.58 845.75,346.79 247.41,61.15 690.06,164.5 1199.77,274.98 377.98,82.03 785.83,166.61 1165.76,238.16 238.77,45.02 466.44,85.29 668.47,116.83 186.08,28.99 358.78,52.34 509.44,67.58l101.94 10.22 14.27 101.32c121.24,868.83 453.4,1390.52 723.81,1814.32l1.67 2.64c159.74,250.23 293.75,459.92 323.09,718.17 29.43,259.13 -50.4,546.53 -321.86,934.91l-56.12 80.35c-1305.23,1867.27 -2037.23,2914.43 -2102.17,3807.23 -63.97,878.52 528.12,1654.84 1867.8,2994.52 1423.65,1423.56 2250.28,2051.68 3097.7,2047.72 851.56,-3.96 1775.82,-643.63 3380,-1754.49l493.84 -341.24c434.99,-299.48 745.22,-394.99 1015.88,-374.99 274.37,20.26 487.85,154.19 743.54,314.46 208.2,130.58 440.1,275.87 726.98,402.65 284.85,126.08 625.65,234.54 1053.51,292.96l97.89 13.3 13.66 97.71c43.97,314.46 117.62,642.31 192.08,973.33l57.8 258.24 60.79 291.11 54.63 288.38 52.95 294.37c85.73,483.62 177.8,1002.76 316.57,1478.1 136.92,469.17 320.98,902.67 592,1229.99 447.68,540.37 1020.82,798.35 1701.28,913.15 698.26,117.71 1514.13,87.4 2422.97,53.57 217.98,-8.11 441.77,-16.56 684.16,-23 248.02,-6.61 498.78,-11.19 748.39,-11.19 249.35,0 500.28,-62.47 740.9,-176.04 253.13,-119.56 495.34,-295.87 712.79,-515.43 208.55,-210.67 396.22,-464.06 549.79,-747.42 147.32,-271.55 262.39,-569 334.11,-880.99l659.58 -3522.11 93.83 -12.42c433.23,-57.27 777.73,-166.08 1065.67,-292.78 289.79,-127.58 523.71,-274.1 733.15,-405.47 255.69,-160.27 469.35,-294.19 743.54,-314.46 270.67,-20 580.98,75.51 1015.88,374.99l535.96 370.85c1547.44,1072.8 2460.59,1705.86 3307.22,1721.1 842.14,15.24 1666.91,-582.48 3053.64,-1969.21 2745.44,-2745.27 2384.91,-3267.39 151.55,-6499.46l-355.34 -514.81c-110.4,-159.56 -192.96,-278.95 -250.05,-373.93 -65.82,-109.43 -100.62,-192.52 -105.29,-268.02 -8.9,-140.36 77.98,-326 248.9,-690.94 41.59,-124.94 164.15,-347.59 226.97,-478.51 114.8,-236.75 237.45,-489.7 344.94,-761.08 105.38,-264.68 194.81,-545.12 245.12,-840.99l16.74 -98.68 99.39 -9.34c181.41,-17.27 366.35,-47.23 551.03,-82.91 190.05,-36.74 371.02,-77.8 548.21,-117.98l10.48 -2.56c140.36,-31.63 279.57,-63.26 438.43,-94.98 232.78,-46.08 441.07,-81.85 651.03,-117.89l17.18 -2.91c529.26,-90.49 1069.81,-183.26 1557.84,-344.24 476.58,-157.01 903.81,-379.92 1221.18,-732.18 879.93,-976.59 832.36,-2391.69 778.08,-4011.99l-0.53 -4.05c-5.9,-190.4 -12.6,-383.53 -17.53,-589.88 -5.2,-216.66 -8.9,-432.96 -8.9,-645.04 0,-1038 -559.04,-1656.34 -1289.02,-2045.51 -750.06,-399.66 -1688.76,-565.3 -2401.29,-690.94l-7.14 -1.23c-148.99,-26.17 -287.23,-50.66 -402.65,-73.48 -215.25,-42.47 -423.27,-94.54 -624.95,-144.85l-12.16 -2.91c-339.48,-84.85 -663.81,-166.08 -1004.78,-200.18l-102.38 -10.31 -13.74 -101.76c-62.2,-458.6 -177.54,-812.88 -310.58,-1101.7 -132.95,-288.82 -286.26,-516.4 -421.95,-717.82 -159.03,-236.22 -289.08,-428.82 -301.77,-695.61 -12.34,-257.8 91.98,-563.8 400.89,-1012.98 129.96,-188.99 246,-360.89 355.87,-525.39l326.44 -492.96c150.49,-227.23 306.09,-462.57 456.84,-686.89 1678.02,-2496.45 892.8,-3281.76 -965.13,-5139.34l-51.37 -51.81c-1306.64,-1306.11 -2074.59,-1881.37 -2772.14,-1954.94 -688.21,-72.51 -1352.54,349.52 -2438.56,1039.23l-9.16 5.29c-349.79,222.74 -746.63,474.64 -1200.29,742.75 -129.52,76.39 -269.87,174.37 -412.17,273.75l-4.93 3.44c-175.07,122.38 -354.9,247.94 -522.22,337.37 -187.23,100.18 -362.74,155.42 -509,117.45 -90.05,-23.44 -202.3,-69.16 -328.29,-127.4 -120.53,-55.77 -257.72,-125.03 -400.8,-197.19l-5.99 -2.82c-329.35,-165.82 -689.27,-347.06 -1021.17,-450.32l-241.59 -73.57c-192.78,-57.89 -331.55,-99.74 -437.63,-149.87 -125.73,-59.12 -204.23,-128.46 -255.34,-236.13 -92.95,-196.22 -152.78,-540.37 -258.51,-1151.13l-0.35 -2.2c-36.65,-211.72 -78.86,-454.9 -127.05,-718.78 -51.54,-282.39 -112.69,-604.16 -186.97,-973.06 -104.94,-520.54 -236.22,-950.24 -397.19,-1304.79 -157.8,-347.59 -344.15,-621.25 -561.69,-836.67 -223.35,-220.45 -475.25,-378.34 -759.4,-489.97 -289.52,-113.75 -614.02,-180.97 -976.5,-218.42l-13.3 -1.41zm-18.68 635.43l-3424.05 0c-60.44,0 -133.57,12.95 -213.22,34.89 -95.07,25.99 -199.65,65.02 -305.12,110.93 -131.46,57.18 -258.6,122.91 -368.64,187.58 -116.74,68.64 -214.45,136.13 -277.36,190.84 -130.58,113.57 -258.95,315.25 -381.42,573.49 -145.11,305.73 -279.57,686.36 -399.75,1093.77 -161.5,548.21 -293.66,1136.5 -392.08,1664.89 -127.93,686.63 -199.21,1269.37 -205.03,1532.9l-9.08 404.42 -400.54 33.48c-512.52,42.47 -1275.89,403.89 -1921.81,709.53l-4.05 2.03c-226.53,107.14 -440.01,208.29 -628.3,289.17 -196.48,84.41 -372.43,150.14 -519.84,184.41l-188.02 43.53c-269.7,-180 -537.99,-362.12 -806.72,-543.54l-551.56 -376.22c-1468.14,-1004.17 -2315.04,-1583.48 -3055.76,-1621.98 -730.33,-37.97 -1404.44,455.87 -2543.15,1594.4 -1233.16,1233.33 -1773.61,1954.32 -1755.55,2708.44 18.24,760.72 600.9,1605.59 1611.67,3071.09l402.3 581.69c136.57,195.69 238.86,342.48 313.4,481.6 78.33,146.44 121.41,277.1 131.28,429.7 9.69,151.37 -16.12,285.65 -74.98,439.31 -53.83,140.88 -137.54,300.45 -248.73,512.61l-112.43 217.45c-55.86,107.84 -142.65,299.83 -237.45,527.5 -81.76,196.92 -169.43,420.27 -247.14,638.25 -60.79,170.75 -114.63,334.28 -152.87,471.82 -32.51,117.62 -54.54,218.07 -60.53,289.17l-31.37 378.25 -378.25 31.54c-359.57,29.78 -749.36,117.36 -1143.64,206.08l-9.6 2.47c-208.46,46.61 -417.19,93.83 -552.08,120.62 -177.98,34.63 -360.01,74.63 -538.16,104.41 -452.96,87.49 -963.9,186.17 -1315.8,267.76 -148.02,34.36 -281.42,65.46 -382.65,96.13 -51.46,15.68 -102.12,32.95 -151.9,52.86l-47.4 20 -102.73 49.78c-200.36,147.14 -404.77,289.61 -605.92,435.87 -341.15,321.51 -502.39,837.82 -572.88,1454.49 -73.48,641.6 -48.2,1389.29 -22.73,2142.61l0.18 5.29c13.92,414.28 28.02,829.27 28.02,1171.22 0,181.68 43.44,372.52 124.85,560.28 83.44,191.63 206.61,381.07 363.62,555.08 154.81,171.46 341.68,326.53 555.08,453.4 201.24,119.56 426.53,214.54 671.12,275.07 243.97,60.27 680.63,162.12 1182.76,271.2 372.61,80.79 774.29,164.06 1147.96,234.54 300.8,56.57 587.24,106.08 830.95,140.88 212.08,30.13 389.79,49.34 512.79,52.07l404.68 8.99 33.13 400.71c73.39,881.34 396.84,1388.05 655.08,1792.73l3.35 5.2c226.53,354.81 415.78,652.62 454.28,1015.09 38.86,364.77 -78.77,774.56 -471.11,1335.89l-58.59 83.61c-2306.75,3299.99 -2586.14,3701.94 -301.42,5986.67 2449.66,2449.49 2873.99,2155.91 5668.25,221.33l494.02 -341.33c606.45,-417.54 1038,-550.06 1413.52,-520.63 377.1,29.69 678.17,218.07 1038.44,443.98l2.56 1.59c393.05,246.17 883.72,553.76 1751.85,625.92l378.07 31.45 31.54 378.34c29.87,360.27 117.71,750.86 206.61,1145.76l3.17 12.69c46.17,207.05 93.13,414.72 119.56,546.89 34.45,172.07 70.57,375.6 107.76,585.21l2.2 12.51c78.68,444.42 163.35,921.34 283.8,1350.87 118.24,421.07 271.28,799.84 488.21,1061.7 347.32,419.31 835.26,618.52 1433.78,705.92 618.78,90.49 1356.77,63 2179.09,32.42 234.54,-8.72 475.43,-17.8 723.19,-24.67 254.54,-7.05 502.66,-11.98 731.65,-11.98 162.91,0 331.29,-44.85 496.14,-126.26 176.39,-87.05 349.17,-215.78 508.21,-376.49 167.85,-169.43 318.95,-373.4 442.39,-600.81 118.68,-219.74 212.43,-460.8 271.02,-713.94l745.3 -3981.42 339.74 -28.19c868.13,-72.16 1358.8,-379.75 1751.85,-625.92l1.94 -1.5c360.89,-226 661.95,-414.37 1039.06,-444.06 375.52,-29.43 807.16,103.09 1413.52,520.63 178.86,123.44 358.51,246.35 536.4,370.93 2690.11,1864.98 3174.35,2200.58 5551.15,-176.22 1196.59,-1196.59 1715.29,-1904.1 1687.88,-2649.41 -27.58,-753.06 -608.47,-1593.7 -1608.23,-3040.87l-355.52 -514.73c-299.04,-432.35 -446.97,-645.92 -466.97,-962.05 -19.12,-299.74 91.28,-535.52 308.91,-999.94l84.14 -181.94c38.68,-83.44 86.79,-182.56 136.13,-284.68l9.96 -19.82c237.19,-490.41 511.47,-1056.5 560.01,-1640.48l33.04 -400.71 404.77 -8.99c384.41,-8.46 818.88,-106.79 1233.95,-200.8l23.97 -5.64c175.33,-39.56 346,-78.24 444.15,-97.89 100.44,-20.09 213.93,-41.15 333.66,-62.38l351.9 -61.06c477.37,-81.76 965.13,-165.29 1393.07,-298.6 415.96,-129.61 777.9,-306.7 1021.17,-576.67 709.89,-787.6 666.36,-2084.02 616.58,-3567.84l-19.74 -637.11c-5.64,-223.09 -9.6,-435.34 -9.6,-621.43 0,-769.27 -475.69,-1239.77 -1096.86,-1544 -644.69,-315.78 -1453.25,-458.51 -2067.28,-566.71l-9.78 -2.11c-148.2,-25.73 -285.91,-50.13 -412.35,-75.24 -116.13,-22.91 -230.23,-48.46 -342.03,-74.89 -109.96,-25.9 -218.42,-53.13 -325.21,-79.83l-1.41 -0.35c-394.11,-98.5 -766.19,-191.46 -1134.21,-199.56l-404.77 -9.25 -33.04 -400.54c-38.59,-463.98 -138.51,-815.09 -259.92,-1096.5 -121.5,-281.5 -267.14,-497.63 -394.55,-686.8 -232.69,-345.29 -422.57,-627.15 -446.97,-999.23 -23.88,-364.94 118.68,-795.44 551.03,-1424.26 118.42,-172.25 230.75,-338.69 340.63,-503.27l357.54 -539.93c120.62,-182.65 246.7,-373.31 435.87,-654.55 1386.64,-2062.87 710.77,-2738.83 -888.04,-4337.47l-51.9 -51.81c-1126.55,-1126.55 -1785.33,-1624.18 -2375.3,-1692.91 -578.96,-67.14 -1135.62,286.17 -2045.43,864.07 -189.08,119.74 -387.23,245.64 -564.95,356.22 -202.21,125.82 -421.24,259.65 -661.78,401.6 -64.32,38.06 -126.08,77.89 -186.44,118.33l-191.02 131.81c-235.6,164.59 -476.93,333.22 -729,446.62 -265.65,119.74 -539.84,176.3 -823.46,102.47 -124.41,-32.34 -260.45,-85.91 -404.94,-151.46 -138.77,-62.91 -291.55,-139.83 -450.94,-220.18l-2.03 -1.23c-307.06,-154.45 -642.75,-323.44 -928.31,-412.26l-234.54 -71.19c-289.79,-87.23 -498.6,-150.14 -668.12,-248.9 -180.18,-104.85 -306.7,-242.91 -416.66,-474.81 -66.43,-139.92 -116.21,-305.65 -163.44,-520.63 -44.94,-203.71 -89.96,-463.8 -147.58,-796.41 -39.65,-229.34 -85.2,-491.73 -131.28,-745.83 -50.93,-280.45 -109.69,-591.2 -177.63,-928.75 -91.37,-453.23 -202.03,-823.63 -334.46,-1124.52 -129.25,-293.49 -278.69,-518.78 -451.11,-689.36 -160.8,-159.12 -349.35,-274.81 -566.71,-358.16 -220.8,-84.67 -471.73,-136.83 -753.94,-167.85zm-3424.05 -260.89c973.15,0 2541.21,-95.77 3442.11,1.06 308.47,33.3 584.07,90.4 828.48,184.15 250.4,95.95 469,230.58 657.64,417.19 195.78,193.66 363.71,445.3 506.09,768.83 139.12,316.13 255.16,704.25 350.76,1178.62 69.08,342.74 127.93,654.29 178.68,933.77 55.6,306.09 96.74,542.92 132.16,747.95 55.77,322.56 99.65,574.99 145.64,783.98 43.53,197.89 87.67,346.79 144.06,465.83 84.85,178.86 179.39,283.62 311.73,360.63 142.82,83.26 339.48,142.47 612.44,224.5l236.57 72.25c305.82,94.8 652,269.08 968.31,428.47l1.94 1.23c154.1,77.36 301.24,151.55 441.24,214.98 134.1,60.88 257.1,109.61 363.18,137.27 216.57,56.48 434.99,9.16 651.21,-88.11 230.75,-103.44 461.95,-264.94 687.15,-422.3l195.25 -134.81c67.84,-45.46 134.28,-88.46 198.51,-126.43 235.95,-139.21 453.93,-272.52 656.67,-398.69 226.7,-140.97 402.39,-252.52 562.92,-354.72 957.82,-608.91 1544.09,-980.99 2214.68,-903.11 659.75,76.74 1358.89,595.87 2530.2,1767.09l51.63 51.72c1705.33,1704.98 2426.23,2425.96 919.85,4666.72 -168.64,250.84 -304.59,456.49 -434.81,653.58l-358.6 540.98c-111.19,166.52 -224.41,334.28 -342.74,506.36 -394.28,573.41 -525.39,952.27 -505.12,1260.21 19.74,300.8 192.08,556.58 403.18,869.89 133.92,198.6 286.7,425.56 417.98,729.53 131.28,304.24 239.04,682.04 280.27,1177.91l13.92 167.49 168.99 3.88c400.89,8.9 785.31,105.02 1192.54,206.79l1.41 0.26c104.85,26.17 211.28,53.04 320.98,78.77 107.67,25.46 218.42,50.22 332.87,72.87 128.55,25.46 263,49.34 407.23,74.72l9.87 2.11c628.56,110.49 1456.25,256.48 2136.62,589.71 704.25,344.94 1243.56,884.69 1243.56,1777.4 0,211.81 3.44,416.57 8.55,615.43 5.29,206.7 12.69,422.57 19.74,634.55l0.53 4.14c51.37,1538.63 95.6,2882.27 -683.28,3746.53 -279.04,309.7 -680.37,508.65 -1137.39,650.94 -444.95,138.59 -941.08,223.71 -1426.73,306.7l-350.85 61.06c-109.43,19.56 -218.68,39.91 -327.59,61.59 -125.47,25.2 -279.48,60 -437.02,95.69l-23.08 5.55c-428.03,96.65 -875.09,198.07 -1287.96,207.05l-168.99 3.79 -13.92 167.58c-52.42,631.21 -338.25,1221 -585.65,1731.94l-9.69 20c-47.49,98.15 -93.75,193.49 -134.1,280.45l-85.99 184.85c-198.07,422.74 -298.6,637.64 -283.71,871.83 15.33,241.77 146.96,434.46 412.87,818.7l363.71 526.62c1027.07,1486.65 1623.74,2350.19 1654.23,3179.46 30.75,837.03 -511.38,1591.14 -1763.3,2843.07 -2529.67,2529.67 -3041.57,2175.91 -5881.64,206.97 -178.51,-125.03 -358.78,-248.38 -538.16,-372.26 -549.44,-378.42 -927.78,-499.57 -1245.32,-474.64 -315.78,24.58 -592.17,197.89 -923.37,405.56l-2.03 1.41c-417.98,261.5 -939.05,587.24 -1866.39,664.51l-141.94 11.72 -710.33 3794.19c-64.5,279.13 -166.79,543.19 -296.31,781.96 -135.86,249.43 -301.95,473.23 -486.8,660.1 -178.95,180.71 -375.34,326.44 -577.55,426.27 -201.06,99.12 -408.2,153.84 -611.38,153.84 -251.11,0 -492.17,4.49 -724.6,10.93 -239.04,6.61 -483.45,15.86 -721.08,24.67 -836.06,31.1 -1586.3,59.03 -2226.05,-34.45 -659.93,-96.39 -1201.97,-320.98 -1596.78,-797.64 -243,-293.31 -411.02,-704.51 -538.08,-1157.47 -124.76,-444.42 -210.23,-926.81 -289.79,-1376.25l-2.2 -12.51c-35.68,-201.24 -70.4,-396.22 -106.96,-579.22 -32.25,-161.33 -75.24,-351.73 -118.06,-541.78l-2.47 -10.75c-91.37,-406.53 -181.85,-808.13 -212.87,-1182.23l-13.13 -158.24 -158.07 -13.13c-927.34,-77.27 -1448.41,-403.01 -1865.77,-664.42l-2.64 -1.5c-331.11,-207.58 -607.59,-380.98 -922.84,-405.56 -318.07,-24.93 -696.14,96.13 -1245.85,474.64l-497.72 343.89c-2946.24,2039.79 -3394.8,2348.6 -5996.8,-253.31 -2439.53,-2439.44 -2145.43,-2860.34 275.16,-6323.33l56.3 -80.27c351.02,-502.13 457.54,-855.97 425.3,-1159.5 -32.34,-304.24 -207.93,-579.57 -417.72,-907.86l-3.44 -5.29c-273.84,-429.17 -614.29,-966.19 -692.53,-1905.95l-13.92 -167.58 -168.99 -3.79c-137.27,-3 -325.29,-22.91 -544.6,-54.19 -246.79,-35.24 -537.28,-85.46 -841.96,-142.73 -387.85,-73.04 -789.71,-156.3 -1155.27,-235.51 -494.37,-107.32 -936.76,-210.84 -1189.9,-273.31 -270.49,-66.96 -519.4,-171.81 -741.43,-303.71 -237.1,-140.88 -444.42,-312.96 -616.23,-503.27 -175.51,-194.37 -313.84,-407.85 -408.38,-625.48 -96.04,-222.03 -147.32,-448.03 -147.32,-664.16 0,-364.59 -13.57,-763.54 -26.96,-1161l-0.18 -5.29c-25.82,-765.83 -51.46,-1524.88 23.79,-2182.43 77.53,-678.17 262.74,-1252.01 663.01,-1622.68 124.94,-118.59 391.73,-283.44 544.07,-392.34l-8.81 -14.8 122.29 -63.88c59.56,-31.1 116.48,-57.18 171.37,-78.86 56.48,-21.94 113.84,-41.59 172.25,-59.38 118.15,-35.77 251.72,-66.87 400.01,-101.32 360.01,-83.53 871.48,-182.38 1324.97,-269.87 177.45,-29.6 358.95,-69.87 536.14,-104.41 161.94,-32.25 353.84,-75.68 545.48,-118.77l8.11 -2.2c406,-90.84 807.24,-181.24 1181.17,-212.25l158.15 -13.13 13.13 -158.24c7.05,-85.99 32.42,-202.56 69.69,-336.92 41.15,-148.2 96.57,-316.84 157.89,-489.18 79.12,-221.94 168.55,-450.06 252.34,-651.65 96.74,-232.52 187.14,-431.64 246.61,-546.71l112.51 -217.27c106.35,-202.47 186,-354.37 236.39,-486.18 45.55,-119.12 65.73,-220.36 58.59,-330.4 -7.14,-111.9 -40.27,-210.67 -100.8,-323.62 -64.41,-120.44 -164.32,-263.97 -297.54,-455.17l-402.65 -582.75c-1038.7,-1506.12 -1637.57,-2374.16 -1657.57,-3212.86 -20.26,-845.31 543.63,-1611.41 1830.88,-2898.93 1195.27,-1195.1 1916.35,-1712.64 2740.77,-1669.73 814.38,42.38 1683.13,636.58 3189.42,1666.83l550.5 376.22 711.47 479.57 78.5 -18.33c130.58,-30.4 292.43,-91.19 475.96,-170.05 191.37,-82.29 400.45,-181.33 622.13,-286.26l4.05 -2.03c665.39,-314.72 1451.31,-686.54 2009.39,-732.88l167.49 -14.01 3.7 -169.08c6.17,-276.04 78.94,-875.97 209.08,-1574.84 100,-536.75 234.19,-1134.3 398.34,-1691.41 123.79,-419.83 262.91,-813.15 413.93,-1131.39 137.1,-288.82 286.53,-519.66 446.71,-659.05 73.92,-64.14 185.29,-141.5 316.04,-218.42 119.83,-70.4 256.57,-141.24 396.13,-201.94 114.19,-49.6 230.4,-92.87 339.83,-122.91 103,-28.46 199.56,-45.2 282.47,-45.2z"/>
     <path class="fil1" d="M4412.71 23641.3l0 32432c0,419.04 100.35,820.64 283.62,1187.25 189.87,379.75 469.79,724.34 820.02,1014.21 356.13,294.72 784.34,532.88 1264.88,695 461.86,155.86 973.42,242.12 1517.57,242.12l57689.81 0c544.77,0 1057.3,-86.08 1520.04,-242.12 480.72,-161.94 909.19,-399.66 1265.49,-694.47 348.64,-288.55 627.68,-632.44 817.47,-1013.06 182.82,-366.79 283.09,-768.74 283.09,-1188.93l0 -32432c0,-368.38 -91.02,-744.34 -250.49,-1101.97 -169.34,-379.75 -415.61,-739.4 -712,-1048.66 -291.81,-304.59 -630.5,-558.6 -989.89,-732.88 -334.55,-162.21 -687.51,-255.25 -1036.94,-255.25l-4483.64 0c-53.04,0 -111.1,18.5 -169.34,51.01 -67.58,37.89 -134.81,94.54 -196.3,164.41 -37.8,43 -71.98,89.08 -101.41,137.1 -30.04,49.08 -56.3,100.62 -77.27,153.31l-9.87 24.85c-16.3,44.67 -29.52,92.25 -39.3,141.77 -10.57,54.36 -16.39,110.58 -16.39,167.67 0,109.34 23.35,221.33 75.68,329.61 48.9,100.8 123.26,199.56 227.94,291.55 204.23,179.21 523.98,250.14 904.08,266.61 400.01,17.45 865.04,-25.82 1335.36,-69.61 222.12,-20.62 445.12,-41.5 643.72,-55.68 215.69,-15.24 427.06,-25.73 626.8,-25.73 711.65,0 1362.32,108.81 1842.34,491.82 482.57,385.03 782.66,1037.21 782.66,2116.35l0 30339.44c0,300.8 -21.15,590.41 -72.42,858.61 -52.07,272.43 -136.3,522.92 -261.68,740.02 -141.06,244.15 -327.67,442.39 -570.32,580.1 -240.62,136.74 -533.93,212.43 -888.92,212.43l-58586.75 0c-354.9,0 -648.03,-75.6 -888.92,-212.43 -242.56,-137.71 -429.17,-335.96 -570.23,-580.1 -125.47,-217.19 -209.52,-467.41 -261.77,-740.02 -51.28,-268.2 -72.42,-557.81 -72.42,-858.61l0 -30339.44c0,-1079.15 300.1,-1731.32 782.75,-2116.35 479.84,-383.01 1130.6,-491.82 1842.25,-491.82 397.54,0 835.97,41.06 1269.9,81.32l3.08 0.35c469.62,43.61 933.59,86.79 1332.9,69.34 380.1,-16.48 699.84,-87.4 903.55,-266.61 105.2,-91.98 179.56,-190.75 228.46,-291.55 52.34,-108.28 75.68,-220.27 75.68,-329.61 0,-57.27 -5.9,-113.75 -16.56,-168.29 -11.37,-58.42 -28.11,-114.45 -48.99,-166.79 -20.88,-52.95 -46.96,-104.23 -76.92,-153.13 -21.94,-35.77 -45.9,-70.05 -71.54,-102.12l-30.22 -34.36c-61.5,-69.87 -128.73,-126.52 -196.3,-164.41 -58.24,-32.51 -116.3,-51.01 -169.34,-51.01l-4483.81 0c-349.44,0 -702.31,93.13 -1036.85,255.25 -359.3,174.28 -697.99,428.29 -989.8,732.88 -296.4,309.26 -542.66,668.92 -712,1048.66 -159.48,357.63 -250.49,733.59 -250.49,1101.97zm-260.89 32432l0 -32432c0,-405.03 99.47,-816.94 273.84,-1207.96 181.59,-407.23 445.12,-792.18 762.13,-1123.02 312.7,-326.26 676.67,-598.96 1064.08,-786.89 369.26,-179.04 760.64,-281.77 1149.98,-281.77l4483.81 0c98.68,0 200,30.57 296.66,84.67 60.62,34.01 119.91,77.62 175.95,128.81l5.73 -4.76 83.7 95.42c46.7,53.04 89.52,111.28 127.4,173.22 36.65,59.74 69.25,124.06 96.13,191.81 27.75,68.99 49.52,140.88 63.7,213.57 13.83,71.19 21.5,144.32 21.5,218.24 0,146.26 -31.45,296.48 -102.21,442.74 -63.35,130.49 -158.33,257.28 -290.84,374.02 -254.63,224.32 -628.39,311.99 -1064.26,330.93 -415.87,18.15 -890.07,-25.99 -1370.08,-70.66l-3.17 -0.35c-421.95,-39.3 -848.3,-78.94 -1243.91,-78.94 -659.14,0 -1256.07,96.21 -1680.31,434.72 -421.68,336.48 -683.81,923.72 -683.81,1912.47l0 30339.44c0,286.53 19.65,560.1 67.49,809.8 47.05,245.56 121.32,468.47 231.02,658.34 118.59,205.29 273.75,371.02 473.4,484.33 201.5,114.45 451.99,177.71 760.55,177.71l58586.75 0c308.55,0 559.13,-63.26 760.55,-177.71 199.65,-113.31 354.99,-279.04 473.49,-484.33 109.69,-189.87 183.97,-412.96 230.93,-658.34 47.84,-249.7 67.49,-523.27 67.49,-809.8l0 -30339.44c0,-988.75 -262.12,-1575.99 -683.72,-1912.47 -424.42,-338.69 -1021.26,-434.72 -1680.39,-434.72 -197.1,0 -401.51,9.87 -608.39,24.58 -224.32,15.95 -432.26,35.51 -638.69,54.72 -479.75,44.67 -954.12,88.81 -1370.08,70.66 -435.87,-18.94 -809.62,-106.61 -1064.43,-330.76 -132.25,-116.74 -227.32,-243.71 -290.67,-374.19 -70.75,-146.26 -102.21,-296.48 -102.21,-442.74 0,-73.57 7.58,-146.52 21.41,-217.63 14.1,-71.72 35.6,-143.35 63.17,-212.6l52.25 -131.63 7.67 3.79 37.09 -64.94c38.68,-63.09 81.76,-121.59 127.76,-173.84 80.35,-91.37 170.93,-166.88 264.76,-219.48 96.65,-54.1 197.98,-84.67 296.66,-84.67l4483.64 0c389.44,0 780.9,102.73 1150.07,281.77 387.59,187.93 751.65,460.63 1064.17,786.89 317.01,330.85 580.54,715.79 762.13,1123.02 174.37,391.02 273.84,802.93 273.84,1207.96l0 32432c0,461.51 -110.05,902.67 -310.67,1305.23 -206.08,413.31 -508.03,785.83 -884.69,1097.56 -379.92,314.28 -836.58,567.77 -1348.93,740.37 -489.88,165.11 -1030.42,256.31 -1602.68,256.31l-57689.81 0c-571.73,0 -1111.22,-91.28 -1600.22,-256.31 -512.17,-172.87 -968.57,-426.62 -1348.4,-740.9 -376.93,-311.99 -679.4,-685.13 -886.1,-1098.71 -201.77,-403.62 -312.25,-844.51 -312.25,-1303.56zm-635.61 0l0 -32432c0,-486.88 116.48,-978.61 320.36,-1442.5 213.13,-484.51 522.39,-939.76 894.3,-1327.96 370.85,-386.71 806.63,-709.89 1274.92,-932.27 444.86,-211.28 919.32,-332.43 1396.07,-332.43l4483.81 0c189.34,0 377.37,49.87 552.79,138.59 179.04,90.49 344.94,221.86 485.39,381.51l32.51 36.92 0 2.47c56.65,68.2 109.78,142.65 158.24,221.86 55.42,90.57 104.41,188.11 145.29,290.4 42.82,107.49 76.48,218.68 98.68,330.58 21.67,109.43 33.39,221.5 33.39,334.19 0,234.63 -48.02,473.84 -156.74,703.98 -98.33,208.38 -246.09,408.64 -451.99,589.53 -355.87,312.87 -813.15,442.57 -1324,479.75 -492.61,36.04 -1036.24,-14.45 -1586.3,-65.73l-2.2 -0.18c-395.69,-36.74 -795.7,-74.01 -1188.75,-74.01 -484.51,0 -922.58,69.96 -1231.66,315.87 -306.44,243.97 -496.84,672.26 -496.84,1395.72l0 30339.44c0,237.1 14.19,459.92 48.64,657.37 33.48,191.81 85.99,359.83 162.91,493.05 61.24,105.99 143.79,191.81 252.08,250.23 112.07,60.53 254.54,94.01 433.23,94.01l58586.75 0c178.59,0 321.15,-33.48 433.23,-94.01 108.28,-58.42 190.84,-144.23 252.08,-250.23 77.01,-133.22 129.43,-301.24 162.91,-493.05 34.45,-197.45 48.64,-420.27 48.64,-657.37l0 -30339.44c0,-723.45 -190.4,-1151.75 -496.84,-1395.72 -309.08,-245.91 -747.16,-315.87 -1231.66,-315.87 -392.17,0 -791.83,37.09 -1186.9,73.75l-3.08 0.35c-550.32,51.28 -1094.21,101.85 -1587.26,65.99 -510.85,-37.36 -968.04,-167.05 -1324,-479.92 -206,-181.06 -353.67,-381.07 -452.08,-589.53 -108.64,-230.14 -156.66,-469.35 -156.66,-703.98 0,-112.6 11.72,-224.76 33.39,-334.19 20.44,-103.35 50.75,-205.91 88.9,-305.73l9.69 -26.61c40.62,-101.32 89.78,-198.77 145.47,-290.05 56.92,-92.95 121.32,-180.18 190.67,-259.3 140.53,-160.27 306.35,-291.55 485.39,-382.04 175.42,-88.72 363.45,-138.59 552.79,-138.59l4483.64 0c476.84,0 951.39,121.15 1396.25,332.43 468.38,222.38 904.08,545.56 1274.92,932.27 371.9,388.2 681.16,843.46 894.12,1328.14 204.06,463.71 320.54,955.44 320.54,1442.33l0 32432c0,558.08 -131.1,1090.25 -370.41,1574.66 -246,498.07 -606.36,945.05 -1055.8,1317.04 -435.87,360.71 -956.94,651.38 -1538.89,849.36 -557.11,189.43 -1170.07,294.1 -1817.49,294.1l-57689.81 0c-647.06,0 -1258.89,-104.94 -1814.94,-294.19 -582.04,-198.15 -1102.76,-489.35 -1538.28,-849.8 -450.41,-372.7 -811.3,-820.2 -1057.82,-1318.09 -240.09,-484.95 -371.55,-1017.03 -371.55,-1573.08zm260.98 -32432l0 32432c0,515.87 121.68,1008.92 343.97,1457.83 229.79,464.24 567.77,882.84 990.51,1232.54 411.82,340.8 904.6,616.23 1455.63,803.9 529.09,180.18 1112.89,280.01 1731.5,280.01l57689.81 0c619.13,0 1203.82,-99.65 1733.96,-279.92 551.12,-187.41 1044.26,-462.39 1456.25,-803.46 421.86,-349.08 759.31,-767.07 988.57,-1231.48 221.5,-448.38 342.83,-941.52 342.83,-1459.42l0 -32432c0,-449.88 -108.28,-905.93 -297.89,-1337.48 -200.62,-457.1 -492.26,-886.37 -843.28,-1252.63 -349.35,-364.5 -758.96,-668.47 -1198.44,-877.2 -410.76,-195.07 -847.69,-306.97 -1285.23,-306.97l-4483.64 0c-148.02,0 -296.22,39.56 -435.43,109.96 -148.46,75.07 -287.58,185.64 -406.97,321.42 -60,67.75 -115.25,142.91 -164.32,223.18 -43.97,71.9 -83.17,148.37 -116.48,227.94l-9.6 24.14c-35.86,90.31 -64.67,185.91 -84.23,284.76 -18.41,92.95 -28.37,188.37 -28.37,284.24 0,198.6 40.27,400.19 131.19,592.97 83.35,176.66 210.4,347.94 388.82,504.77 306.88,269.7 712.35,382.3 1170.25,415.78 475.08,34.71 1006.02,-14.63 1542.86,-64.67l3.17 -0.35c407.15,-37.62 818.7,-76.04 1212.81,-76.04 536.93,0 1028.75,82.47 1393.6,372.87 367.5,292.52 595.79,785.66 595.79,1599.6l0 30339.44c0,250.31 -15.33,487.94 -52.78,702.31 -38.42,220.09 -100.8,416.57 -194.45,578.52 -84.94,146.96 -200.53,266.35 -353.93,349.17 -149.61,80.88 -333.14,125.55 -556.58,125.55l-58586.75 0c-223.44,0 -406.97,-44.67 -556.58,-125.55 -153.4,-82.82 -268.99,-202.21 -353.93,-349.17 -93.57,-161.94 -156.04,-358.42 -194.45,-578.52 -37.45,-214.37 -52.78,-451.99 -52.78,-702.31l0 -30339.44c0,-813.94 228.29,-1307.08 595.79,-1599.6 364.85,-290.4 856.67,-372.87 1393.6,-372.87 393.58,0 804.51,38.15 1211.22,75.95l2.2 0.26c537.81,50.05 1069.63,99.56 1545.41,64.76 457.9,-33.39 863.55,-145.99 1170.25,-415.69 178.33,-156.74 305.29,-328.11 388.73,-504.77 91.02,-192.78 131.28,-394.37 131.28,-592.97 0,-95.86 -9.96,-191.28 -28.37,-284.24 -19.65,-98.86 -48.37,-194.45 -84.32,-284.76 -34.71,-86.96 -77.27,-171.19 -125.91,-250.76 -48.37,-79.3 -103.79,-154.37 -164.41,-223.18l-32.6 -37.09c-111.81,-119.39 -239.21,-217.27 -374.37,-285.65 -139.21,-70.4 -287.41,-109.96 -435.43,-109.96l-4483.81 0c-437.46,0 -874.29,111.9 -1285.05,306.97 -439.48,208.73 -849.1,512.7 -1198.44,877.2 -351.02,366.26 -642.66,795.53 -843.28,1252.1 -189.61,432.08 -297.89,888.13 -297.89,1338.01z"/>
    </g>
    <ellipse class="fil0 str0" cx="37143.65" cy="25007.48" rx="7008.44" ry="6949.04"/>
    <ellipse class="fil2" cx="37143.65" cy="25007.48" rx="2817.82" ry="2793.93"/>
   </g>
   <path class="fil1" d="M30685.52 60765.04l12916.36 0c584.51,0 1117.3,239.83 1504.44,626.09l2.03 2.03c386.35,387.23 626.01,919.93 626.01,1504.44 0,584.51 -239.83,1117.3 -626.01,1504.44l-2.03 1.94c-387.15,386.27 -919.93,626.09 -1504.44,626.09l-12916.36 0c-584.51,0 -1117.21,-239.74 -1504.44,-626.09l-2.03 -1.94c-386.18,-387.15 -626.01,-919.93 -626.01,-1504.44 0,-584.51 239.65,-1117.21 626.01,-1504.44l2.03 -2.03c387.23,-386.35 919.93,-626.09 1504.44,-626.09zm12916.36 1043.64l-12916.36 0c-300.27,0 -572.35,122.03 -768.65,318.33l-1.94 1.94c-196.3,196.3 -318.33,468.38 -318.33,768.65 0,300.1 122.03,572.26 318.33,768.57l1.94 2.03c196.3,196.3 468.38,318.25 768.65,318.25l12916.36 0c300.18,0 572.35,-121.94 768.65,-318.25l1.94 -2.03c196.3,-196.3 318.33,-468.47 318.33,-768.57 0,-300.27 -122.03,-572.35 -318.33,-768.65l-1.94 -1.94c-196.3,-196.3 -468.47,-318.33 -768.65,-318.33z"/>
   <path class="fil1" d="M22724 65511.33l28839.31 0c796.06,0 1520.21,326 2045.34,851.03l3.17 0c525.04,525.04 851.03,1250.25 851.03,2048.33 0,798.61 -326,1523.83 -851.03,2048.86l-3.17 0c-525.12,525.04 -1249.28,851.03 -2045.34,851.03l-28839.31 0c-796.06,0 -1520.21,-326 -2045.43,-851.03l-3.08 0c-525.04,-525.04 -851.03,-1250.25 -851.03,-2048.42 0,-798.52 326,-1523.74 851.03,-2048.77l3.08 0c525.21,-525.04 1249.37,-851.03 2045.43,-851.03zm28839.31 1565.33l-28839.31 0c-367.23,0 -701.16,149.78 -943.2,390.93l1.5 1.59c-242.12,242.12 -392.43,575.52 -392.43,941.52 0,366.44 150.31,699.84 392.43,941.96l-1.5 1.59c242.03,241.15 575.96,390.93 943.2,390.93l28839.31 0c367.23,0 701.07,-149.78 943.2,-390.93l-1.5 -1.59c242.03,-242.12 392.43,-575.52 392.43,-941.52 0,-366.44 -150.4,-699.84 -392.43,-941.96l1.5 -1.59c-242.12,-241.15 -575.96,-390.93 -943.2,-390.93z"/>
  </g>
 </g>
</svg>
