<?xml version="1.0" encoding="UTF-8"?>
<!DOCTYPE svg PUBLIC "-//W3C//DTD SVG 1.1//EN" "http://www.w3.org/Graphics/SVG/1.1/DTD/svg11.dtd">
<!-- Creator: CorelDRAW 2020 (64-Bit) -->
<svg xmlns="http://www.w3.org/2000/svg" xml:space="preserve" width="84.314mm" height="84.314mm" version="1.1" style="shape-rendering:geometricPrecision; text-rendering:geometricPrecision; image-rendering:optimizeQuality; fill-rule:evenodd; clip-rule:evenodd"
viewBox="0 0 8096.88 8096.88"
 xmlns:xlink="http://www.w3.org/1999/xlink"
 xmlns:xodm="http://www.corel.com/coreldraw/odm/2003">
 <defs>
  <style type="text/css">
   <![CDATA[
    .str1 {stroke:#093C86;stroke-width:96.03;stroke-miterlimit:22.9256}
    .str2 {stroke:#093C86;stroke-width:72.02;stroke-miterlimit:22.9256}
    .str0 {stroke:#093C86;stroke-width:144.05;stroke-miterlimit:22.9256}
    .fil0 {fill:none}
    .fil1 {fill:#093C86;fill-rule:nonzero}
   ]]>
  </style>
 </defs>
 <g id="Слой_x0020_1">
  <metadata id="CorelCorpID_0Corel-Layer"/>
  <rect class="fil0" transform="matrix(2.64845E-14 -2.0084 1 5.31916E-14 -0.000689681 8096.88)" width="4031.5" height="8096.88"/>
  <path class="fil1" d="M6235.76 3704.57c34.03,-24.3 123.96,-73.71 216.18,-120.75 95.39,-48.66 195.37,-96.04 239.99,-111.41 47.93,-32.07 172.94,-102.14 303.35,-172.18 161.79,-86.89 335.24,-176.74 376.97,-193.21l84.49 -41.56 -275.35 -502.62c-116.79,53.48 -341.19,173.16 -559.69,289.67 -261.08,139.23 -513.93,274.07 -575.69,291.36l-37.98 10.64 -17.73 -35.22c-19.61,-38.98 -57.18,-85.11 -94.55,-131.02 -16.51,-20.26 -33,-40.52 -50.23,-63.21 -23.75,-31.25 -50.24,-66.58 -80.7,-107.18 -125.98,-167.98 -316.03,-421.42 -385.4,-491.38l-25.33 -25.56 17.46 -31.46c34.92,-62.92 186.44,-255.5 332.21,-440.81 136.27,-173.19 267.48,-339.97 286.54,-377.51l17.87 -35.18 37.84 10.6c80.26,22.48 171.29,74.73 247.3,118.36 24.33,13.96 47.14,27.07 64.85,36.57l825.1 424 137.57 -243.82 -0.13 -0.07 15.07 -29.6c39.1,-76.86 76.62,-150.63 120.07,-227.57l-82.72 -40.69c-40.1,-15.5 -214.66,-105.91 -377.53,-193.38 -130.51,-70.09 -255.66,-140.25 -303.63,-172.35 -44.66,-15.36 -144.58,-62.72 -239.92,-111.35 -92.25,-47.05 -182.23,-96.5 -216.27,-120.81 -39.04,-14.93 -95.95,-46.56 -157.8,-80.93 -70.19,-39 -147.19,-81.79 -204.09,-103.56 -66.93,73.65 -229.45,284.43 -367.24,463.14 -85.8,111.28 -162.09,210.24 -201.62,258.14 -22.31,27.04 -43.93,55.88 -65.52,84.69 -43.48,58 -86.93,115.97 -136.48,161.64l-13.5 12.45 -530.23 3.16 3.24 332.59 -1345.59 6.66 0 568.57 1349.68 0.4 -4.56 51.94c-4.42,50.46 -4.26,99.46 -4.11,148.42 0.08,24.35 0.15,48.74 -0.25,72.86 -0.28,16.17 -0.72,28.45 -1.1,39.09 -0.83,23.04 -8.2,27.39 -4.74,31.41 4.59,5.33 11.01,-5.59 44.75,-6.11l9.77 -0.14c112.26,-1.6 224.84,-1.41 337.37,-1.21 15.98,0.02 -32.01,-0.06 111.94,-0.06l5.21 0 5.1 1.12c56.19,12.37 260.52,279.7 459.15,539.64 141.93,185.71 280.86,367.51 348.24,439.47 57.05,-21.74 134.41,-64.74 204.87,-103.89 61.78,-34.32 118.59,-65.91 157.53,-80.81zm259.7 -35.22c-95.57,48.76 -186.09,98.15 -206.33,114.74l-6.69 5.49 -7.93 2.76c-31.38,10.9 -87.93,42.33 -149.76,76.69 -86.78,48.23 -183.44,101.95 -250.98,121.27l-25.53 7.3 -19.86 -18.18c-63.64,-58.3 -219.67,-262.46 -379.41,-471.48 -182.37,-238.63 -369.76,-483.84 -401.15,-502.86 -57.82,-0.01 -17.15,-0.18 -104.1,-0.33 -112.02,-0.19 -224.1,-0.38 -336.24,1.21l-9.77 0.14c-64.24,0.99 -93.98,1.41 -118.66,-27.27 -20.76,-24.12 -19.83,-49.64 -18.13,-97.06 0.41,-11.44 0.89,-24.48 1.1,-37.2 0.39,-23.88 0.32,-47.63 0.25,-71.36 -0.11,-35.11 -0.22,-70.25 1.02,-104.74l-1342.41 -0.41 0 -759.36 1345.04 -6.65 -3.23 -332.5 588.39 -3.5c38.89,-38.69 75.38,-87.36 111.88,-136.06 22.47,-29.99 44.97,-59.99 68.14,-88.07 37.55,-45.49 113.9,-144.53 199.76,-255.89 156.15,-202.52 343.59,-445.65 397.32,-494.96l19.87 -18.24 25.71 7.36c67.43,19.28 163.97,72.95 250.71,121.14 61.9,34.4 118.55,65.88 150.03,76.82l7.93 2.76 6.69 5.49c20.24,16.6 110.82,66.02 206.42,114.79 94.7,48.3 192.12,94.67 229.53,106.9l14.16 4.63 9.09 11.88c3.78,4.95 142.64,80.85 292.62,161.4 163.93,88.03 337.49,178.26 366.48,188.43l2.4 0.84c59.98,29.69 120.13,59.11 180.2,88.64l-26.03 44.4c-50.89,86.77 -95.67,174.79 -142.71,267.27l-15.07 29.6 -1.12 1.68 -183.8 325.74c-270.21,-138.76 -641.78,-359.4 -908.52,-466.65 -21.95,-11.78 -43.78,-24.33 -67.1,-37.7 -60.27,-34.59 -130.57,-74.94 -192.16,-98.25 -48.89,71.39 -159.87,212.44 -274.36,357.97 -124.73,158.55 -253.71,322.5 -305.75,399.24 86.17,97.62 253.23,320.38 367.92,473.32 33.33,44.44 62.48,83.31 80.33,106.8 13.64,17.95 30.98,39.24 48.35,60.58 30.17,37.06 60.47,74.26 83.96,110.57 89.57,-39.37 303.16,-153.27 522.7,-270.35 249.34,-132.97 506.29,-270 607.6,-311.14l39.44 -16.02 365.04 666.33c-59.42,29.23 -118.8,58.56 -178.27,87.7l-3.04 1.08c-28.99,10.19 -202.76,100.52 -366.78,188.6 -149.86,80.48 -288.54,156.28 -292.32,161.23l-9.08 11.86 -14.18 4.65c-37.37,12.22 -134.88,58.63 -229.62,106.96z"/>
  <ellipse class="fil0 str0" cx="1838.07" cy="2262.54" rx="1034.02" ry="1027.4"/>
  <ellipse class="fil0 str0" cx="1827.56" cy="2286.78" rx="368.12" ry="365.77"/>
  <path class="fil0 str1" d="M1438.04 3210.23l209.62 553.71 101.07 267 596.47 1575.57 1575.34 0 -1174.37 -2852.19c0,0 -400.96,734.81 -1308.13,455.91z"/>
  <rect class="fil0 str0" x="630.14" y="6093.5" width="6953.54" height="1347.07" rx="262.6" ry="262.6"/>
  <rect class="fil0 str2" x="1142.55" y="6551.28" width="5928.7" height="431.51" rx="223.9" ry="84.12"/>
  <line class="fil0 str0" x1="2252.13" y1="3819.41" x2="1697.37" y2= "3815.18" />
  <line class="fil0 str0" x1="3288.94" y1="4103.85" x2="2501.16" y2= "4099.62" />
 </g>
</svg>
