<?xml version="1.0" encoding="UTF-8"?>
<!DOCTYPE svg PUBLIC "-//W3C//DTD SVG 1.1//EN" "http://www.w3.org/Graphics/SVG/1.1/DTD/svg11.dtd">
<!-- Creator: CorelDRAW 2020 (64-Bit) -->
<svg xmlns="http://www.w3.org/2000/svg" xml:space="preserve" width="84.314mm" height="84.314mm" version="1.1" style="shape-rendering:geometricPrecision; text-rendering:geometricPrecision; image-rendering:optimizeQuality; fill-rule:evenodd; clip-rule:evenodd"
viewBox="0 0 69185.89 69185.89"
 xmlns:xlink="http://www.w3.org/1999/xlink"
 xmlns:xodm="http://www.corel.com/coreldraw/odm/2003">
 <defs>
  <style type="text/css">
   <![CDATA[
    .str0 {stroke:#093C86;stroke-width:820.57;stroke-miterlimit:22.9256}
    .fil0 {fill:none}
    .fil2 {fill:#093C86}
    .fil3 {fill:white}
    .fil1 {fill:#093C86;fill-rule:nonzero}
    .fil4 {fill:white;fill-rule:nonzero}
   ]]>
  </style>
 </defs>
 <g id="Слой_x0020_1">
  <metadata id="CorelCorpID_0Corel-Layer"/>
  <rect class="fil0" transform="matrix(2.64845E-14 -2.0084 1 5.31916E-14 -0.00591497 69185.9)" width="34448.2" height="69185.89"/>
  <g id="_93045097808">
   <path class="fil1" d="M34427.27 3012.41c6726.9,0 12817.62,2850.02 17226.81,7457.95 4402.38,4600.71 7125.37,10952.2 7125.37,17963.85 0,7011.64 -2722.99,13363.13 -7125.37,17963.85 -4409.19,4607.93 -10499.9,7457.95 -17226.81,7457.95 -6726.9,0 -12817.62,-2850.02 -17226.81,-7457.95 -4402.38,-4600.71 -7125.37,-10952.2 -7125.37,-17963.85 0,-7011.64 2722.99,-13363.13 7125.37,-17963.85 4409.19,-4607.93 10499.9,-7457.95 17226.81,-7457.95zm16342.06 8304.13c-4181.81,-4370.21 -9959.64,-7073.27 -16342.06,-7073.27 -6382.43,0 -12160.25,2703.05 -16342.06,7073.27 -4188.46,4377.19 -6779.26,10429.09 -6779.26,17117.67 0,6688.58 2590.8,12740.48 6779.26,17117.67 4181.81,4370.21 9959.64,7073.27 16342.06,7073.27 6382.43,0 12160.25,-2703.05 16342.06,-7073.27 4188.46,-4377.19 6779.26,-10429.09 6779.26,-17117.67 0,-6688.58 -2590.8,-12740.48 -6779.26,-17117.67z"/>
   <path class="fil1" d="M34427.44 9356.68c5311.49,0 10118.42,2360.71 13596.26,6177.2 3468.4,3806.15 5613.79,9061.52 5613.79,14863.47 0,3403.41 -739.01,6619.57 -2050.45,9466.06 -1363.22,2958.5 -3344.66,5516.23 -5757.56,7468.29l-165.26 133.59 -204.98 -58.26c-1709.42,-486.27 -3559.9,-867.18 -5512.13,-1123.45 -1889.45,-247.98 -3885.67,-380.58 -5954.09,-380.58 -1933.19,0 -3808.53,116.77 -5596.97,336.27 -1847.69,226.72 -3600.27,562.09 -5226.16,990.43l-203.26 53.5 -162.23 -135.23c-2350.86,-1959.94 -4276.59,-4498.55 -5598.86,-7420.62 -1272.55,-2812.19 -1988.25,-5980.18 -1988.25,-9330.01 0,-5802.03 2145.39,-11057.32 5613.79,-14863.47 3477.84,-3816.49 8284.76,-6177.2 13596.34,-6177.2zm12990.51 6728.46c-3326.2,-3650.08 -7919.28,-5907.89 -12990.51,-5907.89 -5071.31,0 -9664.39,2257.81 -12990.59,5907.89 -3335.63,3660.5 -5398.97,8720.57 -5398.97,14312.21 0,3231.91 689.12,6285.43 1914.56,8993.41 1241.77,2744.16 3033.01,5133.51 5214.42,6993.84 1609.39,-413.98 3329.07,-738.52 5129.9,-959.5 1822.58,-223.69 3731.15,-342.67 5696.26,-342.67 2090.17,0 4122.4,135.97 6059.94,390.27 1923.02,252.41 3742.39,620.76 5423.34,1087.51 2243.86,-1857.37 4088.59,-4265.02 5367.13,-7039.79 1262.21,-2739.57 1973.48,-5839.04 1973.48,-9123.06 0,-5591.64 -2063.33,-10651.71 -5398.97,-14312.21z"/>
   <ellipse class="fil2" cx="34427.26" cy="23291.41" rx="6824.43" ry="7131.96"/>
   <ellipse class="fil2" cx="34427.26" cy="36027.16" rx="3978.44" ry="4157.72"/>
   <ellipse class="fil3" cx="37109.49" cy="20755.15" rx="2066.71" ry="2159.84"/>
   <ellipse class="fil3" cx="36253.33" cy="34747.33" rx="974.41" ry="1018.32"/>
   <path class="fil4" d="M34427.27 18209.85c1338.85,0 2551.82,568 3430.57,1486.31 880.39,920.19 1425.09,2191.51 1425.09,3595.26 0,1403.76 -544.7,2675.07 -1425.09,3595.18 -878.75,918.22 -2091.81,1486.31 -3430.57,1486.31 -1338.77,0 -2551.82,-568.08 -3430.57,-1486.31 -880.39,-920.11 -1425.09,-2191.43 -1425.09,-3595.18 0,-1403.76 544.7,-2675.07 1425.09,-3595.26 878.75,-918.3 2091.73,-1486.31 3430.57,-1486.31zm3081.42 1871.4c-787.83,-823.28 -1877.23,-1332.61 -3081.42,-1332.61 -1204.19,0 -2293.67,509.33 -3081.5,1332.61 -785.78,821.31 -1272.05,1956.41 -1272.05,3210.17 0,1253.76 486.19,2388.69 1272.05,3210 787.83,823.36 1877.39,1332.61 3081.5,1332.61 1204.11,0 2293.59,-509.25 3081.42,-1332.61 785.95,-821.31 1272.14,-1956.25 1272.14,-3210 0,-1253.76 -486.27,-2388.86 -1272.14,-3210.17z"/>
   <path class="fil4" d="M34427.27 33264.03c728.1,0 1388,308.95 1865.74,808.27 478.56,500.22 774.87,1191.56 774.87,1954.85 0,763.3 -296.31,1454.63 -774.87,1954.85 -477.74,499.32 -1137.64,808.18 -1865.74,808.18 -728.1,0 -1388,-308.86 -1865.74,-808.18 -478.64,-500.22 -774.87,-1191.56 -774.87,-1954.85 0,-763.3 296.23,-1454.63 774.87,-1954.85 477.74,-499.32 1137.64,-808.27 1865.74,-808.27zm1691.12 1000.94c-432.36,-451.89 -1030.31,-731.54 -1691.12,-731.54 -660.81,0 -1258.76,279.65 -1691.2,731.54 -431.38,450.91 -698.31,1073.97 -698.31,1762.18 0,688.22 266.93,1311.28 698.31,1762.18 432.36,451.73 1030.4,731.38 1691.2,731.38 660.73,0 1258.84,-279.65 1691.12,-731.38 431.46,-450.91 698.39,-1073.97 698.39,-1762.18 0,-688.22 -266.93,-1311.28 -698.39,-1762.18z"/>
   <rect class="fil0 str0" x="4304.56" y="14869.95" width="5789.64" height="50514.87" rx="2894.82" ry="3520.21"/>
   <rect class="fil0 str0" x="58779.44" y="14869.95" width="5789.64" height="50514.87" rx="2894.82" ry="3520.21"/>
   <path class="fil1" d="M57106.55 42640.4l0 18050.17c0,1426.81 -583.43,2723.65 -1523.23,3663.45 -939.8,939.8 -2236.64,1523.23 -3663.45,1523.23l-35461.44 0c-1426.65,0 -2723.57,-583.43 -3663.45,-1523.23 -939.8,-939.8 -1523.23,-2236.64 -1523.23,-3663.45l0 -20469.55 772.49 1466.12c2164.35,4107.79 5403.89,7548.63 9338.38,9937.4 3800.57,2307.54 8253.09,3634.65 13014.8,3634.65 4608.43,0 8929,-1244.48 12650.05,-3418.59 3856.62,-2253.46 7069.82,-5504.17 9293,-9402.14l766.09 -1343.2 0 1545.14zm-820.57 18050.17l0 -16588.24c-2242.3,3467.25 -5268.99,6368.8 -8824.95,8446.58 -3843.32,2245.5 -8305.11,3530.85 -13063.62,3530.85 -4912.45,0 -9509.96,-1371.59 -13437.89,-3756.42 -3618.4,-2196.92 -6666.51,-5253.32 -8867.21,-8888.71l0 17255.94c0,1200.34 491.36,2291.86 1282.8,3083.31 791.53,791.44 1883.05,1282.8 3083.31,1282.8l35461.44 0c1200.34,0 2291.86,-491.36 3083.31,-1282.8 791.44,-791.44 1282.8,-1882.97 1282.8,-3083.31z"/>
  </g>
 </g>
</svg>
