<?xml version="1.0" encoding="UTF-8"?>
<!DOCTYPE svg PUBLIC "-//W3C//DTD SVG 1.1//EN" "http://www.w3.org/Graphics/SVG/1.1/DTD/svg11.dtd">
<!-- Creator: CorelDRAW 2020 (64-Bit) -->
<svg xmlns="http://www.w3.org/2000/svg" xml:space="preserve" width="84.314mm" height="84.314mm" version="1.1" style="shape-rendering:geometricPrecision; text-rendering:geometricPrecision; image-rendering:optimizeQuality; fill-rule:evenodd; clip-rule:evenodd"
viewBox="0 0 3944.43 3944.43"
 xmlns:xlink="http://www.w3.org/1999/xlink"
 xmlns:xodm="http://www.corel.com/coreldraw/odm/2003">
 <defs>
  <style type="text/css">
   <![CDATA[
    .fil0 {fill:none}
    .fil3 {fill:#093C86}
    .fil2 {fill:white}
    .fil1 {fill:#093C86;fill-rule:nonzero}
   ]]>
  </style>
 </defs>
 <g id="Слой_x0020_1">
  <metadata id="CorelCorpID_0Corel-Layer"/>
  <rect class="fil0" transform="matrix(2.64845E-14 -2.0084 1 5.31916E-14 -1.4201E-06 3944.43)" width="1963.96" height="3944.43"/>
  <g id="_92773322416">
   <path class="fil1" d="M1253.03 3302.25c-26.99,143.91 -123.67,221.76 -232.71,243.43 -42.77,8.51 -87.46,8.26 -130.52,-0.11 -43.11,-8.38 -84.67,-24.94 -121.12,-49.03 -92.37,-61.06 -152.04,-169.95 -122.3,-316.64 0,-0.78 0.54,-2.07 0.54,-2.81 15.52,-72.74 60.78,-141.46 125.07,-187.28 64.38,-45.88 147.86,-68.95 239.7,-50.33 0.88,0 2.47,0.66 3.39,0.66 77.28,16.48 148.72,64.69 193.97,133.62 40.79,62.13 60.4,140.99 43.98,228.49zm-239.43 209.03c95.96,-19.07 181.11,-87.95 205.02,-215.47 14.61,-77.91 -2.69,-147.89 -38.77,-202.86 -40.16,-61.16 -103.52,-103.93 -172.04,-118.55l-3.05 -0.66c-81.45,-16.51 -155.45,3.92 -212.49,44.57 -57.16,40.73 -97.35,101.65 -111.09,166.03l-0.54 2.54c-26.4,130.34 26.04,226.71 107.36,280.46 32.54,21.51 69.73,36.3 108.38,43.82 38.69,7.52 78.83,7.75 117.22,0.11zm2302.34 -217.82c-25,147.17 -119.96,227.49 -228.2,251.33 -42.51,9.36 -87.05,9.92 -130.14,2.31 -43.03,-7.59 -84.71,-23.39 -121.56,-46.71 -93.97,-59.5 -156.23,-167.44 -129.69,-313.14 0,-0.67 0.42,-1.73 0.42,-2.44 14.12,-73.93 57.8,-143.94 121.01,-191.23 63.36,-47.4 146.27,-72.1 238.63,-55.26 0.79,0 2.04,0.5 2.87,0.5 76.57,14.62 149.74,61.73 197.09,129.81 42.38,60.93 64.22,138.62 49.57,224.84zm-235.74 217.07c95.31,-20.99 179.01,-92.17 201.21,-222.82 12.98,-76.4 -6.33,-145.17 -43.82,-199.07 -42.13,-60.58 -107.06,-102.46 -174.88,-115.42l-2.53 -0.5c-81.95,-14.93 -155.39,6.9 -211.43,48.82 -56.21,42.06 -95.04,104.24 -107.58,169.85l-0.42 2.1c-23.56,129.4 31.18,224.91 113.92,277.3 32.89,20.82 70.25,34.95 108.95,41.78 38.64,6.82 78.54,6.33 116.57,-2.04zm254.73 -477.94l409.8 0.1 2.48 14.6c5.94,34.84 9.48,70.5 8.1,104.1 -1.43,34.74 -8.14,67.29 -22.85,94.66l-3.68 6.84 -7.56 1.86c-44.37,10.91 -169.7,8.42 -260.94,6.61 -30.59,-0.6 -57.32,-1.14 -75.32,-1.07l-17.14 0.07 -0.41 -17.13c-0.72,-30.36 -6.94,-70.62 -16.38,-107.07 -8.34,-32.19 -18.95,-60.78 -30.08,-75.62l-20.95 -27.97 34.93 0.01zm380.07 35.04l-350.35 -0.09c7.67,17.13 14.54,37.91 20.23,59.85 8.41,32.45 14.43,67.99 16.63,98.02 16.64,0.15 37.01,0.56 59.45,1.01 84.11,1.67 197.83,3.92 244.2,-4.08 9.57,-20.94 14.11,-45.71 15.2,-72.32 1.08,-26.25 -1.2,-54.33 -5.36,-82.39zm-3139.88 192.61c-15.03,-0.05 -38.8,0.48 -66.88,1.1 -95.73,2.12 -240.95,5.35 -280.1,-10.07l-3.44 -1.36 -2.66 -2.68c-17.66,-17.86 -26.22,-46.52 -29.42,-78.17 -4.22,-41.8 0.75,-89.81 5.88,-122.31l2.34 -14.82 445.88 0.54 -5.79 21.9c-6.67,25.23 -14.49,43.75 -21.96,61.47 -13.41,31.77 -25.66,60.77 -26.37,127.07l-0.18 17.4 -17.29 -0.06zm-67.56 -33.85c19.29,-0.43 36.56,-0.81 50.53,-1 2.57,-61.32 15.07,-90.94 28.67,-123.13 4.56,-10.81 9.27,-21.95 13.69,-34.91l-369.57 -0.45c-3.87,29.08 -6.73,66.19 -3.44,98.72 2.27,22.5 7.37,42.33 17.02,54.24 38.46,11.51 173.24,8.52 263.1,6.52zm766.04 -193.24l1434.92 -0.71 -6.42 22.28c-6.83,23.68 -14.12,41.25 -21.07,57.99 -14.08,33.91 -26.65,64.19 -27.05,129.84l-0.1 17.4c-446.46,0.12 -892.93,0.21 -1339.4,0.21l-3.48 -12.95c-8.65,-32.27 -13.12,-55.37 -17.01,-75.49 -6.79,-35.17 -11.75,-60.8 -36.29,-113.77l-11.49 -24.79 27.38 -0.01zm1387.68 34.26l-1360.83 0.67c17.1,40.93 21.82,65.37 27.95,97.06 3.21,16.64 6.84,35.4 13.08,60.07l1277.94 -0.2c2.37,-60.94 15.12,-91.67 29.27,-125.74 4.18,-10.07 8.49,-20.46 12.59,-31.86zm-2456.17 -1393.84c280.74,4.96 564.46,3.42 847.35,1.89 143.67,-0.78 287.18,-1.56 410.67,-1.56 16.49,0 79.41,0.38 161.98,0.87 336.03,2 1028.11,6.13 1075.28,-7.59l10.7 -3.11 7.32 8.39c64.69,74.12 137.15,180.62 215.06,295.13 84.99,124.92 176.54,259.47 270.47,370.35 10.32,12.19 24.12,24.33 37.87,36.43 12.11,10.66 24.2,21.29 35.05,33 5.93,6.4 10.29,11.69 14.18,16.42 5.72,6.95 10.28,12.5 20.68,21.12 7.66,6.35 11.87,9.64 15.9,12.79 6.56,5.13 12.84,10.03 21.89,17.8 24.37,20.91 50.61,39.78 78.75,58 27.94,18.09 58.64,36.01 91.56,54.83 14.49,8.28 21.61,12.23 28.33,15.94l0.03 -0.05c60.32,33.37 97.83,54.13 131.81,124.48 14.35,29.69 27.86,70 38.42,112.28 10.57,42.32 18.29,86.97 21.02,125.25l1.37 19.05 -19.12 -0.35c-17.81,-0.32 -51.73,0.34 -93.49,1.16 -137.46,2.69 -358.31,7.02 -393.4,-18.92 -71.61,-52.96 -145.75,-81.24 -219.95,-83.05 -72.45,-1.76 -145.58,21.74 -217.11,72.17l-8.71 6.23c-31.96,22.89 -32.05,22.95 -92.06,22.21l-1471.76 0.17c-35.61,-2.4 -46.14,-12.06 -61.38,-26.04 -6.54,-6 -14.25,-13.07 -27.02,-20.62 -207.62,-122.72 -372.28,-4 -421.2,31.27 -9.03,6.52 -14.96,10.79 -19.84,12.18 -31.48,9 -202.74,6.47 -336.22,4.51 -64.58,-0.95 -120.23,-1.77 -145.92,-1.13l-17.47 0.44 -0.42 -17.5c-3.4,-143.69 -2.41,-290.06 -1.43,-435.68 0.43,-63.44 0.86,-126.71 0.86,-205.04 0,-109.53 -1.95,-213.99 -3.89,-318.21 -1.98,-106.36 -3.96,-212.49 -3.93,-318.04l0.01 -17.79 17.74 0.31zm847.49 36.84c-277.18,1.5 -555.17,3 -830.28,-1.59 0.19,99.21 2.05,199.35 3.92,299.71 2.01,107.98 4.03,216.23 4.03,318.76 0,57.62 -0.5,131.34 -1,205.18 -0.94,139.42 -1.89,279.52 1.04,417.43 29.74,-0.12 76.72,0.57 129.66,1.35 131.1,1.93 299.31,4.42 326.21,-3.28 0.75,-0.22 3.1,-2.57 9,-6.83 53.18,-38.34 232.17,-167.4 459.44,-33.06 15.9,9.39 25.1,17.84 32.91,25.01 9.86,9.04 16.67,15.29 40,16.87l1469.84 -0.17c48.36,0.6 48.42,0.56 71.22,-15.77l8.99 -6.37c77.82,-54.86 158.03,-80.41 238.08,-78.46 81.62,1.99 162.49,32.61 239.97,89.9 25.51,18.86 239,14.68 371.88,12.07 30.09,-0.59 56.13,-1.1 75.28,-1.22 -3.44,-31.7 -9.95,-66.78 -18.36,-100.46 -10.04,-40.21 -22.69,-78.13 -35.95,-105.56 -29.13,-60.29 -62.89,-78.97 -117.15,-109l0 -0.07c-11.24,-6.22 -23.17,-12.82 -28.9,-16.1 -32.72,-18.69 -63.56,-36.73 -93.21,-55.92 -29.43,-19.05 -56.89,-38.81 -82.46,-60.74 -9.19,-7.89 -14.8,-12.27 -20.65,-16.85 -5.46,-4.26 -11.11,-8.67 -16.72,-13.33 -12.64,-10.48 -18.27,-17.33 -25.34,-25.92 -3.33,-4.05 -7.05,-8.57 -12.8,-14.77 -9.31,-10.04 -20.95,-20.28 -32.59,-30.53 -14.57,-12.82 -29.19,-25.68 -41.43,-40.13 -95.14,-112.3 -187.2,-247.61 -272.67,-373.23 -74.84,-110 -144.62,-212.56 -206.15,-284.53 -105.71,12.7 -751.83,8.84 -1073.44,6.92 -69.25,-0.41 -121.91,-0.73 -161.84,-0.73 -149.26,0 -279.79,0.71 -410.53,1.42zm-859.25 -103.99c8.86,-65.82 19.35,-114.55 45.98,-148.3 27.64,-35.01 70.22,-51.94 141.98,-51.86l1749.36 0.22c127.99,-0.15 224.41,13.5 305.48,44.01 81.7,30.75 147.29,78.31 213.2,145.8l28.97 29.67c-829.21,0 -1658.42,0.07 -2487.64,0.27l2.67 -19.81zm73.4 -126.65c-19.1,24.21 -28.41,61.45 -35.91,111.51l2362.98 -0.26c-52.35,-48.33 -106.02,-83.69 -170,-107.77 -77.04,-29 -169.58,-41.96 -293.14,-41.82l-1749.36 -0.22c-59.75,-0.07 -94.01,12.52 -114.57,38.56zm1181.59 -667.19c26.64,26.43 54.21,53.03 83.78,79.66 29.5,26.55 60.43,52.64 93.52,77.78 195.99,148.89 293.96,189.67 359.1,216.78 28.48,11.85 50.93,21.2 73.35,35.99l38.9 25.64 -46.16 6.29c-48.82,6.65 -96.04,8.03 -141.46,4.87 -181.4,-12.59 -334.73,-97.06 -446.37,-205.64 -111.79,-108.73 -182.05,-242.2 -197.04,-352.25 -2.95,-21.65 -3.8,-42.43 -2.45,-61.94l3.63 -52.2 28.51 43.84c24.12,37.08 48.41,68.61 73.53,97.66 25.22,29.16 51.41,56 79.17,83.52zm60.34 105.7c-29.49,-26.55 -57.6,-53.7 -85.02,-80.9 -28.23,-27.99 -54.95,-55.38 -80.94,-85.44 -14.09,-16.29 -27.92,-33.34 -41.63,-51.65 14.97,102.3 81.25,226.4 186.29,328.57 106.31,103.4 252.11,183.83 424.31,195.78 24.42,1.69 49.36,2.02 74.77,0.85l-15.17 -6.35c-66.66,-27.74 -166.92,-69.47 -366.77,-221.3 -34.69,-26.35 -66.28,-52.94 -95.85,-79.56zm436.19 -106.12c47.19,38.45 130.62,120.53 188.14,200.55 41.15,57.26 69.48,114.5 63.96,157.13l-1.71 13.23 -13.16 1.91c-86.76,12.59 -208.24,-42.36 -321.42,-111.38 -111.16,-67.78 -214.73,-149.13 -267.7,-191.9 -42.48,-34.3 -84.63,-73.43 -124.53,-115.01 -41.1,-42.83 -79.82,-88.22 -114.07,-133.57 -15.45,-20.45 -30.14,-40.58 -41.43,-64.13 -11.51,-24.03 -18.98,-50.8 -19.17,-83.43l-0.09 -15.41 15.3 -2c50.18,-6.54 128.07,16.96 204.78,50.72 98.85,43.49 197.62,104.73 231.2,139.78l12.33 12.87 -97.64 90.64 2.79 2.76 159.73 115.26 57.03 -119.98c20.82,16.49 44.53,37.55 65.65,51.95zm159.77 220.97c-55.62,-77.36 -136.23,-156.69 -181.83,-193.84l-30.81 -24.42 -56.2 118.24 -197.12 -142.24 -0.87 -0.97c-4.63,-2 -8.76,-5.54 -10.44,-10.39l-0.07 -0.14c-1.63,-4.78 -2.03,-10.65 1.16,-15.95l-6.92 3.42 -5.78 -11.69 90.88 -84.38c-39.53,-33.32 -122.77,-82.79 -206.98,-119.84 -63.4,-27.89 -126.5,-48.44 -170.04,-48.97 2.04,19.53 7.42,36.42 14.85,51.94 9.69,20.21 23.39,38.92 37.87,58.09 33.56,44.43 71.34,88.75 111.33,130.42 38.91,40.54 79.94,78.65 121.24,112 52.34,42.26 154.63,122.61 263.99,189.3 100.7,61.41 207.03,111.26 283.55,107.94 -2.86,-31.81 -26.14,-74.47 -57.81,-118.53zm-476.17 -269.71l-3.16 1.57 3.16 -1.57zm-728.01 2839.14l95.64 0c17.77,-7.41 34.13,-11.75 50.81,-16.18 39.35,-10.45 80.7,-21.44 143.85,-78.99 59.77,-54.49 75.95,-98.34 90.06,-136.58 6.82,-18.49 13.21,-35.81 23.65,-53.31l5.07 -8.49 1350.55 -1.29 2.75 14.2c3.85,19.9 8.87,38.54 15.32,55.8 6.39,17.11 14.25,33.07 23.84,47.79 74.62,114.65 129.34,132.27 193.61,152.96 20.78,6.69 42.51,13.68 66.42,24.09l95.33 0c32.15,-13.62 56.56,-20.61 77.73,-26.67 39.96,-11.44 67.47,-19.32 116.63,-68.19l0.31 -0.31c22.27,-22.14 47.93,-47.67 65.9,-79.45 8.31,-14.7 14.44,-31.8 20.54,-48.85 7.63,-21.3 15.24,-42.55 28.13,-62.42l4.9 -7.56 9.01 -0.39c105.26,-4.57 180.03,-2.12 234.96,-0.33 124.45,4.07 137.89,4.48 187.64,-103.6l0 -106.69c-5.76,-19.76 -8.83,-51.84 -12.6,-91.45 -8.44,-88.58 -20.66,-216.65 -73.58,-311.95 -44.64,-80.4 -89.3,-103.71 -151.34,-136.08 -112.4,-58.65 -278.73,-145.43 -592.18,-613.8 -144.55,-216 -244.18,-363.37 -368,-455.6 -122.98,-91.59 -272.07,-130.2 -516.98,-130.15 -53.1,0.01 -106.25,-0.11 -159.41,-0.22 -111.76,-0.25 -223.61,-0.5 -335.31,0.48l-17.85 0.16 2.01 -145.41 23.36 8.94c20.88,7.99 40.43,15.95 59.35,23.66 85.95,35.01 158.68,64.64 284.26,65.06 64.6,0.22 128.69,-10.99 182.09,-32.58 48.45,-19.59 87.71,-47.6 109.65,-83.11 27.67,-44.78 1.86,-112.51 -44.82,-182.55 -87.87,-131.88 -247.77,-267.47 -281.66,-291.22l-10.4 -7.29 3.62 -12.04c5.55,-18.46 18.1,-49.51 32.11,-81.57 16.72,-38.28 35.57,-78.18 46.97,-99.67l5.84 -11.01 12.18 1.82c37.12,5.57 66.37,-1.97 87.12,-16.97 14.47,-10.45 24.99,-24.65 31.27,-40.57l0 -0.07c6.35,-16.09 8.37,-33.94 5.77,-51.46 -3.81,-25.73 -17.67,-50.82 -42.44,-68.78 -18.89,-13.69 -41.16,-19.37 -63.1,-17.52 -22.37,1.88 -44.44,11.57 -62.4,28.53 -41.3,39.02 -30.83,75.39 -17.41,122.04l6.04 21.12 -149.28 142.67 -11.62 -7.61c-7.97,-5.22 -17.73,-11.79 -28.82,-19.27 -85.22,-57.44 -251.74,-169.57 -379.03,-183.78 -81.35,-9.08 -146.75,24.94 -160.57,148.72 -12.62,113.05 14.34,216.47 62.51,309.4 48.65,93.87 118.99,177.27 192.25,249.28 12.25,12.04 22.46,20.25 33.07,28.79 8.45,6.8 17.16,13.81 27.05,22.73l9.23 8.32 -4.77 11.41c-10.98,26.28 -8.72,71.54 -6.76,110.86 0.5,10.1 0.99,19.83 1.25,29.87l0.45 17.18 -17.24 0.71c-210.88,8.68 -434.03,6.03 -653.76,3.42 -101.3,-1.2 -201.84,-2.4 -308.65,-2.4 -26.27,0 -54.67,-0.83 -81.84,-1.61 -127.81,-3.71 -226.05,-6.57 -279.55,94.51 -55.5,104.86 -50,241.48 -44.72,372.38 0.6,15.01 1.21,29.91 1.75,45.98 7.15,210.43 4.92,429.43 2.71,646.08 -1.05,104.08 -2.11,207.64 -2.11,309.3l0.07 0c0,18.39 -0.8,46.36 -1.7,78.18 -3.53,124.17 -8.83,310.65 27.59,363.04 29.25,42.08 81.64,41.56 148.61,40.9 8.53,-0.08 17.29,-0.17 26.4,-0.18 23.97,-0 47.99,0.07 72.02,0.15 54.71,0.18 109.52,0.37 164.11,-0.53l15.07 -0.25 2.47 14.85c2.78,16.72 8.03,34.53 14.44,51.49 7.41,19.61 16.38,38.05 24.94,52.5 16.06,27.05 39.67,55.33 66.55,80.41 26.32,24.57 55.57,45.92 83.69,59.9 20.02,9.94 41.8,15.82 62.38,21.37 16.44,4.43 32.19,8.68 47.05,14.92zm99.09 35.09l-106.17 0 -3.53 -1.58c-13.01,-5.82 -28.87,-10.1 -45.49,-14.58 -22.14,-5.96 -45.57,-12.29 -68.81,-23.84 -31.29,-15.55 -63.44,-38.94 -92.05,-65.65 -29.26,-27.32 -55.11,-58.33 -72.85,-88.23 -9.45,-15.94 -19.35,-36.31 -27.55,-57.98 -5.32,-14.1 -9.95,-28.8 -13.27,-43.26 -49.88,0.65 -100.01,0.48 -150.07,0.31 -24.03,-0.08 -48.06,-0.16 -72.02,-0.15 -8.81,0 -17.59,0.09 -26.13,0.18 -77.37,0.76 -137.91,1.36 -177.66,-55.83 -42.92,-61.74 -37.42,-255.2 -33.76,-384.01 0.83,-29.19 1.56,-54.88 1.56,-77.21l0.07 0c0,-101.94 1.06,-205.49 2.11,-309.57 2.2,-216.13 4.42,-434.6 -2.71,-644.71 -0.48,-14.26 -1.12,-29.97 -1.75,-45.71 -5.46,-135.52 -11.16,-276.99 48.69,-390.06 63.71,-120.34 171.4,-117.22 311.5,-113.14 24.79,0.72 50.71,1.47 80.87,1.47 95.33,0 201.83,1.27 309.06,2.54 213,2.53 429.22,5.09 634.53,-2.73l-0.58 -11.85c-1.9,-38.06 -4.05,-81.2 5.17,-113.8 -6.03,-5.16 -11.52,-9.58 -16.9,-13.9 -11.25,-9.05 -22.08,-17.77 -35.67,-31.12 -75.54,-74.24 -148.21,-160.52 -198.83,-258.18 -51.1,-98.6 -79.68,-208.61 -66.21,-329.27 16.74,-149.99 97.98,-191 199.22,-179.7 135.79,15.16 307.07,130.51 394.72,189.54l16.92 11.32 113.76 -108.71 -0.25 -0.87c-16.72,-58.08 -29.75,-103.38 27.15,-157.13 23.87,-22.55 53.43,-35.45 83.5,-37.98 30.04,-2.54 60.57,5.28 86.54,24.1 32.97,23.91 51.43,57.5 56.56,92.08 3.49,23.58 0.76,47.65 -7.83,69.41 -8.69,21.92 -23.3,41.56 -43.46,56.13 -25.24,18.24 -58.93,28.37 -100.1,24.76 -11.14,22.06 -26.51,54.94 -40.36,86.66 -10.8,24.74 -20.67,48.72 -26.82,66.14 49.97,38.66 196.8,167.41 280.27,292.68 53.73,80.64 81.89,161.15 45.37,220.24 -26.11,42.25 -71.28,74.96 -126.37,97.23 -11.45,4.63 -23.35,8.82 -35.61,12.55 243.85,1.64 395.2,42.57 521.9,136.94 128.61,95.79 229.66,245.23 376.22,464.23 308.52,461 470.11,545.31 579.3,602.28 67.45,35.2 116.01,60.54 165.73,150.06 56.47,101.69 69.1,234.08 77.83,325.64 3.74,39.31 6.75,70.76 11.99,86.8l0.89 2.72 0 119.26 -1.65 3.6c-60.82,132.86 -75.24,132.39 -222.18,127.59 -52.65,-1.72 -123.75,-4.05 -222.97,-0.07 -8.03,14.46 -13.96,31.02 -19.9,47.61 -6.53,18.25 -13.09,36.56 -23.14,54.33 -20.3,35.9 -47.77,63.24 -71.62,86.95l-0.31 0.31c-55.67,55.36 -86.69,64.24 -131.74,77.14 -20.9,5.98 -45.11,12.91 -76.85,26.59l-3.34 1.44 -109.59 0 -3.54 -1.58c-23.46,-10.46 -45.45,-17.54 -66.44,-24.29 -70.65,-22.74 -130.82,-42.11 -212.24,-167.21 -10.98,-16.85 -19.96,-35.1 -27.26,-54.64 -5.64,-15.09 -10.25,-30.84 -13.98,-47.23l-1301.61 1.24c-6.19,12.1 -11.01,25.16 -16.09,38.93 -15.49,42.01 -33.26,90.16 -99.38,150.43 -69.42,63.26 -115.08,75.39 -158.52,86.93 -16.49,4.38 -32.66,8.67 -49.27,15.91l-3.46 1.51 -3.53 0zm611.72 -2313.38c52.84,-0.41 105.72,-0.55 158.62,-0.56 -42.61,-11.99 -81.07,-27.65 -122.5,-44.52 -11.49,-4.68 -23.2,-9.45 -35.31,-14.26l-0.81 59.35z"/>
   <g>
    <polygon class="fil2" points="1090.26,2696.67 1044.01,2696.67 1044.01,2770.88 1090.26,2770.88 "/>
    <path class="fil1" d="M1090.26 2685.6l-56.81 0 0 96.34 67.38 0 0 -96.34 -10.56 0zm-35.69 22.16l25.13 0 0 52.04 -25.13 0 0 -52.04z"/>
    <path class="fil2" d="M1264.82 2151.64l246.8 0.07 0.06 -160.53c0,0 -24.84,-110.49 -186.31,-115.09 -161.47,-4.6 -854.54,-0 -854.54,-0 0,0 -47.83,167.75 122.65,279.53 170.48,111.78 481,-13.67 481,-13.67l190.35 9.69z"/>
    <path class="fil1" d="M1264.81 2166.35l260.83 0.08c0.01,-59.08 -0.02,-118.16 0.07,-177.24l-0.38 -1.6c-0.08,-0.35 -27.34,-121.31 -199.63,-126.21 -161.54,-4.6 -852.93,-0.01 -854.92,0l-10.58 0.07 -2.9 10.61c-0.14,0.51 -50.82,178.34 128.75,296.09 167.18,109.62 459.72,0.7 490.72,-11.33l187.39 9.53 0.66 0zm232.79 -29.35l-232.13 -0.07 -193.31 -9.83 -2.69 1.07c-0.87,0.35 -304.06,122.8 -468.57,14.94 -136.48,-89.49 -125.55,-215.4 -118.86,-252.37 89.38,-0.56 693.43,-4.19 842.99,0.07 140.09,3.99 169.18,90.18 172.62,102.48l-0.05 143.72z"/>
    <path class="fil2" d="M585.23 2415.27l811.11 0c17.43,0 48.8,-38.6 51.13,-93.75 2.33,-55.15 -1.16,-170.95 -1.16,-170.95l-929.63 5.52 68.55 259.19z"/>
    <path class="fil1" d="M585.23 2430.05l811.12 0c14.26,0 33.3,-14.68 46.76,-39.36 9.71,-17.81 17.24,-41.37 18.39,-68.54 2.34,-55.61 -1.15,-171.78 -1.16,-172.11l-0.48 -14.27 -961.61 5.7 76.32 288.58 10.67 0zm811.12 -29.54l-800.45 0 -60.78 -229.84 897.57 -5.32c0.83,32.5 2.57,112.57 0.76,155.53 -0.92,21.91 -6.97,40.87 -14.76,55.15 -8.37,15.35 -17.27,24.48 -22.34,24.48z"/>
    <polygon class="fil2" points="1197.35,2104.52 576.31,2104.52 680.64,2415.27 1147.67,2411.38 "/>
    <path class="fil1" d="M1197.35 2089.76l-640.89 0 114.25 340.31 488.85 -4.08 54.44 -336.23 -16.65 0zm-601.17 29.54l584.52 0 -44.92 277.46 -445.2 3.71 -94.4 -281.18z"/>
    <polygon class="fil1" points="809.41,2169.92 702.6,2172.23 703.42,2216.37 810.24,2214.06 "/>
    <path class="fil2" d="M1090.26 1980.11l-39.75 0c-90.17,0 -163.95,77.37 -163.95,171.94l0 372.67c0,94.57 73.78,171.94 163.95,171.94l39.75 0c90.17,0 163.95,-77.37 163.95,-171.94l0 -372.67c0,-94.57 -73.78,-171.94 -163.95,-171.94z"/>
    <path class="fil1" d="M1090.26 1957.96l-39.75 0c-50.92,0 -97.2,21.83 -130.73,57 -33.53,35.17 -54.35,83.7 -54.35,137.1l0 372.67c0,53.4 20.81,101.93 54.35,137.1 33.53,35.16 79.81,57 130.73,57l39.75 0c50.91,0 97.19,-21.84 130.73,-57 33.53,-35.17 54.35,-83.7 54.35,-137.1l0 -372.67c0,-53.4 -20.82,-101.93 -54.35,-137.1 -33.53,-35.17 -79.81,-57 -130.73,-57zm-39.75 44.31l39.75 0c39.26,0 74.96,16.86 100.85,44.02 25.89,27.16 41.97,64.6 41.97,105.77l0 372.67c0,41.16 -16.07,78.61 -41.97,105.77 -25.89,27.16 -61.6,44.02 -100.85,44.02l-39.75 0c-39.26,0 -74.96,-16.87 -100.85,-44.02 -25.9,-27.16 -41.97,-64.61 -41.97,-105.77l0 -372.67c0,-41.16 16.07,-78.61 41.97,-105.77 25.89,-27.16 61.6,-44.02 100.85,-44.02z"/>
    <polygon class="fil1" points="1254.2,2389.82 886.56,2389.82 886.56,2434.13 1254.2,2434.13 "/>
    <polygon class="fil1" points="1249.24,2497.52 1123.87,2497.52 1123.87,2541.83 1249.24,2541.83 "/>
    <polygon class="fil1" points="994.69,2513.15 905.26,2513.15 905.26,2557.46 994.69,2557.46 "/>
   </g>
   <path class="fil1" d="M2298.75 1934.82c57.29,0.33 114.92,2.02 172.07,3.68 30.29,0.88 60.44,1.76 89.42,2.42 10.21,0.23 18.87,0.27 26.53,0.3 32.22,0.13 49,0.21 68.37,12.28 19.03,11.85 36.42,34.01 72.6,80.17l15.2 19.3c28.11,35.72 95.39,125.41 148.85,204.45 34.73,51.35 63.9,98.7 73.5,125.19l8.51 23.46 -691.83 -0.65 -0.8 -470.7 17.57 0.1zm171.1 38.63c-51.31,-1.5 -102.99,-3.01 -153.67,-3.54l0.68 400.59 604.6 0.57c-13.07,-24.57 -34.41,-58.08 -58.74,-94.05 -52.99,-78.34 -119.55,-167.09 -147.34,-202.4l-15.17 -19.39c-33.52,-42.76 -49.62,-63.29 -63.59,-71.99 -11.09,-6.91 -24.42,-6.97 -50.01,-7.07 -7.98,-0.04 -17.01,-0.08 -27.07,-0.3 -30.21,-0.68 -59.91,-1.55 -89.71,-2.42zm-228.74 474.33c107.25,12.84 411.59,9.36 616.89,7.01 61.11,-0.7 113.47,-1.31 149.48,-1.34l0 -0.07c30.9,0 41.32,-7.86 41.32,-18.82 0,-22.66 -23.99,-58.37 -41.35,-84.21 -4.68,-6.98 -8.99,-13.38 -11.77,-17.83 -17.3,-27.67 -34.5,-54.37 -51.62,-80.17 -17.17,-25.87 -34.55,-51.26 -52.2,-76.25l-8.97 -12.73c-50.57,-71.91 -179.04,-254.58 -225.1,-266.51l-386.22 -11.52c-37.8,1.32 -37.72,12.46 -37.42,49.8l0.07 10.4c0.09,24.1 -0.5,60.68 -1.19,103.69 -2.18,135.44 -5.4,335.43 8.09,398.55zm617.16 41.95c-189.73,2.17 -461.29,17.57 -644.17,-10.4l-3.46 -10.04c-18.47,-53.66 -14.92,-274.21 -12.57,-420.62 0.69,-42.94 1.28,-79.46 1.19,-103l-0.07 -10.27c-0.51,-63.82 -0.66,-82.68 71.73,-85.04 127.89,0 262.84,7.46 391.32,11.64l1.43 0.29c58.81,12.08 194.65,205.24 247.86,280.91l8.97 12.73c17.6,24.92 35.17,50.59 52.74,77.07 17.62,26.54 35,53.52 52.18,80.99 3.5,5.61 7.12,10.98 11.08,16.88 19.9,29.61 47.39,70.54 47.39,103.67 0,31.4 -19.26,53.9 -76.41,53.9l0 -0.07c-35.7,0.03 -88.09,0.64 -149.21,1.34z"/>
   <path class="fil1" d="M200.91 3014.45l3560.85 15.42 2.65 14.26c0.04,0.21 14.03,72.02 7.87,116.61 -6.15,44.56 -35.36,101.67 -35.44,101.83l-4.83 9.65c-1161.41,1.01 -2322.85,2.13 -3484.25,2.13l-3.3 -1.44c-0.21,-0.09 -74.83,-30.89 -70.57,-122.53 3.73,-80.37 9.66,-121.08 9.68,-121.19l2.37 -14.8 14.97 0.07zm3531.57 50.24l-3516.17 -15.23c-1.96,17.83 -5.12,51.84 -7.47,102.42 -2.67,57.57 35.49,81.72 46.6,87.51l3454.82 -2.11c7.89,-16.88 23.39,-52.7 27.34,-81.35 3.82,-27.7 -1.67,-69.51 -5.14,-91.24z"/>
   <path class="fil3" d="M3020.97 2864.46c222.18,0 402.3,176.65 402.3,394.55 0,217.9 -180.12,394.55 -402.3,394.55 -222.18,0 -402.3,-176.65 -402.3,-394.55 0,-217.9 180.12,-394.55 402.3,-394.55z"/>
   <path class="fil2" d="M3020.97 2932.57c183.83,0 332.86,146.16 332.86,326.45 0,180.29 -149.03,326.44 -332.86,326.44 -183.83,0 -332.86,-146.15 -332.86,-326.44 0,-180.29 149.03,-326.45 332.86,-326.45z"/>
   <path class="fil3" d="M945.53 2864.46c222.18,0 402.3,176.65 402.3,394.55 0,217.9 -180.12,394.55 -402.3,394.55 -222.18,0 -402.3,-176.65 -402.3,-394.55 0,-217.9 180.12,-394.55 402.3,-394.55z"/>
   <path class="fil2" d="M945.53 2932.57c183.83,0 332.86,146.16 332.86,326.45 0,180.29 -149.03,326.44 -332.86,326.44 -183.83,0 -332.86,-146.15 -332.86,-326.44 0,-180.29 149.03,-326.45 332.86,-326.45z"/>
   <path class="fil3" d="M945.53 3058.31c113.02,0 204.65,89.86 204.65,200.7 0,110.84 -91.62,200.7 -204.65,200.7 -113.02,0 -204.65,-89.86 -204.65,-200.7 0,-110.85 91.62,-200.7 204.65,-200.7z"/>
   <path class="fil3" d="M3020.97 3058.31c113.02,0 204.65,89.86 204.65,200.7 0,110.84 -91.62,200.7 -204.65,200.7 -113.02,0 -204.65,-89.86 -204.65,-200.7 0,-110.85 91.62,-200.7 204.65,-200.7z"/>
  </g>
 </g>
</svg>
